<?xml version="1.0" encoding="utf-8"?>
<!-- Generator: Adobe Illustrator 16.0.0, SVG Export Plug-In . SVG Version: 6.00 Build 0)  -->
<!DOCTYPE svg PUBLIC "-//W3C//DTD SVG 1.1//EN" "http://www.w3.org/Graphics/SVG/1.1/DTD/svg11.dtd">
<svg version="1.1" id="Layer_1" xmlns="http://www.w3.org/2000/svg" xmlns:xlink="http://www.w3.org/1999/xlink" x="0px" y="0px"
	 width="230px" height="300px" viewBox="182.64 270.945 230 300" enable-background="new 182.64 270.945 230 300"
	 xml:space="preserve">
<g>
	<path fill-rule="evenodd" clip-rule="evenodd" d="M404.293,434.668c-0.911,15.396-1.587,30.812-2.813,46.183
		c-0.838,10.5-2.143,20.985-3.774,31.394c-2.538,16.184-6.724,31.958-13.259,47.041c-0.285,0.657-0.637,1.286-0.979,1.917
		c-0.906,1.669-2.212,1.995-3.68,0.791c-6.712-5.504-14.354-9.19-22.776-11.016c-7.604-1.647-15.103-0.832-22.236,2.479
		c-8.634,4.006-17.417,7.599-27.021,8.404c-8.992,0.756-17.243-1.483-24.614-6.771c-4.78-3.429-9.45-7.028-14.369-10.247
		c-7.097-4.644-14.763-4.471-22.562-1.976c-8.653,2.77-17.437,3.922-26.435,1.976c-6.589-1.425-12.18-4.782-16.698-9.651
		c-3.995-4.306-7.497-9.066-11.29-13.564c-1.179-1.398-0.997-2.445,0.165-3.722c5.083-5.591,10.318-11.063,15.104-16.899
		c7.471-9.112,12.313-19.652,15.666-30.899c5.729-19.215,6.385-39.013,6.773-58.844c0.271-13.832,0.275-27.679,0.96-41.491
		c1.011-20.394,6.67-39.442,18.418-56.35c10.478-15.08,24.42-25.493,42.192-30.719c10.827-3.183,21.821-4.279,32.95-3.018
		c20.514,2.327,37.611,10.957,49.628,28.291c6.481,9.348,11.318,19.574,14.997,30.279c3.332,9.699,6.268,19.55,8.953,29.449
		c1.479,5.449,2.252,11.111,3.046,16.721c2.354,16.648,3.444,33.386,2.981,50.212C403.845,434.648,404.069,434.659,404.293,434.668z
		 M381.214,557.915c1.312-3.492,2.625-7.035,3.972-10.565c4.885-12.807,7.537-26.174,9.67-39.637
		c1.261-7.955,2.13-15.986,2.831-24.014c1.001-11.465,2.035-22.946,2.433-34.441c0.739-21.35,0.366-42.688-3.058-63.851
		c-1.056-6.526-1.967-13.111-3.601-19.502c-2.088-8.16-4.628-16.224-7.359-24.197c-3.902-11.39-8.84-22.307-15.83-32.222
		c-9.188-13.032-21.671-21.089-37.081-24.619c-10.784-2.469-21.672-2.692-32.618-0.77c-10.602,1.862-20.416,5.651-29.235,11.773
		c-18.473,12.824-28.69,31.148-34.161,52.438c-3.061,11.912-3.615,24.146-3.901,36.39c-0.401,17.183-0.738,34.368-1.391,51.541
		c-0.426,11.19-2.229,22.2-5.233,33.036c-4.179,15.071-11.268,28.474-21.854,40.007c-3.267,3.559-6.514,7.134-9.878,10.819
		c2.853,3.547,5.387,7.032,8.269,10.202c4.604,5.063,9.904,9.082,16.733,10.928c9.088,2.456,17.711,0.506,26.353-2.072
		c7.687-2.294,15.359-2.624,22.46,1.676c5.148,3.118,10.062,6.657,14.899,10.251c6.353,4.721,13.279,7.467,21.278,7.306
		c9.394-0.19,17.977-3.325,26.285-7.306c12.691-6.08,25.308-5.563,37.849,0.238C373.063,553.182,376.853,555.534,381.214,557.915z"
		/>
	<path fill-rule="evenodd" clip-rule="evenodd" fill="#FFFFFF" d="M381.214,557.915c-4.361-2.381-8.151-4.732-12.169-6.591
		c-12.541-5.802-25.157-6.318-37.849-0.238c-8.309,3.98-16.892,7.115-26.285,7.306c-7.999,0.161-14.925-2.585-21.278-7.306
		c-4.838-3.594-9.751-7.133-14.899-10.251c-7.101-4.3-14.773-3.97-22.46-1.676c-8.642,2.578-17.265,4.528-26.353,2.072
		c-6.829-1.846-12.13-5.864-16.733-10.928c-2.882-3.17-5.416-6.655-8.269-10.202c3.365-3.686,6.612-7.261,9.878-10.819
		c10.586-11.533,17.675-24.936,21.854-40.007c3.004-10.836,4.808-21.846,5.233-33.036c0.652-17.173,0.989-34.358,1.391-51.541
		c0.286-12.244,0.841-24.478,3.901-36.39c5.471-21.289,15.688-39.614,34.161-52.438c8.819-6.122,18.633-9.911,29.235-11.773
		c10.946-1.922,21.834-1.7,32.618,0.77c15.41,3.529,27.893,11.586,37.081,24.619c6.99,9.915,11.928,20.832,15.83,32.222
		c2.731,7.973,5.271,16.037,7.359,24.197c1.634,6.391,2.545,12.976,3.601,19.502c3.424,21.163,3.797,42.501,3.058,63.851
		c-0.397,11.495-1.432,22.977-2.433,34.441c-0.701,8.027-1.57,16.059-2.831,24.014c-2.133,13.463-4.785,26.83-9.67,39.637
		C383.839,550.879,382.526,554.422,381.214,557.915z M283.195,382.4c7.584,0.26,12.638-5.992,12.775-12.66
		c0.142-6.86-5.935-12.821-12.823-12.837c-7.082-0.017-12.891,5.874-12.861,13.016C270.311,375.91,275.277,382.802,283.195,382.4z
		 M336.871,369.125c-0.022,7.328,5.514,12.928,12.736,12.884c7.061-0.044,12.737-5.721,12.752-12.753
		c0.015-7.139-5.536-12.678-12.737-12.71C342.275,356.513,336.893,361.822,336.871,369.125z M305.668,391.302
		c-0.078,3.863,3.751,9.389,9.043,10.941c9.408,2.762,16.512-4.105,16.249-13.139c-0.02-0.678-1.229-1.806-1.934-1.844
		c-0.711-0.038-1.783,0.875-2.151,1.636c-0.54,1.115-0.506,2.492-0.871,3.71c-1.535,5.111-6.331,7.262-11.146,4.92
		c-3.031-1.475-4.674-3.968-4.779-7.416c-0.044-1.442-0.386-2.833-2.224-2.777c-1.927,0.058-2.255,1.45-2.188,3.04
		C305.674,390.533,305.668,390.693,305.668,391.302z"/>
	<path fill-rule="evenodd" clip-rule="evenodd" d="M283.195,382.4c-7.918,0.402-12.884-6.49-12.909-12.481
		c-0.029-7.142,5.779-13.033,12.861-13.016c6.889,0.016,12.965,5.977,12.823,12.837C295.833,376.408,290.779,382.66,283.195,382.4z"
		/>
	<path fill-rule="evenodd" clip-rule="evenodd" d="M336.871,369.125c0.021-7.303,5.403-12.611,12.751-12.579
		c7.201,0.032,12.752,5.571,12.737,12.71c-0.015,7.032-5.691,12.709-12.752,12.753C342.385,382.052,336.849,376.453,336.871,369.125
		z"/>
	<path fill-rule="evenodd" clip-rule="evenodd" d="M305.668,391.302c0-0.609,0.006-0.77-0.001-0.929
		c-0.066-1.59,0.262-2.982,2.188-3.04c1.838-0.056,2.18,1.335,2.224,2.777c0.105,3.448,1.748,5.941,4.779,7.416
		c4.814,2.342,9.61,0.191,11.146-4.92c0.365-1.218,0.331-2.595,0.871-3.71c0.368-0.761,1.44-1.674,2.151-1.636
		c0.704,0.038,1.914,1.166,1.934,1.844c0.263,9.033-6.841,15.9-16.249,13.139C309.419,400.691,305.59,395.166,305.668,391.302z"/>
</g>
</svg>
