<?xml version="1.0" encoding="utf-8"?>
<!-- Generator: Adobe Illustrator 16.0.0, SVG Export Plug-In . SVG Version: 6.00 Build 0)  -->
<!DOCTYPE svg PUBLIC "-//W3C//DTD SVG 1.1//EN" "http://www.w3.org/Graphics/SVG/1.1/DTD/svg11.dtd">
<svg version="1.1" id="Layer_1" xmlns="http://www.w3.org/2000/svg" xmlns:xlink="http://www.w3.org/1999/xlink" x="0px" y="0px"
	 width="230px" height="300px" viewBox="182.64 270.945 230 300" enable-background="new 182.64 270.945 230 300"
	 xml:space="preserve">
<g>
	<path fill-rule="evenodd" clip-rule="evenodd" d="M286.801,284.219c1.074,0.252,2.136,0.589,3.224,0.744
		c10.488,1.485,20.679,4.024,30.039,9.123c15.873,8.649,27.292,21.391,34.533,37.96c3.896,8.917,6.148,18.24,7.63,27.806
		c2.62,16.907,2.223,33.943,2.338,50.963c0.052,7.674,0.033,15.373,0.642,23.012c1.105,13.887,3.766,27.455,9.373,40.352
		c6.188,14.229,15.396,26.299,26.152,37.285c1.736,1.773,1.786,3.1,0.146,4.865c-3.404,3.664-6.588,7.541-10.077,11.123
		c-6.19,6.354-13.897,9.287-22.702,9.744c-6.6,0.342-13.112-0.168-19.516-1.646c-10.379-2.395-19.137,0.895-27.187,7.186
		c-4.999,3.908-9.755,8.146-15.741,10.668c-4.065,1.713-8.269,2.393-12.584,2.518c-8.308,0.244-16.054-2.135-23.681-5.17
		c-4.794-1.906-9.602-4.063-14.612-5.086c-10.331-2.109-19.687,1.355-28.497,6.494c-2.263,1.32-4.382,2.902-6.486,4.473
		c-2.054,1.531-2.945,1.486-3.966-0.916c-2.302-5.428-4.815-10.811-6.542-16.426c-2.456-7.99-4.698-16.094-6.271-24.295
		c-1.921-10.021-3.164-20.18-4.496-30.305c-1.323-10.055-2.466-20.137-3.546-30.221c-0.561-5.242-0.795-10.521-1.219-15.779
		c-0.089-1.104-0.36-2.189-0.546-3.285c0-11.358,0-22.716,0-34.076c0.198-1.088,0.463-2.17,0.582-3.267
		c0.565-5.24,1.07-10.486,1.635-15.727c1.243-11.533,3.512-22.854,6.879-33.965c4.792-15.811,11.667-30.49,23.112-42.663
		c8.589-9.135,18.937-15.479,31.087-18.724c3.982-1.063,8.037-1.851,12.059-2.765C274.641,284.219,280.721,284.219,286.801,284.219z
		 M218.299,553.077c6.765-4.623,13.196-8.363,20.604-10.113c8.299-1.959,16.539-1.949,24.458,1.326
		c7.376,3.051,14.628,6.262,22.598,7.613c7.972,1.35,15.471,0.377,22.298-3.918c4.152-2.611,7.975-5.758,11.88-8.75
		c8.314-6.367,17.469-9.414,27.994-7.361c7.002,1.367,14.068,2.434,21.193,1.449c3.744-0.518,7.604-1.256,11.033-2.758
		c6.742-2.953,10.985-8.965,15.892-14.148c1.881-1.988,1.323-3.15-0.306-4.846c-11.464-11.939-20.762-25.301-26.634-40.904
		c-3.763-9.998-6.265-20.342-6.987-30.93c-0.947-13.868-1.223-27.792-1.438-41.698c-0.205-13.193-0.369-26.362-2.435-39.438
		c-1.325-8.387-3.497-16.511-6.776-24.344c-6.355-15.179-16.549-27.105-30.63-35.565c-8.628-5.183-18.125-8.112-28.068-9.633
		c-11.332-1.733-22.644-1.866-33.823,0.871c-15.395,3.768-27.572,12.441-36.934,25.113c-11.339,15.347-17.126,32.998-20.753,51.438
		c-1.477,7.506-2.328,15.146-3.213,22.754c-1.911,16.417-1.795,32.904-0.796,49.356c0.701,11.557,2.084,23.074,3.299,34.594
		c0.979,9.295,1.98,18.592,3.297,27.842c1.846,12.963,4.602,25.746,8.931,38.135C214.577,543.721,216.425,548.192,218.299,553.077z"
		/>
	<path fill-rule="evenodd" clip-rule="evenodd" d="M255.887,362.903c0.004,6.878-5.555,12.503-12.412,12.561
		c-6.915,0.058-12.639-5.68-12.602-12.633c0.037-6.857,5.684-12.448,12.547-12.419C250.322,350.441,255.884,356.013,255.887,362.903
		z"/>
	<path fill-rule="evenodd" clip-rule="evenodd" d="M298.76,364.843c0.031-6.964,5.499-12.408,12.455-12.402
		c6.981,0.007,12.561,5.662,12.504,12.674c-0.056,6.822-5.799,12.4-12.662,12.295C304.063,377.304,298.729,371.853,298.76,364.843z"
		/>
	<path fill-rule="evenodd" clip-rule="evenodd" d="M264.321,397.57c0-0.609,0.006-0.77-0.001-0.929
		c-0.066-1.59,0.262-2.982,2.188-3.04c1.838-0.056,2.18,1.335,2.224,2.777c0.105,3.448,1.748,5.941,4.779,7.416
		c4.814,2.342,9.61,0.191,11.146-4.92c0.365-1.218,0.331-2.595,0.871-3.71c0.368-0.761,1.44-1.674,2.151-1.636
		c0.704,0.038,1.914,1.166,1.934,1.844c0.263,9.033-6.841,15.9-16.249,13.139C268.072,406.959,264.243,401.434,264.321,397.57z"/>
</g>
</svg>
