<?xml version="1.0" encoding="utf-8"?>
<!-- Generator: Adobe Illustrator 16.0.0, SVG Export Plug-In . SVG Version: 6.00 Build 0)  -->
<!DOCTYPE svg PUBLIC "-//W3C//DTD SVG 1.1//EN" "http://www.w3.org/Graphics/SVG/1.1/DTD/svg11.dtd">
<svg version="1.1" id="Layer_1" xmlns="http://www.w3.org/2000/svg" xmlns:xlink="http://www.w3.org/1999/xlink" x="0px" y="0px"
	 width="300px" height="200px" viewBox="147.64 320.945 300 200" enable-background="new 147.64 320.945 300 200"
	 xml:space="preserve">
<path d="M350.908,323.616c9.729,4.337,21.597,26.264,22.766,37.283c0.771,7.372,0.188,25.36-5.647,28.36
	c-0.863,0.438,11.089,8.271,11.089,8.271s2.535,16.146,2.356,16.685c-0.162,0.541-1.031,2.146-1.33,2.503
	c-0.296,0.352-1.784,2.303-2.992,1.729c-1.183-0.579-1.539-1.698-1.504-2.223c0.028-0.523,1.857-3.824,1.917-4.39
	c0.061-0.553-2.531-12.138-2.531-12.138s-14.822-1.457-15.168-1.295c-0.355,0.16-4.969,2.272-5.254,2.595
	c-0.286,0.325-3.934,28.43-3.551,28.464c0.362,0.038,2.566,0.712,2.566,0.712c1.15,0.458,0.984,2.33-0.381,2.486
	c-1.377,0.146-5.371,0.431-5.829,0c-0.763-0.719,0.197-29.027,0-29.273c-0.208-0.247-25.282-0.65-25.282-0.65s-1.037,5.63,0,8.489
	c1.045,2.86-5.593,0.582-9.731,5.388c-3.414,3.972,3.059,12.462,6.238,13.835c0.69,0.289,1.698,0.574,2.03,0.838
	c0.826,0.64,0.575,1.33,0.282,1.8c-0.282,0.462-5.361,0.379-6.217,0c-0.859-0.388-8.172-14.74-8.172-14.74s1.16-6.67,3.698-6.512
	c2.549,0.169-0.384-9.06-3.497-11.02c-3.109-1.941,1.75,7.987-12.263,10.153c0,0-11.557,19.137-11.557,19.404
	c0,1.012,2.921,2.262,1.845,3.449c-0.585,0.629-4.135-1.039-4.947-1.594c-1.672-1.156-1.337-2.113-0.878-2.885
	c0.454-0.775,20.015-33.766,18.852-36.796c-1.161-3.031-36.173,20.374-53.091,20.374c-28.984,0-30.926-31.644-30.926-31.644
	c28.973,23.838,36.316-1.855,51.536-5.85c21.594-5.685,27.697,4.234,40.451,6.283c16.347,2.613,33.364-8.721,41.149-9.858
	c2.859-0.421,11.177-19.402,0.086-19.622c-8.834-0.312-8.834-0.312-8.834-0.312l-4.478-6.716l10.501-2.168l7.674-6.847
	L350.908,323.616z"/>
<g>
	<g>
		<path d="M202.344,517.261c-0.411-0.677-0.616-1.654-0.616-2.938l-0.103-14.993c-0.069-1.281-0.103-3.408-0.103-6.381
			c-0.137-6.28-0.205-13.373-0.205-21.273v-5.168c-0.616,3.243-1.678,7.802-3.182,13.678c-1.506,6.078-2.566,11.075-3.182,14.992
			v0.607l-0.308,1.925c-0.138,1.486-0.479,3.006-1.027,4.558c-0.684,1.621-1.744,2.432-3.181,2.432
			c-2.463,0-3.695-3.173-3.695-9.521c0-3.511-0.36-7.277-1.078-11.295s-1.865-8.966-3.438-14.841l-3.079-11.346l-0.206,12.155
			c0,3.647,0.17,10.604,0.513,20.868l0.206,6.889l0.205,13.879c0,1.417-0.514,2.702-1.54,3.85c-1.71,0-2.892-0.522-3.542-1.57
			c-0.65-1.046-0.975-2.584-0.975-4.609l0.205-8.308c0.205-3.646,0.308-6.381,0.308-8.204l-0.206-19.551l-0.205-19.653
			c0-2.902,0.067-7.258,0.205-13.068l2.772-1.62c0.547,0.068,1.093,0.457,1.642,1.165c0.547,0.709,1.163,1.841,1.848,3.394
			c1.709,4.188,3.934,12.561,6.671,25.122c0.411,1.758,0.683,3.209,0.821,4.355c0.821,3.919,1.402,6.889,1.744,8.915l1.54,7.801
			l0.719-3.344l1.95-8.307c1.093-4.862,2.001-9.117,2.719-12.765c0.718-3.646,1.419-7.597,2.104-11.852
			c0.751-5.064,1.231-9.285,1.437-12.663v-0.607c0.136-0.877,0.547-1.57,1.232-2.076c0.683-0.506,1.504-0.759,2.462-0.759
			c0.616,0,1.164,0.27,1.643,0.81c0.478,0.541,0.718,1.114,0.718,1.722c0,8.104,0.308,20.227,0.924,36.367
			c0.342,7.9,0.581,15.636,0.718,23.198c0.137,3.444,0.205,7.8,0.205,13.066c0,1.555-0.411,2.938-1.231,4.153
			c-0.821,1.217-1.745,1.824-2.771,1.824C203.302,518.274,202.755,517.936,202.344,517.261z"/>
		<path d="M236.008,512.499c0-1.62,1.061-2.431,3.182-2.431h1.129l1.026,0.102c0.547,0,0.924-0.168,1.129-0.507
			c0.205-0.337,0.308-0.943,0.308-1.823c0-1.147-0.068-2.938-0.205-5.369c-0.205-1.621-0.446-4.522-0.718-8.712
			c-0.616-10.333-0.925-18.133-0.925-23.401c0-1.888,0.034-3.611,0.103-5.165l0.103-5.167c0-2.229-0.103-4.085-0.308-5.571
			c-1.095,0.271-1.882,0.404-2.36,0.404c-1.643,0-2.463-0.81-2.463-2.43c0-0.81,0.513-1.521,1.539-2.127
			c1.027-0.608,2.326-1.047,3.901-1.317c2.735-0.54,5.165-0.81,7.288-0.81c0.821,0,1.521,0.288,2.104,0.86
			c0.58,0.574,0.872,1.232,0.872,1.976s-0.223,1.385-0.667,1.924c-0.446,0.542-1.01,0.812-1.693,0.812
			c-0.411,0-0.754-0.033-1.026-0.101h-0.821c-0.685,0-1.18,0.15-1.489,0.454c-0.309,0.305-0.461,0.861-0.461,1.672
			c0,6.552,0.411,16.411,1.232,29.58c0.136,2.43,0.411,6.012,0.821,10.737c0.341,3.107,0.514,6.28,0.514,9.522v3.85
			c0.411-0.067,1.093-0.101,2.053-0.101c2.873,0,4.311,1.181,4.311,3.544v0.608l-2.565,1.722c-0.069,0-0.292,0.018-0.668,0.051
			c-0.376,0.035-1.078,0.05-2.104,0.05c-2.19,0.136-3.592,0.203-4.208,0.203C238.984,515.538,236.008,514.525,236.008,512.499z"/>
		<path d="M280.5,515.742c-0.856-0.675-1.352-1.553-1.488-2.635l1.129-1.721c0.41,0,1.06,0.136,1.95,0.405
			c1.025,0.201,1.812,0.302,2.36,0.302c1.232,0,2.343-0.539,3.335-1.62c0.991-1.08,1.727-2.497,2.208-4.255
			c0.887-3.241,1.333-6.145,1.333-8.712c0-4.456-1.437-9.149-4.311-14.081l-1.129-1.925c-1.3-2.229-2.396-4.22-3.285-5.976
			c-0.89-1.756-1.642-3.648-2.258-5.674c-0.821-2.634-1.232-5.268-1.232-7.9c0-2.972,0.684-6.079,2.053-9.32
			c0.683-1.552,1.659-2.819,2.925-3.8c1.266-0.977,2.684-1.468,4.26-1.468c1.231,0,2.376,0.391,3.438,1.164
			c1.061,0.777,1.591,1.706,1.591,2.786c0,0.607-0.241,1.082-0.718,1.418c-0.48,0.338-1.062,0.507-1.745,0.507
			c-0.754,0-1.472-0.202-2.155-0.607c-1.506,0.067-2.704,1.385-3.592,3.95c-0.754,2.364-1.129,4.323-1.129,5.876
			c0,1.96,0.308,3.934,0.924,5.926s1.401,3.798,2.361,5.419l2.258,4.052l3.592,6.688c0.957,1.891,1.727,4.086,2.309,6.584
			c0.581,2.499,0.873,5.032,0.873,7.597c0,4.121-0.959,8.038-2.874,11.751c-0.959,1.893-2.31,3.41-4.054,4.559
			c-1.746,1.148-3.679,1.723-5.798,1.723v0.303C282.399,516.856,281.354,516.416,280.5,515.742z"/>
		<path d="M359.682,512.499c0-1.62,1.061-2.431,3.183-2.431h1.129l1.025,0.102c0.547,0,0.925-0.168,1.13-0.507
			c0.205-0.337,0.308-0.943,0.308-1.823c0-1.147-0.068-2.938-0.205-5.369c-0.205-1.621-0.446-4.522-0.718-8.712
			c-0.616-10.333-0.925-18.133-0.925-23.401c0-1.888,0.033-3.611,0.103-5.165l0.104-5.167c0-2.229-0.104-4.085-0.309-5.571
			c-1.096,0.271-1.882,0.404-2.36,0.404c-1.643,0-2.463-0.81-2.463-2.43c0-0.81,0.513-1.521,1.54-2.127
			c1.025-0.608,2.325-1.047,3.9-1.317c2.734-0.54,5.165-0.81,7.287-0.81c0.82,0,1.521,0.288,2.103,0.86
			c0.582,0.574,0.873,1.232,0.873,1.976s-0.223,1.385-0.666,1.924c-0.446,0.542-1.011,0.812-1.694,0.812
			c-0.41,0-0.754-0.033-1.026-0.101h-0.821c-0.685,0-1.18,0.15-1.488,0.454c-0.308,0.305-0.461,0.861-0.461,1.672
			c0,6.552,0.41,16.411,1.231,29.58c0.136,2.43,0.41,6.012,0.82,10.737c0.341,3.107,0.514,6.28,0.514,9.522v3.85
			c0.411-0.067,1.094-0.101,2.054-0.101c2.873,0,4.31,1.181,4.31,3.544v0.608l-2.565,1.722c-0.068,0-0.291,0.018-0.667,0.051
			c-0.376,0.035-1.077,0.05-2.104,0.05c-2.19,0.136-3.592,0.203-4.209,0.203C362.658,515.538,359.682,514.525,359.682,512.499z"/>
		<path d="M411.205,514.019l-0.103-3.951c-0.069-1.147-0.104-2.431-0.104-3.85l0.104-3.444c-0.205-0.742-0.719-8.136-1.54-22.185
			c-0.821-14.045-1.301-23.063-1.437-27.047c-3.969-0.134-6.502-0.539-7.595-1.216c-0.755-0.539-1.13-1.147-1.13-1.824
			c0-0.538,0.359-1.028,1.077-1.468c0.719-0.439,1.453-0.659,2.208-0.659c1.914,0,4.241,0.137,6.979,0.405
			c2.598,0.338,4.925,0.507,6.979,0.507h0.822h0.819c2.12,0,3.183,0.811,3.183,2.432c0,0.811-0.344,1.469-1.027,1.975
			c-0.685,0.507-1.471,0.76-2.36,0.76c-0.614,0-1.506-0.102-2.668-0.303l-2.054-0.407l-0.102,0.508l-0.104,0.506
			c0,6.013,0.581,15.6,1.745,28.769c1.093,12.359,1.642,21.95,1.642,28.77c0,0.812-0.359,1.521-1.077,2.128
			c-0.719,0.607-1.524,0.913-2.412,0.913L411.205,514.019z"/>
	</g>
	<g>
		<path d="M331.658,516.923c-1.779,0-2.669-1.484-2.669-4.456v-28.668c-1.026,0.338-2.36,0.506-4.002,0.506
			c-1.026,0-1.898-0.27-2.617-0.81c-0.719-0.541-1.077-1.249-1.077-2.129c0-1.754,1.677-2.633,5.027-2.633h1.027h0.821V476
			c0-3.039-0.169-6.449-0.513-10.232c-0.273-4.052-0.412-7.395-0.412-10.029v-1.215h-1.231c-2.258,0-4.036,0.339-5.336,1.014
			c-3.49,0-5.235-0.946-5.235-2.838c0-0.876,0.53-1.62,1.591-2.228c1.061-0.608,2.481-1.046,4.26-1.316
			c2.736-0.406,5.304-0.607,7.697-0.607c1.026,0,1.935,0.271,2.72,0.81c0.787,0.541,1.18,1.284,1.18,2.229
			c0,2.566,0.139,7.159,0.411,13.776v2.432c0.138,2.43,0.378,9.689,0.719,21.779c0.342,11.615,0.788,20.227,1.334,25.831
			C333.917,516.417,332.685,516.923,331.658,516.923z"/>
	</g>
</g>
</svg>
