<?xml version="1.0" encoding="utf-8"?>
<!-- Generator: Adobe Illustrator 16.0.0, SVG Export Plug-In . SVG Version: 6.00 Build 0)  -->
<!DOCTYPE svg PUBLIC "-//W3C//DTD SVG 1.1//EN" "http://www.w3.org/Graphics/SVG/1.1/DTD/svg11.dtd">
<svg version="1.1" id="Layer_1" xmlns="http://www.w3.org/2000/svg" xmlns:xlink="http://www.w3.org/1999/xlink" x="0px" y="0px"
	 width="595.28px" height="841.89px" viewBox="0 0 595.28 841.89" enable-background="new 0 0 595.28 841.89" xml:space="preserve">
<path fill="#FED426" d="M409.307,191.975c20.83,9.408,46.235,56.966,48.737,80.869c1.651,15.989,0.404,55.006-12.089,61.512
	c-1.849,0.949,23.738,17.94,23.738,17.94s5.426,35.02,5.046,36.19c-0.347,1.172-2.207,4.654-2.849,5.429
	c-0.633,0.763-3.817,4.995-6.403,3.751c-2.533-1.256-3.296-3.683-3.223-4.822c0.063-1.135,3.978-8.294,4.104-9.522
	c0.131-1.2-5.416-26.327-5.416-26.327s-31.734-3.16-32.473-2.81c-0.762,0.347-10.637,4.928-11.247,5.628
	c-0.614,0.706-8.42,61.667-7.602,61.74c0.777,0.081,5.496,1.545,5.496,1.545c2.461,0.992,2.105,5.054-0.818,5.389
	c-2.946,0.32-11.499,0.937-12.479,0c-1.632-1.558,0.423-62.957,0-63.493c-0.446-0.536-54.124-1.411-54.124-1.411
	s-2.222,12.213,0,18.413c2.236,6.205-11.972,1.264-20.832,11.688c-7.311,8.616,6.546,27.031,13.356,30.008
	c1.476,0.629,3.634,1.248,4.346,1.819c1.767,1.387,1.229,2.887,0.603,3.905c-0.603,0.999-11.478,0.819-13.309,0
	c-1.841-0.843-17.494-31.973-17.494-31.973s2.481-14.468,7.916-14.123c5.457,0.366-0.82-19.652-7.487-23.902
	c-6.654-4.211,3.747,17.325-26.251,22.023c0,0-24.742,41.509-24.742,42.088c0,2.192,6.254,4.907,3.95,7.481
	c-1.253,1.363-8.853-2.254-10.591-3.456c-3.58-2.51-2.862-4.584-1.88-6.257c0.972-1.682,42.849-73.24,40.358-79.814
	c-2.486-6.574-77.439,44.193-113.658,44.193c-62.05,0-66.208-68.637-66.208-68.637c62.026,51.705,77.747-4.024,110.33-12.688
	c46.229-12.331,59.294,9.183,86.597,13.627c34.996,5.668,71.425-18.915,88.094-21.383c6.121-0.912,23.927-42.082,0.182-42.559
	c-18.908-0.677-18.908-0.677-18.908-0.677l-9.588-14.567l22.48-4.703l16.432-14.851L409.307,191.975z"/>
<g>
	<g>
		<path fill="#FED426" d="M95.278,611.995c-0.879-1.466-1.318-3.588-1.318-6.372l-0.22-32.52c-0.147-2.78-0.22-7.395-0.22-13.842
			c-0.295-13.623-0.439-29.004-0.439-46.143v-11.206c-1.318,7.031-3.591,16.919-6.812,29.663
			c-3.224,13.184-5.493,24.025-6.812,32.52v1.318l-0.659,4.174c-0.295,3.225-1.026,6.521-2.197,9.888
			c-1.466,3.516-3.735,5.273-6.812,5.273c-5.273,0-7.909-6.883-7.909-20.653c0-7.615-0.77-15.783-2.308-24.5
			c-1.538-8.713-3.993-19.445-7.36-32.189l-6.592-24.608l-0.439,26.366c0,7.91,0.363,22.999,1.099,45.264l0.439,14.94l0.439,30.103
			c0,3.076-1.099,5.86-3.296,8.35c-3.663,0-6.19-1.133-7.581-3.405c-1.394-2.27-2.087-5.604-2.087-9.998l0.439-18.018
			c0.439-7.91,0.659-13.842,0.659-17.797l-0.439-42.407l-0.439-42.626c0-6.297,0.145-15.745,0.439-28.345l5.933-3.516
			c1.171,0.147,2.341,0.989,3.516,2.527c1.171,1.538,2.489,3.992,3.955,7.36c3.659,9.084,8.421,27.246,14.281,54.491
			c0.879,3.812,1.463,6.959,1.758,9.448c1.758,8.497,3.001,14.941,3.735,19.336l3.296,16.919l1.538-7.251l4.175-18.018
			c2.342-10.547,4.285-19.775,5.823-27.686s3.038-16.479,4.504-25.707c1.61-10.986,2.637-20.14,3.076-27.466v-1.318
			c0.292-1.902,1.171-3.405,2.637-4.504c1.463-1.099,3.221-1.648,5.273-1.648c1.318,0,2.489,0.587,3.516,1.758
			c1.023,1.174,1.538,2.417,1.538,3.735c0,17.578,0.659,43.873,1.978,78.881c0.731,17.139,1.243,33.913,1.538,50.316
			c0.292,7.471,0.439,16.919,0.439,28.345c0,3.371-0.879,6.372-2.637,9.009s-3.735,3.955-5.933,3.955
			C97.328,614.192,96.157,613.458,95.278,611.995z"/>
		<path fill="#FED426" d="M167.345,601.668c0-3.516,2.27-5.273,6.812-5.273h2.417l2.197,0.22c1.171,0,1.978-0.364,2.417-1.099
			c0.439-0.731,0.659-2.05,0.659-3.955c0-2.489-0.147-6.372-0.439-11.646c-0.439-3.516-0.955-9.812-1.538-18.896
			c-1.318-22.412-1.978-39.331-1.978-50.757c0-4.099,0.072-7.834,0.22-11.206l0.22-11.206c0-4.833-0.22-8.86-0.659-12.084
			c-2.345,0.587-4.03,0.879-5.054,0.879c-3.516,0-5.273-1.758-5.273-5.273c0-1.758,1.099-3.296,3.296-4.614s4.978-2.27,8.35-2.856
			c5.856-1.171,11.058-1.758,15.601-1.758c1.758,0,3.258,0.625,4.504,1.867c1.243,1.246,1.868,2.675,1.868,4.285
			c0,1.613-0.478,3.004-1.429,4.175c-0.954,1.174-2.163,1.758-3.625,1.758c-0.879,0-1.614-0.072-2.197-0.22h-1.758
			c-1.467,0-2.527,0.329-3.187,0.988s-0.988,1.868-0.988,3.626c0,14.21,0.879,35.595,2.637,64.159
			c0.291,5.273,0.879,13.039,1.758,23.291c0.73,6.739,1.099,13.622,1.099,20.653v8.35c0.879-0.144,2.341-0.22,4.395-0.22
			c6.151,0,9.228,2.564,9.228,7.69v1.318l-5.492,3.735c-0.148,0-0.625,0.038-1.429,0.11c-0.807,0.075-2.307,0.109-4.504,0.109
			c-4.69,0.295-7.69,0.439-9.009,0.439C173.717,608.26,167.345,606.063,167.345,601.668z"/>
		<path fill="#FED426" d="M262.594,608.699c-1.833-1.463-2.894-3.368-3.186-5.713l2.417-3.735c0.879,0,2.27,0.295,4.175,0.879
			c2.197,0.439,3.879,0.659,5.054,0.659c2.637,0,5.016-1.171,7.141-3.516c2.122-2.341,3.697-5.417,4.725-9.229
			c1.901-7.031,2.856-13.327,2.856-18.896c0-9.667-3.076-19.847-9.229-30.541l-2.417-4.175c-2.784-4.834-5.13-9.153-7.031-12.964
			c-1.905-3.808-3.516-7.91-4.834-12.305c-1.758-5.713-2.637-11.426-2.637-17.139c0-6.443,1.463-13.183,4.395-20.214
			c1.462-3.368,3.55-6.115,6.262-8.24c2.709-2.121,5.747-3.186,9.119-3.186c2.637,0,5.088,0.845,7.36,2.526
			c2.27,1.686,3.406,3.701,3.406,6.043c0,1.318-0.516,2.345-1.538,3.076c-1.027,0.734-2.273,1.099-3.735,1.099
			c-1.614,0-3.152-0.439-4.614-1.318c-3.224,0.147-5.789,3.004-7.69,8.569c-1.614,5.129-2.417,9.376-2.417,12.743
			c0,4.251,0.659,8.535,1.978,12.854c1.318,4.322,3,8.239,5.054,11.755l4.834,8.789l7.69,14.502
			c2.049,4.103,3.697,8.864,4.943,14.282c1.243,5.421,1.867,10.914,1.867,16.479c0,8.938-2.053,17.435-6.151,25.488
			c-2.054,4.103-4.944,7.398-8.68,9.888s-7.876,3.735-12.414,3.735v0.659C266.659,611.116,264.424,610.162,262.594,608.699z"/>
		<path fill="#FED426" d="M432.109,601.668c0-3.516,2.27-5.273,6.812-5.273h2.417l2.197,0.22c1.171,0,1.978-0.364,2.417-1.099
			c0.439-0.731,0.659-2.05,0.659-3.955c0-2.489-0.147-6.372-0.439-11.646c-0.439-3.516-0.955-9.812-1.538-18.896
			c-1.318-22.412-1.978-39.331-1.978-50.757c0-4.099,0.072-7.834,0.22-11.206l0.22-11.206c0-4.833-0.22-8.86-0.659-12.084
			c-2.345,0.587-4.03,0.879-5.054,0.879c-3.516,0-5.273-1.758-5.273-5.273c0-1.758,1.099-3.296,3.296-4.614s4.978-2.27,8.35-2.856
			c5.856-1.171,11.058-1.758,15.601-1.758c1.758,0,3.258,0.625,4.504,1.867c1.243,1.246,1.868,2.675,1.868,4.285
			c0,1.613-0.478,3.004-1.429,4.175c-0.954,1.174-2.163,1.758-3.625,1.758c-0.879,0-1.614-0.072-2.197-0.22h-1.758
			c-1.467,0-2.527,0.329-3.187,0.988s-0.988,1.868-0.988,3.626c0,14.21,0.879,35.595,2.637,64.159
			c0.291,5.273,0.879,13.039,1.758,23.291c0.73,6.739,1.099,13.622,1.099,20.653v8.35c0.879-0.144,2.341-0.22,4.395-0.22
			c6.151,0,9.228,2.564,9.228,7.69v1.318l-5.492,3.735c-0.148,0-0.625,0.038-1.429,0.11c-0.807,0.075-2.307,0.109-4.504,0.109
			c-4.69,0.295-7.69,0.439-9.009,0.439C438.481,608.26,432.109,606.063,432.109,601.668z"/>
		<path fill="#FED426" d="M542.41,604.964l-0.22-8.569c-0.147-2.489-0.22-5.273-0.22-8.35l0.22-7.471
			c-0.439-1.609-1.538-17.649-3.296-48.119c-1.758-30.466-2.784-50.021-3.076-58.666c-8.497-0.292-13.918-1.171-16.26-2.637
			c-1.613-1.171-2.417-2.489-2.417-3.955c0-1.171,0.769-2.231,2.307-3.187c1.538-0.951,3.111-1.428,4.725-1.428
			c4.1,0,9.081,0.295,14.941,0.879c5.564,0.734,10.547,1.099,14.941,1.099h1.758h1.757c4.539,0,6.812,1.758,6.812,5.273
			c0,1.758-0.734,3.186-2.197,4.284c-1.466,1.099-3.151,1.648-5.054,1.648c-1.317,0-3.224-0.22-5.712-0.659l-4.395-0.879
			l-0.22,1.099l-0.22,1.099c0,13.039,1.242,33.837,3.735,62.401c2.341,26.807,3.516,47.607,3.516,62.401
			c0,1.758-0.77,3.296-2.308,4.614s-3.262,1.978-5.163,1.978L542.41,604.964z"/>
	</g>
	<g>
		<path fill="#FED426" d="M372.116,611.266c-3.808,0-5.713-3.221-5.713-9.668v-62.182c-2.197,0.734-5.054,1.099-8.569,1.099
			c-2.197,0-4.064-0.584-5.603-1.758c-1.538-1.171-2.307-2.709-2.307-4.614c0-3.808,3.591-5.713,10.766-5.713h2.197h1.758v-5.933
			c0-6.592-0.363-13.986-1.099-22.192c-0.583-8.789-0.879-16.039-0.879-21.752v-2.637h-2.637c-4.834,0-8.641,0.734-11.425,2.197
			c-7.471,0-11.206-2.05-11.206-6.152c0-1.902,1.136-3.516,3.405-4.834c2.272-1.318,5.312-2.27,9.119-2.856
			c5.86-0.879,11.354-1.318,16.479-1.318c2.197,0,4.141,0.587,5.823,1.758c1.686,1.174,2.526,2.784,2.526,4.834
			c0,5.568,0.296,15.528,0.879,29.882v5.273c0.296,5.273,0.807,21.021,1.538,47.241c0.734,25.196,1.686,43.872,2.856,56.029
			C376.95,610.167,374.313,611.266,372.116,611.266z"/>
	</g>
</g>
<g>
</g>
<g>
</g>
<g>
</g>
<g>
</g>
<g>
</g>
<g>
</g>
</svg>
