<?xml version="1.0" encoding="utf-8"?>
<!-- Generator: Adobe Illustrator 16.0.0, SVG Export Plug-In . SVG Version: 6.00 Build 0)  -->
<!DOCTYPE svg PUBLIC "-//W3C//DTD SVG 1.1//EN" "http://www.w3.org/Graphics/SVG/1.1/DTD/svg11.dtd">
<svg version="1.1" id="Layer_1" xmlns="http://www.w3.org/2000/svg" xmlns:xlink="http://www.w3.org/1999/xlink" x="0px" y="0px"
	 width="595.28px" height="841.89px" viewBox="0 0 595.28 841.89" enable-background="new 0 0 595.28 841.89" xml:space="preserve">
<path fill="#FED426" d="M386.745,198.693c20.246,9.144,44.938,55.367,47.369,78.599c1.605,15.54,0.394,53.462-11.75,59.785
	c-1.796,0.922,23.072,17.437,23.072,17.437s5.273,34.037,4.904,35.175c-0.336,1.139-2.145,4.523-2.77,5.276
	c-0.613,0.742-3.709,4.854-6.223,3.646c-2.461-1.221-3.203-3.579-3.132-4.687c0.062-1.104,3.866-8.062,3.989-9.255
	c0.127-1.167-5.264-25.588-5.264-25.588s-30.845-3.072-31.562-2.731c-0.74,0.337-10.339,4.79-10.932,5.471
	c-0.597,0.686-8.184,59.936-7.388,60.006c0.756,0.078,5.342,1.503,5.342,1.503c2.392,0.964,2.046,4.911-0.796,5.237
	c-2.862,0.311-11.176,0.909-12.128,0c-1.587-1.515,0.411-61.19,0-61.711c-0.434-0.521-52.605-1.372-52.605-1.372
	s-2.158,11.87,0,17.896c2.174,6.031-11.636,1.229-20.246,11.36c-7.105,8.374,6.361,26.272,12.98,29.166
	c1.435,0.611,3.533,1.214,4.225,1.769c1.717,1.348,1.195,2.806,0.586,3.795c-0.586,0.972-11.156,0.797-12.936,0
	c-1.789-0.818-17.003-31.075-17.003-31.075s2.411-14.062,7.694-13.726c5.303,0.355-0.798-19.1-7.277-23.231
	c-6.469-4.093,3.641,16.839-25.516,21.405c0,0-24.047,40.344-24.047,40.906c0,2.132,6.078,4.771,3.84,7.271
	c-1.219,1.326-8.604-2.19-10.293-3.358c-3.48-2.439-2.783-4.455-1.828-6.082c0.945-1.635,41.646-71.184,39.225-77.574
	c-2.416-6.39-75.265,42.953-110.467,42.953c-60.309,0-64.35-66.71-64.35-66.71c60.285,50.253,75.564-3.911,107.233-12.333
	c44.931-11.984,57.629,8.925,84.165,13.245c34.014,5.51,69.421-18.383,85.622-20.782c5.948-0.886,23.255-40.901,0.177-41.364
	c-18.379-0.658-18.379-0.658-18.379-0.658l-9.318-14.158l21.85-4.571l15.971-14.434L386.745,198.693z"/>
<g>
</g>
<g>
</g>
<g>
</g>
<g>
</g>
<g>
</g>
<g>
</g>
</svg>
