<?xml version="1.0" encoding="utf-8"?>
<!-- Generator: Adobe Illustrator 16.0.0, SVG Export Plug-In . SVG Version: 6.00 Build 0)  -->
<!DOCTYPE svg PUBLIC "-//W3C//DTD SVG 1.1//EN" "http://www.w3.org/Graphics/SVG/1.1/DTD/svg11.dtd">
<svg version="1.1" id="Layer_1" xmlns="http://www.w3.org/2000/svg" xmlns:xlink="http://www.w3.org/1999/xlink" x="0px" y="0px"
	 width="595.279px" height="841.89px" viewBox="0 0 595.279 841.89" enable-background="new 0 0 595.279 841.89"
	 xml:space="preserve">
<g>
	<path fill-rule="evenodd" clip-rule="evenodd" fill="#FFFFFF" d="M591.46,802.445c-191.798,0-383.597,0-575.396,0
		c0-257.403,0-514.806,0-772.209c191.799,0,383.598,0,575.396,0C591.46,287.639,591.46,545.042,591.46,802.445z M89.094,208.814
		c-1.136,3.013-1.824,4.943-2.587,6.845c-5.899,14.692-8.984,29.906-8.372,45.778c0.14,3.615-0.4,6.799-2.391,10.03
		c-3.177,5.155-4.691,10.782-2.754,16.998c0.887,2.848,1.594,6.031,1.25,8.928c-0.823,6.936,3.231,12.446,5.426,18.237
		c1.911,5.042,6.045,9.86,11.698,12.341c3.548,1.557,4.829,4.421,4.974,8.24c0.125,3.297,0.808,6.593,1.467,9.844
		c0.619,3.055,1.754,6.014,2.264,9.082c1.144,6.878,1.378,13.98,3.225,20.648c1.818,6.568,2.238,13.09,2.424,19.758
		c0.164,5.842,0.587,11.677,0.771,17.519c0.392,12.504,0.694,25.011,1.055,37.518c0.05,1.7-0.512,2.548-2.326,3.041
		c-1.132,0.307-2.52,1.627-2.816,2.751c-2.427,9.206-4.07,18.526-2.23,28.071c0.329,1.702-0.084,2.646-1.482,3.632
		c-4.766,3.357-9.527,6.739-14.087,10.365c-2.185,1.738-3.716,4.293-5.89,6.05c-8.895,7.184-18.355,13.729-26.783,21.414
		c-8.634,7.874-15.811,17.188-20.664,27.99c-1.081,2.407-1.795,5.148-1.943,7.776c-0.56,9.92,6.486,15.856,13.146,20.752
		c9.674,7.111,20.493,12.676,30.887,18.79c3.445,2.027,3.704,2.557,1.449,5.927c-2.503,3.743-2.436,4.133,0.84,7.337
		c1.838,1.797,3.598,3.677,5.495,5.625c-2.792,1.832-5.339,3.253-7.599,5.039c-5.55,4.379-6.881,11.635-3.748,17.951
		c1.731,3.489,3.274,7.105,4.505,10.8c0.945,2.836,2.558,4.863,4.954,6.527c4.334,3.014,9.236,3.727,14.066,2.516
		c6.628-1.661,13.042-4.165,19.583-6.197c0.92-0.286,2.354-0.341,3.006,0.179c2.91,2.322,6.857,3.598,7.824,8.004
		c0.262,1.192,1.92,2.088,2.962,3.093c1.049,1.011,2.129,1.989,3.194,2.985c2.464,2.3,4.681,4.964,7.436,6.834
		c7.915,5.379,16.037,10.454,24.106,15.601c0.938,0.6,2.098,0.843,3.09,1.37c3.17,1.691,6.443,3.236,9.419,5.225
		c2.49,1.662,4.382,4.281,6.956,5.743c5.301,3.01,7.513,7.84,8.102,13.334c1.218,11.37,1.946,22.792,2.902,34.504
		c-4.532,1.308-9.331,2.615-14.081,4.083c-5.578,1.724-8.622,5.782-9.254,11.396c-0.57,5.062-0.472,10.197-0.844,15.285
		c-0.328,4.485,0.377,6.096,5.856,6.482c7.336,0.516,14.751-0.036,22.13-0.219c5.6-0.138,11.204-0.346,16.571-2.277
		c0.467-0.168,1.039-0.079,1.558-0.053c6.547,0.342,12.941,0.317,19.481-1.368c6.708-1.729,13.804-2.002,20.748-2.739
		c2.203-0.234,4.512-0.172,6.691,0.214c4.711,0.835,8.713-2.09,8.527-6.769c-0.157-3.946-0.462-7.922-1.142-11.809
		c-0.78-4.461-2.043-8.835-3.085-13.201c5.288-2.719,5.948-4.024,5.071-10.001c-0.513-3.501-1.254-6.979-1.586-10.493
		c-0.512-5.423,1.606-9.485,6.664-11.939c5.536-2.687,11.413-2.921,17.4-2.985c3.891-0.043,6.049,1.975,7.16,5.243
		c0.792,2.335,1.226,4.851,1.419,7.317c0.454,5.788-0.434,11.392-2.547,16.852c-1.558,4.026-0.234,5.604,4.101,5.408
		c1.734-0.08,3.467-0.224,5.741-0.372c-1.181,5.415-2.523,10.329-3.269,15.332c-0.741,4.984-0.884,10.058-1.257,14.699
		c3.405,0.988,6.203,2.812,8.311,2.211c4.813-1.373,9.315,0.208,13.934,0.227c11.479,0.046,22.953,0.495,34.432,0.722
		c1.862,0.038,3.731-0.223,5.596-0.36c2.347-0.172,4.69-0.44,7.04-0.516c2.906-0.097,5.819-0.024,8.729-0.046
		c1.558-0.009,3.148-0.285,4.665-0.051c6.228,0.952,12.43,2.619,18.747,0.979c1.52-0.393,3.358-1.316,4.128-2.565
		c6.046-9.813,1.405-25.326-9.434-29.824c-5.762-2.395-12.19-3.264-18.385-4.479c-2.205-0.433-3.093-0.908-2.711-3.306
		c1.891-11.877,6.965-21.9,16.494-29.517c8.478-6.773,18.407-10.375,28.518-13.817c7.034-2.394,14.206-4.903,19.023-11.244
		c1-1.318,2.189-2.501,3.355-3.687c4.894-4.961,10.091-9.656,14.654-14.905c6.579-7.566,10.404-16.619,12.578-26.37
		c0.106-0.475-0.112-1.011-0.088-1.514c0.061-1.268-0.116-2.646,0.317-3.782c1.551-4.091,3.534-8.024,4.931-12.16
		c1.182-3.498,2.005-7.762-1.051-10.313c-3.486-2.91-3.253-6.045-2.725-9.659c0.552,0.741,1.107,1.489,1.664,2.237
		c0.563-0.833,0.678-1.566,0.409-1.753c-4.058-2.848-1.854-6.282-0.966-9.591c0.432-1.61,1-3.189,1.331-4.82
		c3.339-16.466,4.917-33.142,5.993-49.882c0.817-12.703,1.53-25.419,2.8-38.075c0.586-5.843,2.663-11.521,3.574-17.349
		c1.153-7.369,2.29-14.796,2.559-22.231c0.362-10.098,3.017-19.609,5.772-29.176c1.421-4.934,3.456-9.994,3.396-14.976
		c-0.092-7.632,1.614-14.858,2.805-22.226c0.413-2.559,0.065-6.069,1.594-7.418c2.084-1.843,1.854-3.716,2.108-5.699
		c0.664-5.176,1.185-10.372,1.712-15.565c1.358-13.377,3.077-26.733,3.917-40.144c0.806-12.829,0.578-25.66,4.523-38.18
		c1.859-5.9,2.209-12.296,3.029-18.496c0.347-2.611,1.564-3.554,4.062-3.466c2.802,0.099,5.608,0.023,8.619,0.023
		c1.077-7.821-0.049-15.078-2.607-22.226c-1.281-3.582-2.331-6.928,0.802-10.678c3.41-4.082,6.008-8.928,8.469-13.695
		c2.559-4.958,4.451-10.254,6.786-15.333c1.646-3.584,3.124-7.366,5.442-10.492c2.646-3.566,5.962-6.706,9.317-9.657
		c3.41-2.999,7.328-5.412,10.825-8.321c3.311-2.755,5.281-6.403,5.855-10.736c0.343-2.583,0.951-5.16,0.987-7.746
		c0.029-1.993-0.298-4.149-1.095-5.957c-1.04-2.357-2.615-4.501-4.109-6.633c-4.565-6.513-12.064-8.298-19.377-4.988
		c-7.381,3.342-11.705,9.675-15.823,16.067c-3.568,5.539-7.067,11.001-12.922,15.03c0.265-2.269,0.488-4.297,0.74-6.324
		c1.163-9.334,2.126-18.679,0.359-28.044c-2.274-12.054-12.146-18.021-23.104-13.851c-3.214,1.222-6.769,2.402-9.201,4.647
		c-5.312,4.9-6.55,11.339-5.063,18.41c0.575,2.733,0.48,5.602,0.887,8.38c0.462,3.15,1.046,6.292,1.766,9.394
		c0.444,1.919,1.58,3.718,1.801,5.64c0.318,2.76,1.104,6.207-0.141,8.243c-2.115,3.465-4.938,6.52-6.636,10.339
		c-1.036,2.328-2.925,4.384-3.507,6.785c-1.944,8.008-3.132,16.009,2.795,23.211c2.085,2.534,1.858,5.262,0.148,8.38
		c-4.494,8.189-7.225,17.022-8.189,26.375c-0.282,2.735,0.522,4.075,3.376,4.755c4.573,1.09,4.764,1.865,3.966,6.558
		c-1.899,11.178-3.986,22.335-5.489,33.568c-2.104,15.707-3.497,31.509-5.662,47.206c-1.644,11.924-3.854,23.779-6.124,35.604
		c-1.35,7.022-3.229,13.948-5.037,20.874c-0.541,2.071-1.641,3.997-2.484,5.988c-0.414-0.04-0.827-0.078-1.241-0.117
		c-1.027-2.569-2.489-5.057-2.989-7.725c-0.961-5.105-1.241-10.334-2.051-15.472c-1.015-6.438-2.318-12.831-3.414-19.257
		c-0.35-2.046-0.423-4.139-0.634-6.208c-0.938-9.303-2.032-18.594-2.769-27.912c-0.481-6.102-0.429-12.245-0.662-18.367
		c-0.031-0.819-0.391-1.62-0.501-2.442c-0.733-5.465-1.507-10.927-2.138-16.404c-0.765-6.611-1.323-13.247-2.116-19.855
		c-0.785-6.541-1.451-12.911,1.003-19.43c1.022-2.715,0.01-6.277-0.381-9.417c-0.316-2.556-1.705-5.1-1.533-7.572
		c0.49-7.008-0.875-13.695-2.521-20.385c-0.629-2.555-1.507-4.913-4.263-6.088c-0.866-0.37-1.653-1.319-2.106-2.196
		c-4.155-8.039-8.018-16.237-12.387-24.156c-4.76-8.624-9.162-17.521-17.35-23.77c-3.398-2.594-6.118-6.079-9.615-9.635
		c6.492-1.822,11.505-4.671,18.01-3.704c6.501,0.965,13.303-0.091,19.973-0.308c0.872-0.028,1.734-0.329,2.602-0.503
		c0.024-0.321,0.049-0.642,0.073-0.963c-1.625-0.373-3.233-0.936-4.877-1.078c-3.421-0.296-6.86-0.375-10.292-0.531
		c-3.49-0.159-7.13-1-10.438-0.295c-5.151,1.098-10.04,3.374-15.125,4.864c-1.25,0.366-3.137,0.071-4.199-0.677
		c-6.296-4.423-12.419-9.09-18.635-13.629c-2.077-1.517-4.253-2.897-6.454-4.388c3.232-5.027,7.703-8.221,12.401-11.159
		c4.763-2.978,9.243-6.691,14.387-8.698c4.834-1.886,10.373-1.964,15.602-2.838c-0.016-0.284-0.032-0.568-0.048-0.852
		c-1.187-0.299-2.356-0.745-3.56-0.874c-5.858-0.629-11.428,0.548-16.702,3.058c-7.36,3.503-13.139,9.123-19.1,14.492
		c-1.65,1.486-3.39,2.873-5.087,4.305c3.636-7.891,10.133-12.962,16.461-18.208c5.791-4.799,11.963-8.67,19.75-9.265
		c1.27-0.097,2.474-1.04,3.707-1.592c-0.128-0.401-0.259-0.803-0.387-1.205c-1.17,0.061-2.345,0.063-3.506,0.194
		c-1.962,0.222-4.027,1.075-5.848,0.695c-6.561-1.367-12.112,0.761-17.395,4.248c-8.535,5.633-16.945,11.421-23.022,19.106
		c-10.458-1.826-19.168-6.61-28.106-11.545c0.716-1.312,1.094-2.449,1.823-3.272c6.006-6.78,11.832-13.744,18.212-20.155
		c4.279-4.3,9.584-7.303,15.918-7.967c1.451-0.152,2.838-0.94,4.254-1.436c-0.049-0.372-0.096-0.745-0.144-1.117
		c-1.77,0-3.597-0.291-5.298,0.05c-8.127,1.626-15.176,5.569-20.55,11.733c-5.804,6.658-10.956,13.895-16.221,21.006
		c-1.322,1.787-2.775,2.111-4.154,0.916c-0.782-0.679-1.067-2.45-0.869-3.609c0.234-1.373,1.234-2.613,1.893-3.917
		c3.798-7.506,7.601-15.011,11.369-22.533c0.192-0.387,0.091-0.922,0.125-1.389c-0.272-0.212-0.545-0.424-0.816-0.637
		c-1.366,1.355-3.212,2.475-4.014,4.107c-3.261,6.663-5.283,13.92-10.271,19.749c-1.33,1.556-1.638,3.987-2.384,5.932
		c-8.751-1.844-17.272-3.639-26.068-5.492c0.606-4.282-0.322-8.369,1.489-12.888c5.525-13.789,12.202-26.827,21.032-38.766
		c0.325-0.439,0.397-1.065,0.619-1.694c-2.333-0.973-3.567,0.154-4.494,1.828c-3.775,6.82-7.511,13.665-11.282,20.487
		c-2.009,3.636-3.682,7.546-6.215,10.779c-2.165,2.763-3.665,5.483-3.864,8.947c-0.215,3.723-0.453,7.445-0.678,11.121
		c-9.385,0-18.579,0-27.982,0c0-1.707-0.016-2.843,0.002-3.979c0.188-11.767,3.131-22.917,8.058-33.502
		c1.943-4.171,2.261-9.466,7.668-11.84c-2.826-1.961-4.563-0.791-5.621,1.286c-2.312,4.539-4.524,9.142-6.486,13.841
		c-4.227,10.119-6.294,20.704-6.444,31.68c-0.012,0.902-0.765,2.496-1.326,2.567c-2.311,0.293-4.68,0.123-7.026,0.123
		c-0.629-3.698-1.212-7.082-1.78-10.468c-2.063-12.298-3.023-24.51,3.535-35.935c2.728-4.751,5.717-9.351,8.525-14.057
		c0.542-0.908,0.796-1.986,1.184-2.985c-0.96,0.393-2.325,0.51-2.813,1.227c-2.518,3.691-4.842,7.517-7.178,11.33
		c-6.116,9.985-9.394,20.6-7.349,32.462c1.106,6.422,2.001,12.881,2.984,19.278c-0.557,0.36-0.876,0.703-1.256,0.792
		c-6.072,1.421-12.142,2.856-18.246,4.125c-0.503,0.104-1.572-0.832-1.833-1.497c-2.79-7.147-7.764-12.799-12.65-18.483
		c-1.165-1.355-2.971-2.159-4.481-3.216c-0.328,0.349-0.656,0.697-0.984,1.045c0.903,1.201,1.651,2.568,2.735,3.573
		c5.241,4.858,9.821,10.154,12.526,16.906c0.808,2.018,0.871,3.196-1.56,3.959c-3.07,0.964-5.991,2.395-9.04,3.445
		c-1.9,0.655-3.916,0.979-5.912,1.459c-2.238-15.078-24.95-36.022-37.077-33.447c1.674,1.015,2.648,1.74,3.729,2.23
		c2.167,0.986,4.728,1.415,6.529,2.834c6.025,4.743,11.746,9.872,17.664,14.756c4.524,3.734,5.114,9.231,7.026,14.183
		c-2.612,0.767-5.037,1.151-7.167,2.158c-11.766,5.566-23.494,11.214-35.146,17.013c-2.085,1.038-3.31,0.804-4.833-0.777
		c-3.542-3.677-7.094-7.365-10.908-10.75c-2.143-1.903-4.727-3.384-7.301-4.681c-0.728-0.367-2.12,0.581-3.208,0.926
		c0.792,0.689,1.521,1.866,2.388,1.977c3.059,0.392,5.041,2.158,6.941,4.343c1.831,2.105,3.807,4.113,5.91,5.945
		c2.009,1.75,4.264,3.217,6.874,5.153c-2.551,1.357-4.429,1.958-5.776,3.156c-2.727,2.426-4.828,2.123-7.677-0.075
		c-3.891-3.001-9.121-4.271-11.518-9.201c-0.235-0.484-0.943-0.881-1.51-1.038c-5.378-1.496-10.697-3.523-16.183-4.223
		c-5.629-0.718-11.429-0.186-17.15-0.021c-0.719,0.021-1.406,1.141-2.108,1.751c0.745,0.443,1.443,1.047,2.249,1.28
		c0.654,0.188,1.462,0.031,2.16-0.142c9.074-2.247,17.528,1.285,26.195,2.806c0.461,0.08,0.843,0.572,1.275,0.853
		c2.618,1.694,5.257,3.354,7.854,5.078c3.334,2.215,6.635,4.48,9.97,6.736c-7.803,6.448-15.137,12.51-22.5,18.594
		c-10.668-7.441-22.61-10.832-35.578-10.627c-1.945,0.031-3.877,0.846-5.816,1.299c0.072,0.43,0.145,0.859,0.216,1.287
		c1.622,0.199,3.269,0.687,4.861,0.547c9.085-0.803,17.561,1.75,25.96,4.614c3.074,1.047,6.44,1.876,8.199,5.101
		c-3.197,4.993-4.169,5.292-8.626,3.201c-6.928-3.25-13.887-6.436-20.872-9.562c-1.208-0.541-2.597-0.758-3.928-0.914
		c-0.621-0.072-1.3,0.357-1.954,0.558c-1.011,0.312-2.045,0.949-3.03,0.881c-5.492-0.383-10.965-1.16-16.459-1.332
		c-2.557-0.081-5.205,0.819-6.3,4.277c1.229-0.099,2.034,0.042,2.631-0.245c4.168-2.003,8.463-1.872,12.863-1.055
		c5.317,0.987,10.63,2.067,15.994,2.708c3.66,0.437,6.873,1.368,9.596,3.97c1.01,0.964,2.957,2.382,3.631,2.02
		c3.094-1.663,4.386,0.811,6.201,2.132c2.218,1.616,2.492,3.064,0.707,5.629c-5.199,7.468-11.567,14.259-14.356,23.22
		c-0.687,2.207-2.189,2.476-4.322,2.545c-4.451,0.146-8.934,0.508-13.304,1.322c-1.86,0.347-3.467,2.051-5.189,3.139
		c0.161,0.293,0.322,0.585,0.482,0.879C75.53,210.896,81.906,209.917,89.094,208.814z M125.486,74.972
		c-0.153,0.362-0.306,0.726-0.458,1.088c0.377,0.175,0.74,0.408,1.136,0.515c10.703,2.914,20.021,8.649,29.243,14.515
		c3.026,1.925,6.117,4.072,8.394,6.777c3.378,4.014,5.862,8.769,9.1,12.917c2.563,3.281,5.791,6.039,5.067,10.849
		c-0.088,0.589,0.916,1.342,1.413,2.02c0.521-0.693,1.552-1.453,1.472-2.068c-0.327-2.504-0.332-5.408-1.645-7.37
		c-7.636-11.409-16.066-22.169-27.707-29.903c-0.513-0.341-1.168-0.999-1.581-0.882c-3.377,0.951-5.3-1.796-7.839-2.938
		c-3.493-1.57-6.906-3.353-10.491-4.671C129.706,75.128,127.531,75.23,125.486,74.972z"/>
	<path fill-rule="evenodd" clip-rule="evenodd" d="M89.094,208.814c-7.188,1.104-13.564,2.083-19.941,3.06
		c-0.16-0.293-0.321-0.586-0.482-0.879c1.722-1.087,3.329-2.792,5.189-3.139c4.37-0.814,8.853-1.176,13.304-1.322
		c2.133-0.069,3.636-0.338,4.322-2.545c2.79-8.96,9.158-15.752,14.356-23.22c1.785-2.564,1.512-4.013-0.707-5.629
		c-1.815-1.322-3.107-3.795-6.201-2.132c-0.674,0.362-2.621-1.055-3.631-2.02c-2.723-2.602-5.937-3.533-9.596-3.97
		c-5.363-0.641-10.677-1.721-15.994-2.708c-4.4-0.817-8.695-0.948-12.863,1.055c-0.598,0.288-1.402,0.146-2.631,0.245
		c1.096-3.458,3.743-4.357,6.3-4.277c5.494,0.172,10.967,0.949,16.459,1.332c0.985,0.068,2.019-0.569,3.03-0.881
		c0.654-0.201,1.333-0.63,1.954-0.558c1.331,0.156,2.719,0.374,3.928,0.914c6.984,3.126,13.943,6.312,20.872,9.562
		c4.457,2.091,5.429,1.792,8.626-3.201c-1.759-3.225-5.125-4.054-8.199-5.101c-8.399-2.863-16.875-5.417-25.96-4.614
		c-1.592,0.14-3.239-0.348-4.861-0.547c-0.072-0.428-0.144-0.857-0.216-1.287c1.939-0.453,3.871-1.268,5.816-1.299
		c12.968-0.205,24.91,3.186,35.578,10.627c7.362-6.084,14.697-12.146,22.5-18.594c-3.335-2.256-6.636-4.521-9.97-6.736
		c-2.597-1.724-5.236-3.384-7.854-5.078c-0.432-0.28-0.814-0.772-1.275-0.853c-8.667-1.521-17.121-5.052-26.195-2.806
		c-0.698,0.173-1.506,0.331-2.16,0.142c-0.806-0.233-1.504-0.837-2.249-1.28c0.702-0.61,1.389-1.731,2.108-1.751
		c5.721-0.166,11.521-0.697,17.15,0.021c5.486,0.7,10.805,2.727,16.183,4.223c0.566,0.157,1.275,0.554,1.51,1.038
		c2.396,4.93,7.627,6.2,11.518,9.201c2.85,2.197,4.951,2.5,7.677,0.075c1.347-1.199,3.225-1.799,5.776-3.156
		c-2.61-1.936-4.865-3.403-6.874-5.153c-2.104-1.832-4.079-3.839-5.91-5.945c-1.901-2.185-3.883-3.951-6.941-4.343
		c-0.866-0.111-1.596-1.288-2.388-1.977c1.088-0.345,2.479-1.293,3.208-0.926c2.574,1.297,5.158,2.778,7.301,4.681
		c3.814,3.386,7.366,7.073,10.908,10.75c1.523,1.582,2.748,1.815,4.833,0.777c11.652-5.799,23.38-11.447,35.146-17.013
		c2.129-1.007,4.554-1.391,7.167-2.158c-1.913-4.952-2.502-10.448-7.026-14.183c-5.918-4.884-11.638-10.013-17.664-14.756
		c-1.801-1.419-4.362-1.848-6.529-2.834c-1.08-0.491-2.054-1.215-3.729-2.23c12.126-2.575,34.839,18.369,37.077,33.447
		c1.997-0.48,4.012-0.804,5.912-1.459c3.048-1.05,5.969-2.481,9.04-3.445c2.431-0.764,2.368-1.942,1.56-3.959
		c-2.706-6.752-7.285-12.048-12.526-16.906c-1.083-1.005-1.832-2.372-2.735-3.573c0.328-0.349,0.656-0.697,0.984-1.045
		c1.511,1.057,3.317,1.861,4.481,3.216c4.886,5.684,9.86,11.335,12.65,18.483c0.261,0.665,1.33,1.602,1.833,1.497
		c6.104-1.27,12.174-2.704,18.246-4.125c0.379-0.089,0.699-0.432,1.256-0.792c-0.983-6.397-1.877-12.856-2.984-19.278
		c-2.045-11.862,1.233-22.477,7.349-32.462c2.336-3.813,4.66-7.639,7.178-11.33c0.489-0.716,1.853-0.833,2.813-1.227
		c-0.387,1-0.642,2.078-1.184,2.985c-2.808,4.706-5.798,9.306-8.525,14.057c-6.558,11.424-5.599,23.637-3.535,35.935
		c0.568,3.386,1.151,6.77,1.78,10.468c2.347,0,4.716,0.17,7.026-0.123c0.561-0.071,1.314-1.665,1.326-2.567
		c0.15-10.976,2.217-21.561,6.444-31.68c1.962-4.699,4.174-9.302,6.486-13.841c1.058-2.077,2.794-3.247,5.621-1.286
		c-5.407,2.374-5.725,7.668-7.668,11.84c-4.927,10.585-7.87,21.735-8.058,33.502c-0.018,1.136-0.002,2.272-0.002,3.979
		c9.404,0,18.597,0,27.982,0c0.225-3.676,0.463-7.398,0.678-11.121c0.199-3.464,1.699-6.185,3.864-8.947
		c2.533-3.232,4.206-7.143,6.215-10.779c3.771-6.823,7.507-13.667,11.282-20.487c0.927-1.673,2.161-2.8,4.494-1.828
		c-0.222,0.629-0.294,1.254-0.619,1.694c-8.83,11.939-15.507,24.977-21.032,38.766c-1.811,4.52-0.883,8.606-1.489,12.888
		c8.796,1.853,17.317,3.648,26.068,5.492c0.746-1.945,1.054-4.376,2.384-5.932c4.987-5.829,7.01-13.086,10.271-19.749
		c0.802-1.632,2.647-2.751,4.014-4.107c0.271,0.213,0.544,0.425,0.816,0.637c-0.034,0.467,0.067,1.002-0.125,1.389
		c-3.769,7.521-7.571,15.026-11.369,22.533c-0.658,1.303-1.658,2.543-1.893,3.917c-0.198,1.159,0.087,2.93,0.869,3.609
		c1.379,1.196,2.832,0.871,4.154-0.916c5.265-7.111,10.417-14.348,16.221-21.006c5.374-6.165,12.423-10.107,20.55-11.733
		c1.701-0.34,3.528-0.05,5.298-0.05c0.048,0.373,0.095,0.745,0.144,1.117c-1.416,0.496-2.803,1.284-4.254,1.436
		c-6.334,0.664-11.639,3.667-15.918,7.967c-6.38,6.411-12.206,13.375-18.212,20.155c-0.729,0.824-1.107,1.96-1.823,3.272
		c8.938,4.935,17.648,9.719,28.106,11.545c6.077-7.685,14.487-13.473,23.022-19.106c5.282-3.487,10.834-5.614,17.395-4.248
		c1.82,0.38,3.886-0.473,5.848-0.695c1.161-0.131,2.336-0.133,3.506-0.194c0.128,0.402,0.259,0.804,0.387,1.205
		c-1.233,0.552-2.438,1.495-3.707,1.592c-7.787,0.595-13.959,4.465-19.75,9.265c-6.328,5.245-12.825,10.316-16.461,18.208
		c1.697-1.433,3.437-2.819,5.087-4.305c5.961-5.369,11.739-10.989,19.1-14.492c5.274-2.51,10.844-3.687,16.702-3.058
		c1.203,0.129,2.373,0.575,3.56,0.874c0.016,0.284,0.032,0.568,0.048,0.852c-5.229,0.874-10.768,0.952-15.602,2.838
		c-5.144,2.007-9.624,5.72-14.387,8.698c-4.698,2.938-9.169,6.131-12.401,11.159c2.201,1.491,4.377,2.872,6.454,4.388
		c6.216,4.539,12.339,9.206,18.635,13.629c1.063,0.748,2.949,1.043,4.199,0.677c5.085-1.491,9.974-3.767,15.125-4.864
		c3.308-0.705,6.947,0.136,10.438,0.295c3.432,0.157,6.871,0.235,10.292,0.531c1.644,0.143,3.252,0.706,4.877,1.078
		c-0.024,0.321-0.049,0.642-0.073,0.963c-0.867,0.175-1.729,0.476-2.602,0.503c-6.67,0.216-13.472,1.273-19.973,0.308
		c-6.505-0.967-11.518,1.882-18.01,3.704c3.497,3.556,6.217,7.041,9.615,9.635c8.188,6.249,12.59,15.146,17.35,23.77
		c4.369,7.919,8.231,16.117,12.387,24.156c0.453,0.876,1.24,1.826,2.106,2.196c2.756,1.175,3.634,3.533,4.263,6.088
		c1.646,6.69,3.012,13.377,2.521,20.385c-0.172,2.473,1.217,5.017,1.533,7.572c0.391,3.14,1.403,6.702,0.381,9.417
		c-2.454,6.52-1.788,12.89-1.003,19.43c0.793,6.608,1.352,13.244,2.116,19.855c0.631,5.477,1.404,10.939,2.138,16.404
		c0.11,0.823,0.47,1.624,0.501,2.442c0.233,6.123,0.181,12.266,0.662,18.367c0.736,9.318,1.831,18.609,2.769,27.912
		c0.211,2.07,0.284,4.163,0.634,6.208c1.096,6.426,2.399,12.818,3.414,19.257c0.81,5.137,1.09,10.366,2.051,15.472
		c0.5,2.668,1.962,5.156,2.989,7.725c0.414,0.039,0.827,0.078,1.241,0.117c0.844-1.991,1.943-3.917,2.484-5.988
		c1.808-6.926,3.688-13.852,5.037-20.874c2.271-11.825,4.48-23.68,6.124-35.604c2.165-15.697,3.559-31.499,5.662-47.206
		c1.503-11.233,3.59-22.39,5.489-33.568c0.798-4.693,0.607-5.468-3.966-6.558c-2.854-0.68-3.658-2.021-3.376-4.755
		c0.965-9.353,3.695-18.186,8.189-26.375c1.71-3.118,1.937-5.846-0.148-8.38c-5.927-7.202-4.739-15.203-2.795-23.211
		c0.582-2.401,2.471-4.457,3.507-6.785c1.698-3.819,4.521-6.874,6.636-10.339c1.244-2.036,0.459-5.482,0.141-8.243
		c-0.221-1.922-1.356-3.721-1.801-5.64c-0.72-3.101-1.304-6.243-1.766-9.394c-0.406-2.778-0.312-5.646-0.887-8.38
		c-1.486-7.071-0.248-13.51,5.063-18.41c2.433-2.245,5.987-3.425,9.201-4.647c10.957-4.17,20.829,1.797,23.104,13.851
		c1.767,9.365,0.804,18.709-0.359,28.044c-0.252,2.026-0.476,4.055-0.74,6.324c5.854-4.028,9.354-9.491,12.922-15.03
		c4.118-6.392,8.442-12.725,15.823-16.067c7.313-3.31,14.812-1.525,19.377,4.988c1.494,2.132,3.069,4.276,4.109,6.633
		c0.797,1.807,1.124,3.963,1.095,5.957c-0.036,2.586-0.645,5.163-0.987,7.746c-0.574,4.333-2.545,7.98-5.855,10.736
		c-3.497,2.909-7.415,5.323-10.825,8.321c-3.355,2.952-6.671,6.091-9.317,9.657c-2.318,3.125-3.796,6.907-5.442,10.492
		c-2.335,5.079-4.228,10.375-6.786,15.333c-2.461,4.767-5.059,9.613-8.469,13.695c-3.133,3.75-2.083,7.096-0.802,10.678
		c2.559,7.147,3.685,14.405,2.607,22.226c-3.011,0-5.817,0.076-8.619-0.023c-2.497-0.087-3.715,0.855-4.062,3.466
		c-0.82,6.2-1.17,12.596-3.029,18.496c-3.945,12.521-3.718,25.352-4.523,38.18c-0.84,13.41-2.559,26.766-3.917,40.144
		c-0.527,5.193-1.048,10.389-1.712,15.565c-0.254,1.983-0.024,3.856-2.108,5.699c-1.528,1.35-1.181,4.86-1.594,7.418
		c-1.19,7.368-2.896,14.594-2.805,22.226c0.061,4.981-1.975,10.042-3.396,14.976c-2.756,9.566-5.41,19.078-5.772,29.176
		c-0.269,7.436-1.405,14.862-2.559,22.231c-0.911,5.828-2.988,11.506-3.574,17.349c-1.27,12.656-1.982,25.372-2.8,38.075
		c-1.076,16.74-2.654,33.416-5.993,49.882c-0.331,1.631-0.899,3.21-1.331,4.82c-0.888,3.309-3.092,6.743,0.966,9.591
		c0.269,0.187,0.153,0.92-0.409,1.753c-0.557-0.748-1.112-1.496-1.664-2.237c-0.528,3.614-0.762,6.749,2.725,9.659
		c3.056,2.551,2.232,6.814,1.051,10.313c-1.396,4.136-3.38,8.069-4.931,12.16c-0.434,1.137-0.257,2.515-0.317,3.782
		c-0.024,0.503,0.194,1.039,0.088,1.514c-2.174,9.751-5.999,18.804-12.578,26.37c-4.563,5.249-9.761,9.944-14.654,14.905
		c-1.166,1.186-2.355,2.368-3.355,3.687c-4.817,6.341-11.989,8.851-19.023,11.244c-10.11,3.442-20.04,7.044-28.518,13.817
		c-9.529,7.616-14.604,17.64-16.494,29.517c-0.382,2.397,0.506,2.873,2.711,3.306c6.194,1.215,12.623,2.084,18.385,4.479
		c10.839,4.498,15.479,20.011,9.434,29.824c-0.77,1.249-2.608,2.173-4.128,2.565c-6.317,1.641-12.52-0.026-18.747-0.979
		c-1.517-0.234-3.107,0.042-4.665,0.051c-2.909,0.021-5.822-0.051-8.729,0.046c-2.35,0.075-4.693,0.344-7.04,0.516
		c-1.864,0.138-3.733,0.398-5.596,0.36c-11.479-0.227-22.953-0.676-34.432-0.722c-4.618-0.019-9.12-1.6-13.934-0.227
		c-2.107,0.601-4.905-1.223-8.311-2.211c0.373-4.642,0.516-9.715,1.257-14.699c0.745-5.003,2.088-9.917,3.269-15.332
		c-2.274,0.148-4.007,0.292-5.741,0.372c-4.335,0.196-5.658-1.382-4.101-5.408c2.113-5.46,3.001-11.063,2.547-16.852
		c-0.193-2.467-0.627-4.982-1.419-7.317c-1.11-3.269-3.269-5.286-7.16-5.243c-5.988,0.064-11.865,0.299-17.4,2.985
		c-5.058,2.454-7.176,6.517-6.664,11.939c0.332,3.514,1.073,6.992,1.586,10.493c0.877,5.977,0.216,7.282-5.071,10.001
		c1.042,4.366,2.306,8.74,3.085,13.201c0.68,3.887,0.985,7.862,1.142,11.809c0.186,4.679-3.816,7.604-8.527,6.769
		c-2.179-0.386-4.488-0.448-6.691-0.214c-6.944,0.737-14.04,1.011-20.748,2.739c-6.54,1.686-12.934,1.71-19.481,1.368
		c-0.52-0.026-1.091-0.115-1.558,0.053c-5.367,1.932-10.971,2.14-16.571,2.277c-7.379,0.183-14.794,0.734-22.13,0.219
		c-5.479-0.387-6.184-1.997-5.856-6.482c0.372-5.088,0.273-10.224,0.844-15.285c0.632-5.613,3.676-9.672,9.254-11.396
		c4.75-1.468,9.549-2.775,14.081-4.083c-0.956-11.712-1.684-23.134-2.902-34.504c-0.589-5.494-2.801-10.324-8.102-13.334
		c-2.574-1.462-4.466-4.081-6.956-5.743c-2.976-1.988-6.25-3.533-9.419-5.225c-0.992-0.527-2.152-0.771-3.09-1.37
		c-8.07-5.146-16.191-10.222-24.106-15.601c-2.755-1.87-4.972-4.534-7.436-6.834c-1.065-0.996-2.146-1.975-3.194-2.985
		c-1.042-1.005-2.7-1.9-2.962-3.093c-0.967-4.406-4.915-5.682-7.824-8.004c-0.652-0.52-2.086-0.465-3.006-0.179
		c-6.541,2.032-12.955,4.536-19.583,6.197c-4.83,1.211-9.732,0.498-14.066-2.516c-2.396-1.664-4.009-3.691-4.954-6.527
		c-1.231-3.694-2.774-7.311-4.505-10.8c-3.133-6.316-1.802-13.572,3.748-17.951c2.26-1.786,4.807-3.207,7.599-5.039
		c-1.897-1.948-3.657-3.828-5.495-5.625c-3.275-3.204-3.343-3.594-0.84-7.337c2.255-3.37,1.996-3.899-1.449-5.927
		c-10.395-6.114-21.213-11.679-30.887-18.79c-6.66-4.896-13.706-10.832-13.146-20.752c0.148-2.628,0.862-5.369,1.943-7.776
		c4.854-10.802,12.03-20.116,20.664-27.99c8.428-7.686,17.889-14.23,26.783-21.414c2.174-1.757,3.705-4.312,5.89-6.05
		c4.561-3.626,9.321-7.008,14.087-10.365c1.398-0.986,1.811-1.93,1.482-3.632c-1.84-9.545-0.197-18.865,2.23-28.071
		c0.296-1.124,1.684-2.444,2.816-2.751c1.813-0.493,2.375-1.341,2.326-3.041c-0.361-12.507-0.664-25.014-1.055-37.518
		c-0.183-5.842-0.607-11.677-0.771-17.519c-0.186-6.668-0.606-13.19-2.424-19.758c-1.846-6.668-2.081-13.77-3.225-20.648
		c-0.51-3.067-1.645-6.027-2.264-9.082c-0.659-3.251-1.342-6.547-1.467-9.844c-0.145-3.819-1.425-6.684-4.974-8.24
		c-5.653-2.48-9.788-7.298-11.698-12.341c-2.195-5.791-6.25-11.302-5.426-18.237c0.344-2.897-0.364-6.08-1.25-8.928
		c-1.937-6.216-0.423-11.843,2.754-16.998c1.991-3.23,2.531-6.415,2.391-10.03c-0.612-15.872,2.473-31.086,8.372-45.778
		C87.27,213.757,87.958,211.827,89.094,208.814z M424.827,493.317c6.142-7.293,12.354-14.531,18.38-21.921
		c1.627-1.992,2.851-4.37,3.978-6.707c7.25-15.036,9.956-31.248,12.103-47.589c0.112-0.858-0.199-1.772-0.321-2.746
		c-0.699,0.213-0.989,0.212-1.07,0.342c-0.438,0.697-0.814,1.433-1.23,2.143c-4.264,7.285-8.53,14.568-12.799,21.851
		c-0.105,0.179-0.224,0.357-0.366,0.505c-3.266,3.373-6.563,6.717-9.787,10.127c-0.848,0.896-1.44,2.026-2.216,2.996
		c-2.827,3.535-5.362,7.088-9.169,10.015c-6.705,5.156-12.414,11.62-18.417,17.658c-0.736,0.74-1.123,2.288-0.972,3.363
		c0.613,4.332,1.396,8.647,2.322,12.925c0.76,3.496,1.814,6.929,2.753,10.451c8.143-3.563,14.28-7.127,16.916-13.514
		L424.827,493.317z M302.377,748.587c0.615,0.053,1.635,0.217,2.652,0.211c22.553-0.115,45.104-0.271,67.655-0.348
		c1.888-0.005,2.638-0.704,2.762-2.48c0.786-11.253,7.079-20.098,12.835-29.171c0.325-0.514,0.829-0.961,1.341-1.302
		c4.742-3.153,9.212-6.909,14.325-9.266c8.207-3.782,16.893-6.511,25.273-9.938c3.313-1.354,6.777-2.895,9.422-5.21
		c5.214-4.557,9.997-9.624,14.79-14.643c8.092-8.476,14.796-17.687,16.464-29.83c0.658-4.791,1.76-9.73,3.808-14.059
		c1.735-3.672,2.335-7.182,2.474-11.063c0.079-2.179-0.725-3.442-2.595-4.02c-2.28-0.7-2.753-2.263-2.542-4.338
		c0.241-2.377,0.636-4.757,0.638-7.138c0.003-2.311-0.659-3.913-3.694-4.283c-5.047-0.614-10.026-1.899-14.986-3.097
		c-4.583-1.107-9.104-2.474-14.308-3.907c5.058,18.129,12.671,34.194,23.025,49.268c-1.89-0.617-4.125-1.281-4.984-2.749
		c-4.197-7.153-8.311-14.388-11.897-21.86c-3.04-6.333-5.322-13.029-7.939-19.564c0.347,6.577,3.274,13.003,0.966,20.278
		c-4.128-3.843-1.979-8.755-3.742-13.509c-1.073,7.342-2.006,13.904-3.011,20.455c-0.19,1.231-0.666,2.422-1.01,3.631
		c-0.568-0.123-1.137-0.247-1.705-0.372c1.201-9.767,2.401-19.534,3.602-29.305c-0.262-0.157-0.523-0.313-0.785-0.473
		c-6.811,9.443-13.619,18.887-20.429,28.33c-0.282-0.107-0.563-0.216-0.844-0.323c0.526-1.789,0.609-3.907,1.655-5.31
		c6.028-8.096,12.055-16.217,18.562-23.923c3.288-3.896,5.891-7.343,2.905-12.442c-0.193-0.328-0.127-0.813-0.183-1.224
		c-0.953-7.001-1.863-14.009-2.868-21.001c-1.378-9.579-3.126-19.115-4.171-28.73c-1.223-11.255-1.857-22.573-2.768-33.864
		c-0.01-0.132-0.296-0.245-0.522-0.423c-5.282,2.889-9.651,7.544-16.174,9.001c-0.835-2.262-1.921-4.236-2.273-6.333
		c-1.146-6.806-3.734-13.279-4.045-20.324c-0.131-2.999,0.354-4.832,2.47-6.757c3.159-2.875,6.07-6.027,9.066-9.079
		c1.162-1.186,2.269-2.424,3.496-3.737c-3.741,1.217-7.092,2.644-10.587,3.368c-5.806,1.205-11.771,1.667-17.551,2.964
		c-11.498,2.581-22.874,5.514-34.841,5.219c-9.152-0.228-18.268,0.781-27.407,1.6c-9.384,0.841-18.955-0.31-28.438-0.748
		c-7.067-0.327-14.121-0.918-21.183-1.371c-4.555-0.289-9.121-0.452-13.667-0.843c-2.585-0.224-5.127-0.982-7.712-1.168
		c-9.885-0.709-19.781-1.246-29.667-1.933c-2.066-0.144-4.122-0.579-6.155-1.008c-4.036-0.85-8.024-2.348-12.086-2.567
		c-7.268-0.395-14.587,0.074-21.598-2.698c-0.224,8.656-1.469,6.88,5.747,9.546c6.33,2.34,12.992,3.782,19.309,6.153
		c7.24,2.719,8.626,5.793,6.866,13.364c-1.483,6.378-3.046,12.742-4.71,19.077c-0.368,1.4-1.309,2.65-1.561,3.141
		c-9.571-4.261-18.64-8.299-28.16-12.539c0,6.486-0.03,12.083,0.006,17.678c0.069,10.513-0.201,21.046,0.369,31.532
		c0.629,11.552,2.204,23.049,3.053,34.594c0.44,5.974-2.802,8.553-8.867,8.377c-15.539-0.449-31.083-0.829-46.627-0.975
		c-4.274-0.04-8.796-0.308-12.521,2.768c-0.66,0.546-1.75,0.705-2.664,0.786c-3.918,0.354-7.846,0.61-11.864,0.911
		c-0.103,0.308-0.296,0.689-0.354,1.088c-2.169,14.83-0.036,28.981,7.435,42.026c3.181,5.553,6.661,11.064,12.351,14.685
		c1.612,1.025,3.455,2.607,3.96,4.302c2.338,7.83,9.867,10.569,15.215,15.012c7.528,6.252,16.445,11,25.209,15.54
		c6.736,3.488,12.52,8.115,18.305,12.771c2.476,1.993,4.645,4.946,5.753,7.913c1.429,3.828,1.867,8.081,2.351,12.194
		c0.912,7.756,1.567,15.54,2.297,23.317c0.242,2.581,1.548,3.429,4.14,3.365c20.129-0.507,40.26-0.887,60.39-1.334
		c0.919-0.021,1.85-0.263,2.748-0.505c3.504-0.942,5.081-3.488,4.462-7.163c-0.329-1.947-0.777-3.879-1.029-5.836
		c-0.863-6.69-1.249-13.275,5.542-17.536c6.966-4.372,14.554-5.836,22.736-5.195c5.49,0.427,7.837,3.768,8.963,8.461
		c0.531,2.208,0.914,4.548,0.797,6.8C303.519,735.799,302.899,742.083,302.377,748.587z M110.687,452.763
		c12.66,1.264,24.897,2.535,36.611,6.144c10.223,3.151,20.092,7.448,30.142,11.175c1.098,0.407,2.354,0.387,3.537,0.564
		c-0.015-1.178,0.196-2.409-0.082-3.521c-1.137-4.547,0-5.736,4.674-4.653c3.955,0.918,7.858,2.313,11.862,2.716
		c14.911,1.495,29.866,2.565,44.783,4.006c7.974,0.77,15.885,2.227,23.865,2.914c12.157,1.047,24.34,1.974,36.531,2.415
		c8.315,0.301,16.667-0.246,24.998-0.544c4.785-0.171,9.56-0.632,14.342-0.905c7.491-0.429,15.032-0.416,22.466-1.309
		c9.713-1.165,19.357-2.938,29.002-4.618c9.226-1.61,18.643-2.791,26.001-9.569c0.563-0.519,1.584-0.505,2.324-0.872
		c1.431-0.712,3.085-1.247,4.173-2.33c11.033-10.972,19.806-23.696,27.806-36.938c1.366-2.26,1.52-5.595,1.326-8.369
		c-0.266-3.813-1.606-7.537-2.115-11.348c-1.28-9.588-2.335-19.206-3.511-28.808c-1.226-10.024-2.744-20.02-3.673-30.071
		c-1.303-14.115-2.028-28.282-3.291-42.401c-0.817-9.13-2.606-18.189-3.09-27.327c-0.297-5.654-2.219-9.756-6.566-13.08
		c-2.475-1.893-5.288-3.656-7.033-6.126c-3.488-4.938-8.324-6.645-13.869-7.079c-1.305-0.103-2.682,0.718-3.843,1.06
		c-1.669-0.091-3.281-0.469-4.772-0.192c-2.028,0.379-4.03,1.113-5.909,1.985c-0.942,0.436-1.788,1.396-2.326,2.322
		c-1.708,2.943-3.05,6.112-4.9,8.955c-3.854,5.917-7.849,11.749-11.961,17.49c-4.035,5.635-7.969,11.342-15.03,13.887
		c-2.958,1.065-5.476,3.296-8.302,4.792c-2.915,1.542-5.908,2.975-8.977,4.174c-1.487,0.581-3.238,0.451-4.849,0.766
		c-3.743,0.734-7.447,2.044-11.21,2.229c-12.965,0.637-25.414-2.975-37.992-5.329c-3.472-0.65-6.705-2.593-10.037-3.97
		c-2.573-1.064-5.377-1.804-7.634-3.341c-3.601-2.453-6.825-5.459-10.229-8.206c-0.657-0.53-1.408-0.944-2.308-1.539
		c-2.788,7.351-6.604,13.507-11.896,18.666c-10.716,10.444-23.862,17.037-37.293,23.072c-8.657,3.89-17.754,6.13-27.371,5.033
		c-23.826-2.714-42.671-14.588-58.661-31.817c-1.157-1.247-3.641-2.546-4.95-2.118c-3.393,1.11-6.642,2.921-9.631,4.924
		c-3.086,2.067-5.576,5.055-8.726,6.993c-5.748,3.537-7.708,8.494-6.719,14.881c1.363,8.815,2.737,17.63,4.239,26.422
		c0.993,5.819,2.31,11.583,3.314,17.401c0.915,5.305,1.547,10.659,2.41,15.973c0.483,2.978,1.521,5.897,1.725,8.882
		c0.984,14.455,1.919,28.916,2.564,43.387C110.969,437.301,110.687,445.02,110.687,452.763z M393.969,241.833
		c4.28,0.476,5.139-2.786,6.057-5.545c2.302-6.918,1.719-14.02,0.577-21.053c-0.166-1.024-1.649-1.803-2.433-2.768
		c-0.676-0.831-1.938-2.045-1.716-2.611c2.335-5.992,1.107-11.913,0.113-17.895c-0.459-2.759-0.769-5.382-4.078-6.236
		c-0.521-0.134-1.214-0.732-1.307-1.217c-1.021-5.34-4.976-8.835-8.059-12.84c-4.972-6.458-9.333-13.353-17.63-16.631
		c-5.509-2.178-10.366-5.997-16.382-7.173c-0.692-0.136-1.354-0.495-1.998-0.813c-2.18-1.075-4.255-2.854-6.531-3.156
		c-9.589-1.27-19.051-4.681-28.944-2.094c-1.269,0.333-2.702,0.046-4.059,0.033c-1.929-0.018-4.014-0.535-5.761,0.019
		c-5.353,1.699-10.709,3.511-15.82,5.819c-10.513,4.748-19.494,11.795-26.371,20.956c-4.64,6.181-7.959,13.359-11.825,20.118
		c-1.362,2.382-2.827,2.722-4.173,0.578c-4.426-7.051-10.934-11.685-18.09-15.409c-5.921-3.082-11.898-6.472-18.265-8.191
		c-11.672-3.151-23.756-3.619-35.68-1.212c-9.783,1.975-19.606,4.113-27.829,10.457c-9.869,7.615-19.63,15.385-24.278,27.483
		c-2.486,6.47-4.277,13.215-6.203,19.889c-0.858,2.969-1.209,6.082-1.954,9.089c-0.147,0.596-0.961,1.259-1.604,1.463
		c-4.145,1.317-5.575,7.136-2.167,10.618c-2.12,1.534-4.296,2.916-6.247,4.563c-3.292,2.784-6.597,5.583-9.609,8.657
		c-3.53,3.604-6.643,7.615-10.137,11.258c-5.461,5.694-7.599,12.263-6.11,20.057c0.722,3.781,1.143,7.618,1.771,11.418
		c0.182,1.103,0.564,2.179,0.933,3.241c0.808,2.327,2.074,4.578,2.427,6.966c1.057,7.164,6.435,11.013,11.208,15.36
		c0.415,0.378,1.143,0.416,2.104,0.74c-0.397-2.617-1.11-4.974-1.027-7.301c0.126-3.464-0.366-7.826,1.476-10.194
		c6.472-8.321,14.038-15.736,24.249-19.541c2.57-0.958,5.129-2.846,7.866,1.021c2.189,3.094,6.529,4.581,9.158,7.47
		c3.329,3.658,6.989,6.743,11.089,9.402c4.833,3.136,9.655,6.29,14.512,9.387c0.594,0.379,1.37,0.489,2.075,0.674
		c10.883,2.853,21.872,4.193,33.098,2.401c1.537-0.245,3.186-0.517,4.671-0.22c3.817,0.763,7.306-0.096,10.583-1.833
		c8.462-4.483,17.05-8.778,25.211-13.763c7.4-4.52,14.208-9.943,17.832-18.302c0.201-0.46,0.715-0.783,0.924-1.242
		c1.296-2.852,2.549-5.722,3.808-8.59c0.343-0.783,0.658-1.579,0.985-2.369c0.902,0.556,1.961,0.96,2.664,1.703
		c0.9,0.951,1.314,2.404,2.282,3.245c7.306,6.344,15.223,11.539,24.866,13.801c17.773,4.169,35.466,9.001,53.764,2.719
		c3.647-1.254,8.011-0.845,10.492-4.732c0.217-0.341,0.943-0.364,1.439-0.519c6.714-2.086,12.026-6.186,16.199-11.711
		c4.577-6.06,8.592-12.574,13.474-18.366C389.817,253.898,392.727,248.517,393.969,241.833z M489.949,264.616
		c-0.774,4.769-1.162,9.132-2.226,13.323c-2.391,9.416-4.643,18.832-4.429,28.626c0.286,13.101-2.417,25.851-4.386,38.689
		c-0.733,4.785-1.436,9.574-2.136,14.364c-0.731,5.012-0.857,10.202-2.28,15.008c-3.227,10.893-6.69,21.679-7.361,33.135
		c-0.074,1.277-1.046,2.508-1.628,3.749c-1.066,2.274-2.644,4.438-3.146,6.829c-2.215,10.569-3.85,21.268-6.269,31.785
		c-1.059,4.603-3.527,8.877-5.294,13.324c-1.033,2.601-1.364,5.712-3.018,7.794c-5.239,6.594-10.663,13.1-16.569,19.091
		c-5.039,5.108-6.07,10.723-4.973,17.444c1.064,6.521,2.275,13.156,2.102,19.707c-0.232,8.748,0.987,17.276,2.665,25.69
		c0.913,4.572,2.409,8.924,2.646,13.743c0.292,5.944,1.697,11.851,2.84,17.73c0.734,3.782,2.156,7.259,6.455,8.425
		c0.702,0.188,1.369,0.516,2.075,0.682c3.406,0.8,6.818,1.58,10.232,2.342c5.73,1.278,11.465,2.537,17.526,3.877
		c1.109-4.604,2.402-8.386,2.884-12.269c1.346-10.856,2.385-21.753,3.485-32.64c0.639-6.321,1.384-12.646,1.691-18.988
		c0.665-13.642,0.846-27.344,4.184-40.677c1.652-6.604,2.501-13.229,3.182-19.986c0.917-9.096,2.646-18.131,4.407-27.117
		c1.438-7.348,3.727-14.531,5.096-21.887c1.236-6.646,1.475-13.473,2.619-20.141c1.851-10.777,4.379-21.442,6.075-32.24
		c1.729-11.003,3.12-22.083,4.048-33.179c0.686-8.2-0.312-16.57,0.702-24.706c1.374-11.027,4.005-21.893,5.987-32.848
		c0.677-3.74,1.02-7.541,1.499-11.182C508.899,269.57,499.562,267.129,489.949,264.616z M120.143,592.93
		c0.973-0.087,2.623-0.299,4.279-0.364c7.892-0.316,15.783-0.715,23.679-0.834c4.659-0.069,9.33,0.261,13.988,0.533
		c5.173,0.301,10.333,0.861,15.508,1.062c2.645,0.103,4.03-1.694,4.004-4.235c-0.06-5.825,0.002-11.677-0.529-17.468
		c-0.559-6.1-2.34-12.123-2.536-18.212c-0.339-10.526,0.158-21.077,0.258-31.619c0.046-4.802-0.035-9.606-0.023-14.409
		c0.006-2.448-0.944-4.024-3.448-4.748c-9.004-2.602-17.848-5.933-26.993-7.83c-12.328-2.556-24.966-3.507-37.086-7.321
		c-2.398-0.756-5.745-0.691-7.898,0.437c-4.087,2.143-7.792,5.13-11.354,8.127c-4.744,3.992-9.059,8.496-13.806,12.482
		c-11.777,9.892-24.73,18.462-34.349,30.749c-6.643,8.487-13.319,16.773-9.378,29.01c1.052,3.269,2.266,6.014,4.625,8.062
		c2.636,2.288,5.772,4.02,8.767,5.871c3.163,1.955,6.46,3.695,9.621,5.656c6.546,4.055,13.017,8.234,19.597,12.234
		c0.599,0.364,2.26,0.113,2.599-0.4c4.675-7.059,9.205-14.216,13.614-21.106c-2.568-2.447-4.557-4.14-6.303-6.054
		c-2.769-3.036-6.011-5.037-10.104-5.763c-1.382-0.244-2.75-0.941-3.968-1.688c-6.074-3.726-12.528-5.403-19.666-4.198
		c-1.066,0.182-2.257-0.374-3.391-0.588c-0.007-0.376-0.014-0.75-0.022-1.126c0.964-0.471,1.89-1.207,2.901-1.356
		c2.15-0.315,4.364-0.576,6.518-0.412c4.182,0.321,7.507-1.09,10.372-4.063c1.139-1.184,2.49-2.255,3.929-3.041
		c8.792-4.801,17.142-3.236,24.965,2.243c5.092,3.567,9.756,8,11.775,13.854c1.646,4.769,5.01,9.235,4.097,14.802
		c-0.109,0.661,0.68,1.472,1.048,2.214C116.919,586.421,118.403,589.416,120.143,592.93z M156.796,146.624
		c-1.297-0.694-1.994-0.829-2.128-1.178c-0.995-2.587-2.449-1.838-4.131-0.764c-2.188,1.398-4.53,2.561-6.681,4.01
		c-8.436,5.686-16.608,11.696-23.179,19.597c-0.324,0.39-0.748,0.766-1.205,0.966c-4.064,1.782-5.777,5.401-7.452,9.154
		c1.171,1.096,2.44,1.945,3.208,3.123c0.484,0.742,0.217,1.974,0.288,2.986c-0.908-0.356-2.024-0.494-2.675-1.118
		c-1.057-1.012-1.808-2.343-2.973-3.925c-6.358,8.833-12.504,17.049-16.216,26.54c1.263,1.13,2.27,2.032,3.432,3.073
		c-0.832,0.504-0.995,0.647-1.184,0.706c-0.191,0.059-0.437,0.106-0.612,0.04c-3.229-1.239-4.317,0.631-5.246,3.292
		c-4.843,13.886-9.002,27.873-8.171,42.852c0.135,2.43-0.385,4.896-0.602,7.346c0.31,0.226,0.62,0.453,0.93,0.678
		c0.251-0.569,0.431-1.186,0.765-1.701c4.327-6.66,9.979-12.035,16.643-16.237c2.574-1.624,3.37-3.367,3.151-6.287
		c-0.265-3.527,0.474-7.401,3.754-9.027c3.009-1.493,3.212-3.569,3.42-6.138c0.118-1.448,0.312-2.893,0.531-4.33
		c1.932-12.66,9.13-22.887,15.582-33.438c0.771-1.261,2.289-2.083,3.501-3.056c2.52-2.021,5.389-3.713,7.539-6.066
		c5.318-5.818,11.802-8.915,19.301-11.352c11.528-3.748,23.306-5.191,35.177-6.306c7.287-0.685,14.287,1.37,20.871,4.501
		c10.791,5.132,21.864,9.835,30.25,18.849c1.014,1.09,2.198,2.022,3.469,3.177c4.384-9.014,8.829-17.354,15.58-24.291
		c14.029-14.416,30.413-23.561,51.048-23.613c0.938-0.003,1.937,0.118,2.809-0.146c7.982-2.417,15.46,0.696,22.995,2.296
		c4.542,0.965,8.725,3.556,13.255,4.647c7.838,1.889,14.324,6.145,20.539,10.86c9.037,6.858,15.76,15.748,21.282,25.587
		c0.202,0.361,0.396,0.869,0.72,0.996c3.766,1.489,4.449,5.012,5.408,8.274c0.774,2.639,2.74,3.456,5.29,4.296
		c-0.168-0.894-0.248-1.394-0.354-1.888c-2.135-9.846-6.957-18.465-12.36-26.794c-1.895-2.923-3.028-6.769-6.998-6.888
		c-0.437-1.638-0.407-3.201-1.164-4.102c-4.904-5.824-9.102-12.443-16.616-15.5c-0.729-0.297-1.237-1.1-1.908-1.585
		c-0.654-0.475-1.375-1.179-2.086-1.202c-3.287-0.11-5.209-2.212-7.224-4.389c-1.196-1.292-2.74-2.261-4.127-3.375
		c-0.197,0.211-0.396,0.423-0.593,0.634c-0.396-0.9-0.792-1.799-0.975-2.217c-1.965-0.334-3.595-0.292-4.935-0.895
		c-6.265-2.815-12.419-5.879-18.688-8.684c-1.407-0.629-3.12-0.575-4.693-0.834c-0.074,0.305-0.149,0.609-0.226,0.914
		c-1.07-0.791-2.048-1.783-3.23-2.338c-4.088-1.921-4.756-0.824-4.585,2.564c0.091,1.779-0.623,3.599-1.072,5.908
		c-3.335-2.375-2.18-4.547-1.482-6.67c1.393-4.244,1.363-4.443-3.111-5.244c-6.255-1.121-12.537-2.094-18.829-2.98
		c-0.697-0.099-1.822,0.583-2.24,1.231c-0.975,1.51-2.042,1.786-2.668,0.115c-0.783-2.086-2.235-2.142-3.965-2.169
		c-6.997-0.11-13.997-0.484-20.986-0.334c-6.799,0.146-13.618-0.837-20.378,1.695c-5.478,2.052-11.411,2.89-17.352,4.315
		c0.149,3.552,4.01,6.708,1.846,10.63c-0.383,0.133-0.765,0.267-1.147,0.399c-1.252-3.405-2.503-6.811-3.744-10.185
		c-22.188,6.929-43.211,15.537-63.291,25.848C156.219,143.318,156.44,144.582,156.796,146.624z M543.504,211.144
		c1.7-3.141,3.097-5.689,4.463-8.253c3.901-7.317,8.525-13.839,15.841-18.397c6.907-4.302,11.793-10.41,12.873-18.961
		c0.81-6.406,0.631-12.265-6.246-15.532c-0.426-0.203-0.708-0.737-1.02-1.144c-2.391-3.119-8.974-4.775-12.265-2.566
		c-4.029,2.706-7.844,5.783-11.456,9.027c-1.456,1.308-2.034,3.55-3.186,5.25c-1.538,2.272-3.696,4.23-4.782,6.68
		c-1.921,4.333-4.373,8.061-8.575,10.344c-1.241,0.674-3.398,1.465-4.097,0.906c-1.006-0.804-1.487-2.813-1.428-4.277
		c0.109-2.687,1.008-5.337,1.165-8.026c0.315-5.396,0.438-10.807,0.481-16.212c0.044-5.511,0.342-11.224-3.295-15.848
		c-1.572-1.997-4.013-4.401-6.221-4.578c-4.566-0.367-9.465-0.082-13.807,1.277c-4.356,1.364-8.137,4.829-8.764,9.682
		c-0.99,7.655-0.071,15.319,1.857,22.821c0.336,1.308,0.88,2.576,1.098,3.9c0.868,5.3,1.645,10.615,2.511,16.285
		c6.425-0.731,11.505,2.016,16.075,6.481c1.115,1.09,3.604,0.795,5.47,1.082c0.843,0.13,1.75-0.024,2.548,0.216
		c1.879,0.567,3.662,1.588,5.568,1.898c5.824,0.95,9.454,4.411,11.713,9.6C541.145,205.362,542.182,207.961,543.504,211.144z
		 M310.961,752.822c-0.953,5.201-1.938,10.301-2.807,15.421c-0.487,2.872-0.741,5.783-1.168,8.667
		c-0.278,1.876,0.579,2.703,2.339,2.917c1.546,0.188,3.077,0.608,4.623,0.652c10.154,0.285,20.309,0.479,30.463,0.74
		c6.046,0.155,12.088,0.505,18.132,0.538c13.665,0.076,27.33-0.098,40.992,0.082c3.317,0.043,4.145-1.946,4.724-4.267
		c2.058-8.253-0.58-15.107-6.775-21.332c-1.393,3.159-2.857,1.217-4.241,0.271c-5.914-4.037-12.252-6.881-19.583-5.973
		c-7.014,0.869-13.935,1.51-21.087,1.332c-14.803-0.37-29.633,0.401-44.451,0.715C311.72,752.592,311.323,752.744,310.961,752.822z
		 M267.067,779.496c-1.381-7.778-2.769-15.429-4.083-23.09c-0.391-2.279-1.545-2.995-3.858-2.893
		c-15.443,0.672-30.889,1.423-46.356,0.837c-0.298-0.014-0.598,0.144-0.903,0.187c-2.56,0.361-5.197,1.277-7.667,0.949
		c-4.796-0.637-9.134,0.202-13.579,1.906c-4.071,1.559-8.398,2.448-12.601,3.673c-3.179,0.926-5.395,2.951-5.746,6.294
		c-0.64,6.093-1.089,12.215-1.378,18.332c-0.035,0.733,1.363,2.107,2.202,2.196c2.362,0.251,4.78,0.009,7.173-0.074
		c3.535-0.124,7.107-0.671,10.591-0.321c4.4,0.442,8.555,0.222,12.933-0.68c12.028-2.481,24.479-0.588,36.598-3.683
		C248.699,781.007,257.475,780.73,267.067,779.496z M208.456,512.398c1.664-7.08,3.293-13.953,4.888-20.835
		c0.63-2.719-0.174-4.555-2.718-6.21c-6.904-4.493-14.782-5.989-22.481-8.172c-4.771-1.353-9.691-2.672-14.021-4.986
		c-9.076-4.852-18.652-8.194-28.54-10.685c-6.655-1.678-13.474-2.697-20.188-4.155c-5.849-1.27-11.701-2.359-17.615-0.732
		c-1.178,0.324-2.883,1.487-3.008,2.439c-0.927,7.081-1.604,14.202-2.112,21.327c-0.071,1.005,1.016,2.819,1.88,3.044
		c5.436,1.4,10.932,2.621,16.462,3.59c7.583,1.324,15.312,1.938,22.808,3.62C165.891,495.597,187.434,502.267,208.456,512.398z
		 M113.121,653.652c-2.825-5.472-5.646-10.798-8.334-16.19c-1.694-3.398-3.957-6.755-4.622-10.376
		c-1.551-8.452-1.704-17.077-1.492-25.69c0.105-4.267,1.55-5.867,5.886-5.732c2.394,0.073,4.792,0.52,7.172,0.421
		c3.093-0.13,3.786-1.604,2.992-4.651c-0.348-1.338,0.048-2.861,0.056-4.301c0.003-0.474-0.019-1.033-0.256-1.413
		c-2.789-4.467-5.587-8.878-10.642-11.291c-2.423-1.156-4.197-0.901-5.631,1.306c-1.868,2.874-3.696,5.775-5.492,8.696
		c-2.28,3.706-4.404,7.511-6.792,11.146c-2.56,3.896-5.549,7.518-7.979,11.487c-2.745,4.483-2.175,5.73,2.289,8.427
		c1.967,1.188,3.692,2.773,5.968,4.518c-4.072,2.826-7.334,5.395-10.88,7.477c-4.46,2.618-4.683,6.828-3.987,10.891
		c1.103,6.438,4.149,12.247,7.617,17.758c1.473,2.342,3.698,3.456,6.575,3.53c2.435,0.063,4.855,0.595,7.286,0.884
		c0.697,0.083,1.496,0.265,2.1,0.026c5.59-2.212,11.055-4.761,16.986-6.02C112.379,654.46,112.731,653.959,113.121,653.652z
		 M511.586,215.76c-5.26,4.225-8.848,8.435-13.404,10.447c-6.423,2.835-9.627,7.531-11.443,13.66
		c-1.645,5.545-2.949,11.194-4.319,16.817c-0.438,1.791,0.363,2.78,2.241,3.339c5.177,1.537,10.256,3.399,15.429,4.949
		c7.603,2.278,15.361,3.705,23.344,3.407c8.275-0.31,9.005-1.236,7.268-9.414c-1.206-5.675-2.578-11.315-3.936-16.956
		c-0.127-0.526-0.783-0.902-1.021-1.426c-1.102-2.414-2.975-4.841-3.016-7.29c-0.067-4.082-2.013-6.847-4.39-9.632
		C515.915,220.821,513.489,217.986,511.586,215.76z M440.711,260.369c0.322,0.068,0.645,0.137,0.967,0.205
		c-0.185-3.416-0.146-6.861-0.605-10.239c-0.588-4.31-1.838-8.536-2.327-12.852c-0.55-4.853-0.462-9.774-0.894-14.644
		c-0.117-1.321-0.792-2.918-1.756-3.777c-3.33-2.967-6.86-5.717-10.398-8.44c-1.72-1.324-4.144-2.03-5.337-3.676
		c-2.256-3.113-5.419-3.961-8.717-4.984c-2.426-0.753-4.752-1.849-7.091-2.863c-1.319-0.572-2.575-1.288-4.27-2.146
		c0,4.31-0.043,7.847,0.036,11.38c0.017,0.76,0.475,1.511,0.744,2.262c1.206,3.364,3.053,6.646,3.491,10.107
		c0.894,7.068-0.052,14.052-3.446,20.291c3.491-0.27,6.876-0.933,10.197-0.698c5.205,0.368,10.472,1.449,14.443,5.08
		C430.955,250.133,435.743,255.349,440.711,260.369z M508.702,205.339c0.264,5.484,3.005,9.101,6.79,12.209
		c5.637,4.629,11.021,9.322,10.255,17.781c-0.209,2.298,2,3.179,3.619,1.495c1.535-1.595,2.569-3.718,3.629-5.711
		c1.899-3.571,3.386-7.384,5.521-10.799c4.456-7.129,0.521-19.955-7.451-22.895c-3.186-1.175-6.707-1.42-9.932-2.515
		c-4.402-1.494-7.119-1.075-9.44,2.769C510.296,199.987,509.674,202.768,508.702,205.339z M492.25,226.789
		c5.893-3.468,12.169-5.938,15.026-12.473c0.506-1.157,0.241-2.701,0.155-4.055c-0.162-2.533-1.177-5.263-0.53-7.539
		c1.065-3.744,3.171-7.191,5.024-11.167c-2.454-3.55-8.615-6.817-13.438-6.123c-1.992,0.287-4.31,1.297-5.635,2.748
		c-7.914,8.669-7.491,18.959-5.175,29.51c0.063,0.285,0.211,0.695,0.425,0.78C491.782,219.932,490.999,223.626,492.25,226.789z
		 M108.583,573.384c-0.342-9.007-9.451-18.868-18.948-22.082c-8.076-2.731-17.771,1.01-22.66,8.48
		c11.083,2.265,19.34,9.638,28.485,15.381C98.424,569.713,100.851,569.445,108.583,573.384z M390.269,157.247
		c-0.271,0.374-0.543,0.748-0.815,1.122c0.575,0.813,1.139,1.635,1.728,2.438c6.994,9.527,13.318,19.525,15.877,31.162
		c1.226,5.579,4.018,7.933,9.14,8.709c1.303,0.198,2.58,0.705,3.804,1.227c0.594,0.254,1.325,0.779,1.493,1.334
		c0.916,3.038,3.653,3.464,6.239,4.909c-2.498-5.601-4.569-10.836-7.14-15.814c-1.746-3.379-4.367-6.294-6.286-9.597
		c-4.043-6.961-8.228-13.714-15.144-18.328c-2.184-1.456-3.946-3.532-5.971-5.242C392.308,158.419,391.249,157.88,390.269,157.247z
		 M386.081,104.88c0.026-0.182,0.055-0.363,0.082-0.545c-2.063,0.798-4.27,1.348-6.156,2.445c-3.854,2.243-7.744,4.513-11.232,7.263
		c-4.456,3.514-8.585,7.455-12.747,11.328c-2.184,2.033-0.282,3.259,1.212,4.435c1.727,1.358,2.397,0.132,3.36-1.17
		c2.526-3.414,4.856-7.125,7.985-9.906C374.136,113.796,380.22,109.464,386.081,104.88z"/>
	<path fill-rule="evenodd" clip-rule="evenodd" d="M125.486,74.972c2.044,0.258,4.22,0.157,6.104,0.85
		c3.584,1.318,6.998,3.101,10.491,4.671c2.54,1.141,4.462,3.888,7.839,2.938c0.413-0.117,1.067,0.541,1.581,0.882
		c11.641,7.733,20.071,18.494,27.707,29.903c1.313,1.961,1.318,4.865,1.645,7.37c0.08,0.615-0.951,1.375-1.472,2.068
		c-0.497-0.677-1.501-1.431-1.413-2.02c0.724-4.811-2.504-7.568-5.067-10.849c-3.238-4.149-5.722-8.903-9.1-12.917
		c-2.277-2.705-5.368-4.852-8.394-6.777c-9.223-5.866-18.541-11.602-29.243-14.515c-0.396-0.107-0.758-0.34-1.136-0.515
		C125.18,75.697,125.333,75.334,125.486,74.972z"/>
	<path fill-rule="evenodd" clip-rule="evenodd" fill="#FFFFFF" d="M302.377,748.587c0.521-6.504,1.142-12.788,1.466-19.087
		c0.117-2.252-0.266-4.592-0.797-6.8c-1.126-4.693-3.474-8.034-8.963-8.461c-8.182-0.641-15.77,0.823-22.736,5.195
		c-6.791,4.261-6.406,10.846-5.542,17.536c0.252,1.957,0.7,3.889,1.029,5.836c0.619,3.675-0.958,6.221-4.462,7.163
		c-0.898,0.242-1.829,0.483-2.748,0.505c-20.13,0.447-40.261,0.827-60.39,1.334c-2.592,0.063-3.898-0.784-4.14-3.365
		c-0.729-7.777-1.385-15.562-2.297-23.317c-0.484-4.113-0.922-8.366-2.351-12.194c-1.108-2.967-3.277-5.92-5.753-7.913
		c-5.785-4.655-11.569-9.282-18.305-12.771c-8.765-4.54-17.682-9.288-25.209-15.54c-5.349-4.442-12.877-7.182-15.215-15.012
		c-0.505-1.694-2.348-3.276-3.96-4.302c-5.69-3.62-9.169-9.132-12.351-14.685c-7.471-13.045-9.604-27.196-7.435-42.026
		c0.058-0.398,0.251-0.78,0.354-1.088c4.019-0.301,7.946-0.558,11.864-0.911c0.914-0.081,2.004-0.24,2.664-0.786
		c3.725-3.075,8.247-2.808,12.521-2.768c15.544,0.146,31.088,0.525,46.627,0.975c6.065,0.176,9.307-2.403,8.867-8.377
		c-0.849-11.545-2.424-23.042-3.053-34.594c-0.57-10.486-0.3-21.02-0.369-31.532c-0.036-5.595-0.006-11.191-0.006-17.678
		c9.52,4.24,18.589,8.278,28.16,12.539c0.251-0.49,1.192-1.74,1.561-3.141c1.665-6.335,3.227-12.699,4.71-19.077
		c1.76-7.571,0.374-10.646-6.866-13.364c-6.316-2.371-12.979-3.813-19.309-6.153c-7.215-2.666-5.971-0.89-5.747-9.546
		c7.011,2.772,14.331,2.304,21.598,2.698c4.062,0.22,8.05,1.718,12.086,2.567c2.034,0.429,4.089,0.864,6.155,1.008
		c9.886,0.687,19.783,1.224,29.667,1.933c2.585,0.186,5.127,0.944,7.712,1.168c4.546,0.391,9.113,0.554,13.667,0.843
		c7.062,0.453,14.115,1.044,21.183,1.371c9.482,0.438,19.054,1.589,28.438,0.748c9.14-0.818,18.255-1.827,27.407-1.6
		c11.967,0.295,23.343-2.638,34.841-5.219c5.78-1.297,11.745-1.759,17.551-2.964c3.495-0.725,6.846-2.151,10.587-3.368
		c-1.228,1.313-2.334,2.552-3.496,3.737c-2.996,3.052-5.907,6.204-9.066,9.079c-2.115,1.925-2.601,3.758-2.47,6.757
		c0.311,7.045,2.899,13.519,4.045,20.324c0.353,2.097,1.438,4.071,2.273,6.333c6.522-1.457,10.892-6.112,16.174-9.001
		c0.227,0.178,0.513,0.291,0.522,0.423c0.91,11.291,1.545,22.609,2.768,33.864c1.045,9.615,2.793,19.151,4.171,28.73
		c1.005,6.992,1.915,14,2.868,21.001c0.056,0.411-0.011,0.896,0.183,1.224c2.985,5.1,0.383,8.546-2.905,12.442
		c-6.507,7.706-12.533,15.827-18.562,23.923c-1.046,1.402-1.129,3.521-1.655,5.31c0.281,0.107,0.562,0.216,0.844,0.323
		c6.81-9.443,13.618-18.887,20.429-28.33c0.262,0.159,0.523,0.315,0.785,0.473c-1.2,9.771-2.4,19.538-3.602,29.305
		c0.568,0.125,1.137,0.249,1.705,0.372c0.344-1.209,0.819-2.399,1.01-3.631c1.005-6.551,1.938-13.113,3.011-20.455
		c1.763,4.754-0.386,9.666,3.742,13.509c2.309-7.275-0.619-13.701-0.966-20.278c2.617,6.535,4.899,13.231,7.939,19.564
		c3.587,7.473,7.7,14.707,11.897,21.86c0.859,1.468,3.095,2.132,4.984,2.749c-10.354-15.073-17.968-31.139-23.025-49.268
		c5.204,1.434,9.725,2.8,14.308,3.907c4.96,1.197,9.939,2.482,14.986,3.097c3.035,0.37,3.697,1.973,3.694,4.283
		c-0.002,2.381-0.396,4.761-0.638,7.138c-0.211,2.075,0.262,3.638,2.542,4.338c1.87,0.577,2.674,1.841,2.595,4.02
		c-0.139,3.881-0.738,7.391-2.474,11.063c-2.048,4.328-3.149,9.268-3.808,14.059c-1.668,12.144-8.372,21.354-16.464,29.83
		c-4.793,5.019-9.576,10.086-14.79,14.643c-2.645,2.315-6.109,3.856-9.422,5.21c-8.381,3.427-17.066,6.155-25.273,9.938
		c-5.113,2.356-9.583,6.112-14.325,9.266c-0.512,0.341-1.016,0.788-1.341,1.302c-5.756,9.073-12.049,17.918-12.835,29.171
		c-0.124,1.776-0.874,2.476-2.762,2.48c-22.552,0.076-45.103,0.232-67.655,0.348C304.012,748.804,302.992,748.64,302.377,748.587z
		 M366.343,553.266c-0.849-4.491-2.018-8.701-2.371-12.979c-0.617-7.48-0.816-14.998-1.008-22.507
		c-0.065-2.537-0.953-3.576-3.511-3.426c-6.559,0.388-13.126,0.964-19.687,0.93c-14.074-0.073-28.148-0.404-42.219-0.786
		c-7.782-0.213-15.554-0.736-23.33-1.126c-2.729-0.136-6.63,2.502-6.696,5.35c-0.193,8.298-0.46,16.656,0.319,24.896
		c0.662,6.99,3.404,13.777,2.634,20.971c-1.112,10.38,4.924,17.175,11.667,23.631c2.549,2.44,5.353,4.635,7.747,7.213
		c2.857,3.078,6.149,5.153,10.205,6.262c4.099,1.119,8.104,2.583,12.17,3.83c0.654,0.2,1.413,0.049,2.122,0.081
		c1.721,0.078,3.444,0.127,5.161,0.263c1.319,0.105,2.717,0.705,3.933,0.431c5.984-1.356,11.924-2.907,17.863-4.449
		c0.873-0.227,1.754-0.665,2.474-1.211c2.713-2.063,5.084-4.794,8.085-6.219c8.524-4.045,9.07-12.165,10.816-19.716
		c0.606-2.626,0.77-5.351,1.223-8.015C364.708,562.184,365.548,557.691,366.343,553.266z M176.289,597.642
		c-1.208,6.969-2.139,13.73-3.587,20.379c-2.959,13.585-8.643,25.553-20.889,33.415c-1.46,0.937-3.453,2.206-2.116,4.364
		c0.192,0.31,3.248-0.597,4.454-1.581c2.89-2.362,5.531-5.043,8.148-7.717c1.94-1.982,3.99-3.962,5.461-6.278
		c4.303-6.777,6.004-14.539,7.723-22.244c1.15-5.16,2.198-10.351,3.037-15.568C178.828,600.501,178.547,598.396,176.289,597.642z"/>
	<path fill-rule="evenodd" clip-rule="evenodd" fill="#FFFFFF" d="M110.687,452.763c0-7.743,0.282-15.462-0.061-23.153
		c-0.645-14.471-1.581-28.932-2.564-43.387c-0.204-2.985-1.241-5.904-1.725-8.882c-0.863-5.314-1.495-10.668-2.41-15.973
		c-1.004-5.817-2.321-11.582-3.314-17.401c-1.502-8.792-2.876-17.607-4.239-26.422c-0.989-6.387,0.972-11.344,6.719-14.881
		c3.149-1.938,5.64-4.926,8.726-6.993c2.99-2.003,6.239-3.814,9.631-4.924c1.309-0.429,3.793,0.871,4.95,2.118
		c15.989,17.229,34.835,29.104,58.661,31.817c9.617,1.097,18.714-1.143,27.371-5.033c13.431-6.035,26.577-12.628,37.293-23.072
		c5.293-5.158,9.108-11.314,11.896-18.666c0.899,0.594,1.651,1.008,2.308,1.539c3.404,2.747,6.628,5.753,10.229,8.206
		c2.257,1.537,5.061,2.276,7.634,3.341c3.332,1.376,6.565,3.32,10.037,3.97c12.578,2.354,25.027,5.966,37.992,5.329
		c3.763-0.185,7.467-1.495,11.21-2.229c1.61-0.315,3.361-0.185,4.849-0.766c3.068-1.2,6.062-2.632,8.977-4.174
		c2.826-1.495,5.344-3.726,8.302-4.792c7.062-2.545,10.995-8.251,15.03-13.887c4.112-5.742,8.107-11.573,11.961-17.49
		c1.851-2.843,3.192-6.012,4.9-8.955c0.538-0.926,1.384-1.886,2.326-2.322c1.879-0.872,3.881-1.606,5.909-1.985
		c1.491-0.277,3.104,0.101,4.772,0.192c1.161-0.342,2.538-1.162,3.843-1.06c5.545,0.434,10.381,2.14,13.869,7.079
		c1.745,2.47,4.559,4.233,7.033,6.126c4.348,3.323,6.27,7.426,6.566,13.08c0.483,9.137,2.272,18.196,3.09,27.327
		c1.263,14.119,1.988,28.286,3.291,42.401c0.929,10.051,2.447,20.047,3.673,30.071c1.176,9.603,2.23,19.22,3.511,28.808
		c0.509,3.812,1.85,7.535,2.115,11.348c0.193,2.774,0.04,6.109-1.326,8.369c-8,13.241-16.772,25.966-27.806,36.938
		c-1.088,1.083-2.742,1.618-4.173,2.33c-0.74,0.367-1.761,0.354-2.324,0.872c-7.358,6.778-16.775,7.959-26.001,9.569
		c-9.645,1.681-19.289,3.453-29.002,4.618c-7.434,0.893-14.975,0.88-22.466,1.309c-4.782,0.273-9.557,0.734-14.342,0.905
		c-8.331,0.298-16.683,0.845-24.998,0.544c-12.191-0.441-24.374-1.368-36.531-2.415c-7.979-0.688-15.891-2.145-23.865-2.914
		c-14.917-1.44-29.872-2.511-44.783-4.006c-4.004-0.402-7.908-1.798-11.862-2.716c-4.674-1.083-5.812,0.106-4.674,4.653
		c0.278,1.111,0.067,2.343,0.082,3.521c-1.183-0.178-2.439-0.157-3.537-0.564c-10.05-3.727-19.919-8.023-30.142-11.175
		C135.584,455.298,123.347,454.027,110.687,452.763z M190.899,421.691c-0.1,5.593,2.466,10.15,6.183,13.909
		c14.627,14.789,31.538,25.959,51.721,31.737c0.695,0.2,1.424,0.364,2.141,0.38c8.488,0.175,16.965,1.699,25.472-0.008
		c3.259-0.655,6.632-0.726,9.91-1.306c8.782-1.553,17.508-3.448,26.317-4.82c11.187-1.743,22.475-2.858,33.643-4.71
		c9.963-1.655,18.418-6.274,24.497-14.652c2.322-3.198,4.877-6.252,6.943-9.608c2.456-3.993,5.225-8.024,6.539-12.431
		c1.649-5.531,2.023-11.453,2.834-17.221c0.691-4.918-1.587-6.481-6.322-4.654c-2.994,1.156-6.033,2.509-9.165,2.931
		c-9.501,1.282-19.063,2.096-28.588,3.203c-5.997,0.697-11.965,1.644-17.958,2.387c-7.125,0.884-14.259,1.71-21.397,2.488
		c-8.165,0.892-16.338,1.725-24.512,2.536c-2.27,0.225-4.567,0.174-6.83,0.439c-2.887,0.339-5.737,1.034-8.629,1.288
		c-10.964,0.959-21.934,1.205-32.903,2.962c-9.999,1.602-20.41,0.531-30.313-2.728c-6.452-2.124-9.195-0.198-9.58,6.625
		C190.878,420.854,190.899,421.273,190.899,421.691z"/>
	<path fill-rule="evenodd" clip-rule="evenodd" fill="#FFFFFF" d="M393.969,241.833c-1.242,6.685-4.152,12.066-8.378,17.078
		c-4.882,5.792-8.896,12.306-13.474,18.366c-4.173,5.526-9.485,9.625-16.199,11.711c-0.496,0.155-1.223,0.178-1.439,0.519
		c-2.481,3.888-6.845,3.479-10.492,4.732c-18.298,6.283-35.99,1.45-53.764-2.719c-9.643-2.262-17.56-7.457-24.866-13.801
		c-0.968-0.841-1.382-2.294-2.282-3.245c-0.703-0.743-1.762-1.147-2.664-1.703c-0.327,0.791-0.642,1.586-0.985,2.369
		c-1.259,2.868-2.512,5.738-3.808,8.59c-0.209,0.458-0.724,0.781-0.924,1.242c-3.624,8.359-10.432,13.782-17.832,18.302
		c-8.161,4.985-16.75,9.279-25.211,13.763c-3.277,1.737-6.765,2.596-10.583,1.833c-1.485-0.297-3.134-0.025-4.671,0.22
		c-11.227,1.792-22.215,0.451-33.098-2.401c-0.705-0.185-1.48-0.295-2.075-0.674c-4.857-3.097-9.68-6.251-14.512-9.387
		c-4.1-2.659-7.76-5.744-11.089-9.402c-2.628-2.89-6.968-4.376-9.158-7.47c-2.736-3.866-5.295-1.979-7.866-1.021
		c-10.211,3.805-17.777,11.22-24.249,19.541c-1.842,2.369-1.35,6.73-1.476,10.194c-0.083,2.327,0.629,4.684,1.027,7.301
		c-0.962-0.324-1.689-0.362-2.104-0.74c-4.772-4.347-10.151-8.197-11.208-15.36c-0.353-2.389-1.619-4.639-2.427-6.966
		c-0.369-1.062-0.751-2.138-0.933-3.241c-0.628-3.8-1.048-7.637-1.771-11.418c-1.489-7.794,0.649-14.363,6.11-20.057
		c3.494-3.643,6.606-7.655,10.137-11.258c3.013-3.074,6.318-5.874,9.609-8.657c1.95-1.648,4.126-3.029,6.247-4.563
		c-3.409-3.482-1.978-9.301,2.167-10.618c0.643-0.205,1.457-0.868,1.604-1.463c0.745-3.007,1.096-6.12,1.954-9.089
		c1.926-6.674,3.717-13.419,6.203-19.889c4.648-12.098,14.409-19.868,24.278-27.483c8.223-6.343,18.045-8.482,27.829-10.457
		c11.924-2.407,24.008-1.939,35.68,1.212c6.367,1.719,12.344,5.109,18.265,8.191c7.156,3.724,13.664,8.358,18.09,15.409
		c1.346,2.145,2.811,1.804,4.173-0.578c3.865-6.758,7.185-13.937,11.825-20.118c6.877-9.16,15.858-16.208,26.371-20.956
		c5.111-2.308,10.468-4.12,15.82-5.819c1.747-0.554,3.832-0.037,5.761-0.019c1.356,0.014,2.79,0.3,4.059-0.033
		c9.894-2.587,19.355,0.824,28.944,2.094c2.276,0.301,4.352,2.081,6.531,3.156c0.645,0.318,1.306,0.677,1.998,0.813
		c6.016,1.176,10.873,4.996,16.382,7.173c8.297,3.279,12.658,10.173,17.63,16.631c3.083,4.005,7.037,7.5,8.059,12.84
		c0.093,0.485,0.786,1.083,1.307,1.217c3.31,0.854,3.619,3.477,4.078,6.236c0.994,5.981,2.222,11.902-0.113,17.895
		c-0.222,0.566,1.04,1.781,1.716,2.611c0.783,0.965,2.267,1.743,2.433,2.768c1.142,7.033,1.725,14.135-0.577,21.053
		C399.108,239.047,398.249,242.308,393.969,241.833z M196.846,301.883c7.173,0.175,14.667-3.701,22.413-7.132
		c9.391-4.16,15.085-11.846,20.6-19.829c0.993-1.438,1.367-3.299,2.058-4.952c0.78-1.866,2.077-3.665,2.288-5.588
		c0.361-3.295-0.499-6.772,0.14-9.977c1.23-6.172,2.422-12.289,2.062-18.617c-0.07-1.225,0.276-2.537-0.053-3.669
		c-1.216-4.188-2.406-8.409-4.039-12.442c-1.777-4.391-3.582-8.896-6.219-12.777c-2.354-3.463-5.725-6.295-8.894-9.131
		c-3.633-3.249-7.166-6.884-11.387-9.154c-20.61-11.083-41.021-9.021-61.064,1.87c-0.183,0.1-0.35,0.226-0.528,0.333
		c-3.862,2.361-7.643,4.873-11.612,7.037c-3.542,1.931-6.201,4.319-7.465,8.344c-0.762,2.423-2.486,4.525-3.552,6.875
		c-1.048,2.312-2.098,4.692-2.629,7.154c-0.722,3.34-0.944,6.787-1.396,10.185c-0.383,2.878-1.419,5.834-1.06,8.613
		c0.973,7.522,2.526,14.971,3.883,22.443c0.088,0.486,0.526,0.896,0.707,1.376c4.31,11.462,14.928,17.326,23.036,25.307
		c3.702,3.643,9.358,5.64,14.46,7.44C177.214,298.633,185.884,301.849,196.846,301.883z M318.222,277.906
		c4.1-0.632,8.438-0.625,12.241-2.047c5.315-1.987,10.365-4.81,15.288-7.685c9.957-5.814,18.023-13.526,22.2-24.558
		c1.727-4.563,2.303-9.623,4.411-13.967c3.579-7.37,3.39-14.979,2.487-22.613c-1.722-14.568-9.641-25.859-19.85-35.843
		c-6.468-6.325-14.459-10.214-22.944-12.039c-5.807-1.249-12.103-3.56-18.337-0.79c-0.912,0.406-2.052,0.311-3.089,0.421
		c-9.819,1.047-17.628,5.894-24.183,12.973c-2.211,2.388-3.503,5.718-7.237,6.421c-0.505,0.095-0.947,0.788-1.321,1.279
		c-2.956,3.896-6.027,7.713-8.793,11.74c-4.09,5.951-5.523,12.503-5.082,19.829c0.381,6.334,1.332,12.54,2.046,18.806
		c0.85,7.466,3.07,14.609,6.087,21.123c3.837,8.286,10.477,14.883,18.892,19.157C299.554,274.436,308.236,278.257,318.222,277.906z"
		/>
	<path fill-rule="evenodd" clip-rule="evenodd" fill="#FFFFFF" d="M489.949,264.616c9.612,2.513,18.949,4.954,28.688,7.5
		c-0.479,3.641-0.822,7.441-1.499,11.182c-1.982,10.955-4.613,21.821-5.987,32.848c-1.014,8.136-0.017,16.506-0.702,24.706
		c-0.928,11.097-2.319,22.176-4.048,33.179c-1.696,10.797-4.225,21.463-6.075,32.24c-1.145,6.667-1.383,13.494-2.619,20.141
		c-1.369,7.355-3.657,14.539-5.096,21.887c-1.761,8.986-3.49,18.021-4.407,27.117c-0.681,6.757-1.529,13.383-3.182,19.986
		c-3.338,13.333-3.519,27.035-4.184,40.677c-0.308,6.343-1.053,12.667-1.691,18.988c-1.101,10.887-2.14,21.783-3.485,32.64
		c-0.481,3.883-1.774,7.664-2.884,12.269c-6.062-1.34-11.796-2.599-17.526-3.877c-3.414-0.762-6.826-1.542-10.232-2.342
		c-0.706-0.166-1.373-0.493-2.075-0.682c-4.299-1.166-5.721-4.643-6.455-8.425c-1.143-5.88-2.548-11.786-2.84-17.73
		c-0.237-4.819-1.733-9.171-2.646-13.743c-1.678-8.414-2.897-16.942-2.665-25.69c0.174-6.551-1.037-13.187-2.102-19.707
		c-1.098-6.722-0.066-12.336,4.973-17.444c5.906-5.991,11.33-12.497,16.569-19.091c1.653-2.082,1.984-5.193,3.018-7.794
		c1.767-4.447,4.235-8.722,5.294-13.324c2.419-10.518,4.054-21.216,6.269-31.785c0.502-2.391,2.079-4.555,3.146-6.829
		c0.582-1.241,1.554-2.472,1.628-3.749c0.671-11.456,4.135-22.242,7.361-33.135c1.423-4.806,1.549-9.996,2.28-15.008
		c0.7-4.79,1.402-9.579,2.136-14.364c1.969-12.839,4.672-25.588,4.386-38.689c-0.214-9.794,2.038-19.21,4.429-28.626
		C488.787,273.748,489.175,269.384,489.949,264.616z"/>
	<path fill-rule="evenodd" clip-rule="evenodd" fill="#FFFFFF" d="M120.143,592.93c-1.741-3.515-3.224-6.509-4.709-9.502
		c-0.369-0.742-1.157-1.553-1.048-2.214c0.914-5.566-2.451-10.033-4.097-14.802c-2.019-5.854-6.683-10.286-11.775-13.854
		c-7.823-5.479-16.173-7.044-24.965-2.243c-1.439,0.786-2.791,1.857-3.929,3.041c-2.865,2.974-6.189,4.385-10.372,4.063
		c-2.153-0.164-4.368,0.097-6.518,0.412c-1.011,0.149-1.937,0.886-2.901,1.356c0.008,0.376,0.015,0.75,0.022,1.126
		c1.133,0.214,2.324,0.77,3.391,0.588c7.138-1.205,13.592,0.473,19.666,4.198c1.217,0.746,2.585,1.443,3.968,1.688
		c4.093,0.726,7.336,2.727,10.104,5.763c1.746,1.914,3.735,3.606,6.303,6.054c-4.41,6.891-8.939,14.048-13.614,21.106
		c-0.339,0.514-2,0.765-2.599,0.4c-6.581-4-13.051-8.18-19.597-12.234c-3.161-1.961-6.458-3.701-9.621-5.656
		c-2.995-1.852-6.13-3.583-8.767-5.871c-2.359-2.048-3.573-4.793-4.625-8.062c-3.94-12.236,2.735-20.522,9.378-29.01
		c9.619-12.287,22.572-20.857,34.349-30.749c4.748-3.986,9.062-8.49,13.806-12.482c3.561-2.997,7.267-5.984,11.354-8.127
		c2.153-1.128,5.5-1.192,7.898-0.437c12.12,3.814,24.758,4.766,37.086,7.321c9.145,1.897,17.989,5.229,26.993,7.83
		c2.504,0.724,3.454,2.3,3.448,4.748c-0.012,4.803,0.069,9.607,0.023,14.409c-0.101,10.542-0.597,21.093-0.258,31.619
		c0.196,6.089,1.977,12.112,2.536,18.212c0.531,5.791,0.469,11.643,0.529,17.468c0.026,2.541-1.359,4.338-4.004,4.235
		c-5.175-0.2-10.334-0.761-15.508-1.062c-4.658-0.272-9.329-0.603-13.988-0.533c-7.896,0.119-15.787,0.518-23.679,0.834
		C122.766,592.631,121.116,592.843,120.143,592.93z"/>
	<path fill-rule="evenodd" clip-rule="evenodd" fill="#FFFFFF" d="M156.796,146.624c-0.356-2.042-0.577-3.306-0.897-5.141
		c20.08-10.311,41.103-18.919,63.291-25.848c1.24,3.375,2.492,6.78,3.744,10.185c0.382-0.132,0.765-0.266,1.147-0.399
		c2.164-3.922-1.697-7.078-1.846-10.63c5.941-1.426,11.874-2.263,17.352-4.315c6.76-2.533,13.579-1.55,20.378-1.695
		c6.99-0.15,13.99,0.224,20.986,0.334c1.729,0.027,3.182,0.083,3.965,2.169c0.626,1.67,1.693,1.395,2.668-0.115
		c0.418-0.648,1.543-1.331,2.24-1.231c6.292,0.887,12.574,1.86,18.829,2.98c4.475,0.801,4.504,1,3.111,5.244
		c-0.697,2.123-1.853,4.294,1.482,6.67c0.449-2.31,1.163-4.129,1.072-5.908c-0.171-3.389,0.497-4.485,4.585-2.564
		c1.183,0.556,2.16,1.547,3.23,2.338c0.076-0.304,0.151-0.609,0.226-0.914c1.573,0.26,3.286,0.205,4.693,0.834
		c6.27,2.805,12.424,5.868,18.688,8.684c1.34,0.602,2.97,0.56,4.935,0.895c0.183,0.417,0.579,1.317,0.975,2.217
		c0.197-0.211,0.396-0.423,0.593-0.634c1.387,1.114,2.931,2.084,4.127,3.375c2.015,2.177,3.937,4.279,7.224,4.389
		c0.711,0.023,1.432,0.728,2.086,1.202c0.671,0.485,1.179,1.289,1.908,1.585c7.515,3.056,11.712,9.675,16.616,15.5
		c0.757,0.901,0.728,2.464,1.164,4.102c3.97,0.119,5.104,3.964,6.998,6.888c5.403,8.329,10.226,16.949,12.36,26.794
		c0.105,0.494,0.186,0.994,0.354,1.888c-2.55-0.84-4.516-1.657-5.29-4.296c-0.959-3.263-1.643-6.786-5.408-8.274
		c-0.323-0.127-0.518-0.635-0.72-0.996c-5.522-9.839-12.245-18.729-21.282-25.587c-6.215-4.715-12.701-8.971-20.539-10.86
		c-4.53-1.091-8.713-3.683-13.255-4.647c-7.535-1.601-15.013-4.713-22.995-2.296c-0.872,0.264-1.87,0.143-2.809,0.146
		c-20.635,0.053-37.019,9.197-51.048,23.613c-6.75,6.936-11.196,15.276-15.58,24.291c-1.271-1.155-2.455-2.087-3.469-3.177
		c-8.386-9.014-19.459-13.717-30.25-18.849c-6.584-3.131-13.584-5.186-20.871-4.501c-11.872,1.115-23.649,2.559-35.177,6.306
		c-7.499,2.437-13.983,5.534-19.301,11.352c-2.15,2.353-5.02,4.044-7.539,6.066c-1.213,0.973-2.73,1.794-3.501,3.056
		c-6.452,10.551-13.65,20.777-15.582,33.438c-0.219,1.437-0.413,2.881-0.531,4.33c-0.208,2.568-0.412,4.645-3.42,6.138
		c-3.28,1.626-4.019,5.5-3.754,9.027c0.218,2.92-0.577,4.664-3.151,6.287c-6.665,4.202-12.316,9.577-16.643,16.237
		c-0.334,0.516-0.514,1.132-0.765,1.701c-0.31-0.226-0.621-0.453-0.93-0.678c0.217-2.45,0.737-4.916,0.602-7.346
		c-0.832-14.979,3.328-28.966,8.171-42.852c0.928-2.661,2.017-4.532,5.246-3.292c0.175,0.067,0.42,0.02,0.612-0.04
		c0.189-0.059,0.352-0.202,1.184-0.706c-1.162-1.041-2.169-1.942-3.432-3.073c3.712-9.49,9.858-17.706,16.216-26.54
		c1.165,1.582,1.916,2.913,2.973,3.925c0.651,0.624,1.767,0.762,2.675,1.118c-0.07-1.013,0.197-2.244-0.288-2.986
		c-0.767-1.178-2.036-2.027-3.208-3.123c1.674-3.753,3.388-7.372,7.452-9.154c0.457-0.201,0.88-0.577,1.205-0.966
		c6.571-7.901,14.744-13.911,23.179-19.597c2.151-1.45,4.493-2.612,6.681-4.01c1.682-1.074,3.136-1.824,4.131,0.764
		C154.802,145.795,155.499,145.93,156.796,146.624z"/>
	<path fill-rule="evenodd" clip-rule="evenodd" fill="#FFFFFF" d="M543.504,211.144c-1.322-3.182-2.359-5.782-3.477-8.347
		c-2.259-5.189-5.889-8.65-11.713-9.6c-1.906-0.31-3.689-1.332-5.568-1.898c-0.798-0.24-1.705-0.086-2.548-0.216
		c-1.865-0.287-4.354,0.008-5.47-1.082c-4.57-4.465-9.65-7.213-16.075-6.481c-0.866-5.67-1.643-10.985-2.511-16.285
		c-0.218-1.324-0.762-2.592-1.098-3.9c-1.929-7.501-2.848-15.166-1.857-22.821c0.627-4.853,4.407-8.317,8.764-9.682
		c4.342-1.358,9.24-1.644,13.807-1.277c2.208,0.177,4.648,2.581,6.221,4.578c3.637,4.625,3.339,10.337,3.295,15.848
		c-0.044,5.406-0.166,10.817-0.481,16.212c-0.157,2.689-1.056,5.34-1.165,8.026c-0.06,1.464,0.422,3.473,1.428,4.277
		c0.698,0.56,2.855-0.231,4.097-0.906c4.202-2.283,6.654-6.011,8.575-10.344c1.086-2.45,3.244-4.408,4.782-6.68
		c1.151-1.7,1.729-3.942,3.186-5.25c3.612-3.245,7.427-6.322,11.456-9.027c3.291-2.209,9.874-0.553,12.265,2.566
		c0.312,0.407,0.594,0.94,1.02,1.144c6.877,3.267,7.056,9.125,6.246,15.532c-1.08,8.551-5.966,14.66-12.873,18.961
		c-7.315,4.558-11.939,11.08-15.841,18.397C546.601,205.455,545.204,208.002,543.504,211.144z"/>
	<path fill-rule="evenodd" clip-rule="evenodd" fill="#FFFFFF" d="M310.961,752.822c0.362-0.078,0.759-0.229,1.16-0.236
		c14.818-0.313,29.648-1.085,44.451-0.715c7.152,0.178,14.073-0.463,21.087-1.332c7.331-0.908,13.669,1.936,19.583,5.973
		c1.384,0.946,2.849,2.889,4.241-0.271c6.195,6.225,8.833,13.079,6.775,21.332c-0.579,2.32-1.406,4.31-4.724,4.267
		c-13.662-0.18-27.327-0.006-40.992-0.082c-6.044-0.033-12.086-0.383-18.132-0.538c-10.154-0.261-20.309-0.455-30.463-0.74
		c-1.546-0.044-3.077-0.464-4.623-0.652c-1.76-0.214-2.617-1.041-2.339-2.917c0.427-2.884,0.681-5.795,1.168-8.667
		C309.023,763.123,310.008,758.023,310.961,752.822z"/>
	<path fill-rule="evenodd" clip-rule="evenodd" fill="#FFFFFF" d="M267.067,779.496c-9.592,1.234-18.368,1.512-26.674,3.634
		c-12.118,3.095-24.57,1.201-36.598,3.683c-4.378,0.901-8.533,1.122-12.933,0.68c-3.484-0.35-7.057,0.197-10.591,0.321
		c-2.394,0.083-4.811,0.325-7.173,0.074c-0.839-0.089-2.236-1.463-2.202-2.196c0.289-6.117,0.738-12.239,1.378-18.332
		c0.351-3.343,2.567-5.368,5.746-6.294c4.203-1.225,8.53-2.114,12.601-3.673c4.445-1.704,8.783-2.543,13.579-1.906
		c2.47,0.328,5.107-0.588,7.667-0.949c0.305-0.043,0.604-0.2,0.903-0.187c15.468,0.586,30.913-0.165,46.356-0.837
		c2.313-0.103,3.467,0.613,3.858,2.893C264.298,764.067,265.686,771.717,267.067,779.496z"/>
	<path fill-rule="evenodd" clip-rule="evenodd" fill="#FFFFFF" d="M208.456,512.398c-21.022-10.131-42.564-16.801-64.644-21.755
		c-7.496-1.682-15.224-2.296-22.808-3.62c-5.53-0.969-11.026-2.189-16.462-3.59c-0.864-0.225-1.952-2.039-1.88-3.044
		c0.508-7.125,1.185-14.246,2.112-21.327c0.125-0.952,1.83-2.115,3.008-2.439c5.915-1.627,11.766-0.537,17.615,0.732
		c6.713,1.458,13.532,2.478,20.188,4.155c9.888,2.49,19.463,5.833,28.54,10.685c4.33,2.314,9.25,3.634,14.021,4.986
		c7.699,2.183,15.577,3.679,22.481,8.172c2.544,1.655,3.348,3.491,2.718,6.21C211.749,498.445,210.12,505.318,208.456,512.398z
		 M187.413,493.426c-0.115,9.468,6.028,13.979,12.807,10.844c3.037-1.404,5.849-4.022,7.854-6.757
		c2.877-3.925,1.717-8.17-2.122-11.278c-1.454-1.177-2.888-2.39-4.236-3.684c-2.543-2.441-9.218-1.849-10.73,1.337
		C189.269,487.503,188.152,491.401,187.413,493.426z"/>
	<path fill-rule="evenodd" clip-rule="evenodd" fill="#FFFFFF" d="M113.121,653.652c-0.39,0.308-0.742,0.809-1.182,0.901
		c-5.932,1.259-11.396,3.808-16.986,6.02c-0.604,0.238-1.403,0.057-2.1-0.026c-2.431-0.289-4.852-0.82-7.286-0.884
		c-2.877-0.074-5.102-1.188-6.575-3.53c-3.468-5.511-6.514-11.319-7.617-17.758c-0.696-4.063-0.473-8.272,3.987-10.891
		c3.546-2.082,6.808-4.65,10.88-7.477c-2.276-1.744-4.001-3.329-5.968-4.518c-4.464-2.696-5.034-3.943-2.289-8.427
		c2.43-3.97,5.419-7.592,7.979-11.487c2.388-3.636,4.512-7.44,6.792-11.146c1.796-2.921,3.624-5.822,5.492-8.696
		c1.434-2.207,3.208-2.462,5.631-1.306c5.055,2.413,7.853,6.824,10.642,11.291c0.237,0.38,0.259,0.939,0.256,1.413
		c-0.007,1.439-0.403,2.963-0.056,4.301c0.793,3.047,0.101,4.521-2.992,4.651c-2.38,0.099-4.778-0.348-7.172-0.421
		c-4.336-0.135-5.781,1.466-5.886,5.732c-0.212,8.613-0.06,17.238,1.492,25.69c0.665,3.621,2.928,6.978,4.622,10.376
		C107.475,642.854,110.296,648.18,113.121,653.652z"/>
	<path fill-rule="evenodd" clip-rule="evenodd" fill="#FFFFFF" d="M511.586,215.76c1.902,2.226,4.329,5.061,6.752,7.901
		c2.377,2.785,4.322,5.55,4.39,9.632c0.041,2.449,1.914,4.876,3.016,7.29c0.238,0.523,0.895,0.9,1.021,1.426
		c1.357,5.641,2.729,11.281,3.936,16.956c1.737,8.178,1.008,9.104-7.268,9.414c-7.982,0.298-15.741-1.129-23.344-3.407
		c-5.173-1.55-10.252-3.412-15.429-4.949c-1.878-0.559-2.679-1.548-2.241-3.339c1.37-5.623,2.675-11.271,4.319-16.817
		c1.816-6.129,5.021-10.825,11.443-13.66C502.739,224.194,506.326,219.985,511.586,215.76z"/>
	<path fill-rule="evenodd" clip-rule="evenodd" fill="#FFFFFF" d="M440.711,260.369c-4.968-5.02-9.756-10.236-14.962-14.995
		c-3.972-3.631-9.238-4.712-14.443-5.08c-3.321-0.235-6.706,0.428-10.197,0.698c3.395-6.239,4.34-13.222,3.446-20.291
		c-0.438-3.461-2.285-6.743-3.491-10.107c-0.27-0.751-0.728-1.502-0.744-2.262c-0.079-3.534-0.036-7.071-0.036-11.38
		c1.694,0.858,2.95,1.574,4.27,2.146c2.339,1.014,4.665,2.109,7.091,2.863c3.298,1.022,6.461,1.871,8.717,4.984
		c1.193,1.646,3.617,2.352,5.337,3.676c3.538,2.723,7.068,5.473,10.398,8.44c0.964,0.859,1.639,2.457,1.756,3.777
		c0.432,4.87,0.344,9.792,0.894,14.644c0.489,4.316,1.739,8.542,2.327,12.852c0.46,3.378,0.421,6.824,0.605,10.239
		C441.356,260.505,441.033,260.437,440.711,260.369z"/>
	<path fill-rule="evenodd" clip-rule="evenodd" fill="#FFFFFF" d="M424.931,493.216c-2.636,6.387-8.773,9.95-16.916,13.514
		c-0.938-3.522-1.993-6.955-2.753-10.451c-0.927-4.277-1.709-8.593-2.322-12.925c-0.151-1.075,0.235-2.623,0.972-3.363
		c6.003-6.038,11.712-12.502,18.417-17.658c3.807-2.927,6.342-6.479,9.169-10.015c0.775-0.97,1.368-2.101,2.216-2.996
		c3.225-3.41,6.521-6.754,9.787-10.127c0.143-0.147,0.261-0.326,0.366-0.505c4.269-7.282,8.535-14.565,12.799-21.851
		c0.416-0.71,0.792-1.446,1.23-2.143c0.081-0.129,0.371-0.128,1.07-0.342c0.122,0.973,0.434,1.888,0.321,2.746
		c-2.146,16.341-4.853,32.553-12.103,47.589c-1.127,2.337-2.351,4.715-3.978,6.707c-6.025,7.39-12.238,14.628-18.385,21.927
		c0.263-0.871,0.513-1.754,0.798-2.623c1.525-4.661,1.476-9.193-1.217-13.456c-1.714-2.715-6.071-4.651-7.938-3.62
		c-6.546,3.612-8.869,11.618-5.357,18.45c3.179,6.184,7.588,6.887,12.551,2.016C424.02,493.736,424.504,493.505,424.931,493.216z"/>
	<path fill-rule="evenodd" clip-rule="evenodd" fill="#FFFFFF" d="M508.702,205.339c0.972-2.571,1.594-5.353,2.991-7.666
		c2.321-3.844,5.038-4.263,9.44-2.769c3.225,1.094,6.746,1.339,9.932,2.515c7.972,2.94,11.907,15.766,7.451,22.895
		c-2.136,3.415-3.622,7.229-5.521,10.799c-1.06,1.993-2.094,4.116-3.629,5.711c-1.619,1.684-3.828,0.803-3.619-1.495
		c0.767-8.459-4.618-13.152-10.255-17.781C511.707,214.44,508.966,210.824,508.702,205.339z"/>
	<path fill-rule="evenodd" clip-rule="evenodd" fill="#FFFFFF" d="M492.25,226.789c-1.251-3.162-0.468-6.857-4.146-8.318
		c-0.214-0.084-0.362-0.495-0.425-0.78c-2.316-10.551-2.739-20.841,5.175-29.51c1.325-1.451,3.643-2.461,5.635-2.748
		c4.822-0.694,10.983,2.572,13.438,6.123c-1.854,3.976-3.959,7.423-5.024,11.167c-0.646,2.276,0.368,5.006,0.53,7.539
		c0.086,1.354,0.351,2.898-0.155,4.055C504.419,220.851,498.143,223.321,492.25,226.789z"/>
	<path fill-rule="evenodd" clip-rule="evenodd" fill="#FFFFFF" d="M108.583,573.384c-7.732-3.939-10.159-3.671-13.123,1.779
		c-9.145-5.743-17.402-13.116-28.485-15.381c4.889-7.471,14.584-11.212,22.66-8.48C99.133,554.516,108.241,564.377,108.583,573.384z
		"/>
	<path fill-rule="evenodd" clip-rule="evenodd" fill="#FFFFFF" d="M390.269,157.247c0.98,0.633,2.039,1.173,2.925,1.92
		c2.024,1.71,3.787,3.786,5.971,5.242c6.916,4.614,11.101,11.367,15.144,18.328c1.919,3.303,4.54,6.218,6.286,9.597
		c2.57,4.978,4.642,10.213,7.14,15.814c-2.586-1.445-5.323-1.871-6.239-4.909c-0.168-0.555-0.899-1.08-1.493-1.334
		c-1.224-0.521-2.501-1.029-3.804-1.227c-5.122-0.777-7.914-3.131-9.14-8.709c-2.559-11.637-8.883-21.635-15.877-31.162
		c-0.589-0.803-1.152-1.625-1.728-2.438C389.726,157.995,389.997,157.62,390.269,157.247z"/>
	<path fill-rule="evenodd" clip-rule="evenodd" fill="#FFFFFF" d="M386.081,104.88c-5.861,4.584-11.945,8.916-17.496,13.85
		c-3.129,2.781-5.459,6.493-7.985,9.906c-0.963,1.302-1.634,2.528-3.36,1.17c-1.494-1.175-3.396-2.402-1.212-4.435
		c4.162-3.873,8.291-7.814,12.747-11.328c3.488-2.75,7.379-5.02,11.232-7.263c1.887-1.098,4.094-1.647,6.156-2.445
		C386.136,104.518,386.108,104.699,386.081,104.88z"/>
	<path fill-rule="evenodd" clip-rule="evenodd" d="M366.343,553.266c-0.795,4.425-1.635,8.918-2.403,13.424
		c-0.453,2.664-0.616,5.389-1.223,8.015c-1.746,7.551-2.292,15.671-10.816,19.716c-3.001,1.425-5.372,4.155-8.085,6.219
		c-0.72,0.546-1.601,0.984-2.474,1.211c-5.939,1.542-11.879,3.093-17.863,4.449c-1.216,0.274-2.613-0.325-3.933-0.431
		c-1.717-0.136-3.44-0.185-5.161-0.263c-0.709-0.032-1.468,0.119-2.122-0.081c-4.066-1.247-8.071-2.711-12.17-3.83
		c-4.056-1.108-7.347-3.184-10.205-6.262c-2.394-2.578-5.198-4.772-7.747-7.213c-6.743-6.456-12.779-13.251-11.667-23.631
		c0.771-7.193-1.972-13.98-2.634-20.971c-0.779-8.24-0.512-16.599-0.319-24.896c0.066-2.848,3.967-5.485,6.696-5.35
		c7.775,0.39,15.548,0.913,23.33,1.126c14.07,0.382,28.145,0.713,42.219,0.786c6.561,0.034,13.128-0.542,19.687-0.93
		c2.558-0.15,3.445,0.889,3.511,3.426c0.191,7.509,0.391,15.026,1.008,22.507C364.325,544.565,365.494,548.775,366.343,553.266z
		 M359.528,516.91c-8.335,0.54-16.409,1.381-24.494,1.521c-14.547,0.253-29.103,0.088-43.654,0.081
		c-0.722,0-1.444-0.174-2.167-0.271c-4.119-0.536-8.228-1.396-12.359-1.536c-5.889-0.198-7.003,1.059-6.91,6.961
		c0.101,6.357,0.395,12.714,0.613,19.071c0.014,0.414,0.091,0.828,0.147,1.239c0.989,7.361,2.878,14.736,2.754,22.078
		c-0.17,10.058,5.376,16.239,12.089,22.072c3.217,2.794,6.414,5.838,10.14,7.768c5.134,2.658,10.757,4.374,16.177,6.473
		c0.163,0.064,0.407-0.117,0.608-0.102c2.134,0.15,4.266,0.334,6.398,0.478c1.545,0.104,3.146,0.451,4.631,0.188
		c4.096-0.733,8.16-1.675,12.209-2.649c1.993-0.481,4.1-0.912,5.844-1.912c2.874-1.647,5.473-3.768,8.225-5.634
		c3.039-2.062,6.499-4.004,7.325-7.8c2.075-9.538,5.048-19.138,5.251-28.767C362.625,543.338,360.614,530.46,359.528,516.91z"/>
	<path fill-rule="evenodd" clip-rule="evenodd" d="M176.289,597.642c2.257,0.754,2.539,2.859,2.231,4.77
		c-0.839,5.218-1.886,10.408-3.037,15.568c-1.718,7.705-3.42,15.467-7.723,22.244c-1.471,2.316-3.521,4.296-5.461,6.278
		c-2.617,2.674-5.258,5.354-8.148,7.717c-1.207,0.984-4.262,1.891-4.454,1.581c-1.337-2.158,0.656-3.428,2.116-4.364
		c12.247-7.862,17.93-19.83,20.889-33.415C174.151,611.373,175.081,604.611,176.289,597.642z"/>
	<path fill-rule="evenodd" clip-rule="evenodd" d="M190.899,421.691c0-0.417-0.021-0.837,0.003-1.252
		c0.385-6.824,3.128-8.749,9.58-6.625c9.902,3.258,20.314,4.33,30.313,2.728c10.97-1.758,21.939-2.003,32.903-2.962
		c2.892-0.253,5.742-0.949,8.629-1.288c2.263-0.266,4.561-0.215,6.83-0.439c8.173-0.811,16.347-1.644,24.512-2.536
		c7.139-0.778,14.272-1.604,21.397-2.488c5.993-0.744,11.961-1.69,17.958-2.387c9.524-1.107,19.087-1.921,28.588-3.203
		c3.132-0.422,6.171-1.775,9.165-2.931c4.735-1.827,7.014-0.264,6.322,4.654c-0.811,5.769-1.185,11.69-2.834,17.221
		c-1.314,4.407-4.083,8.438-6.539,12.431c-2.066,3.356-4.621,6.41-6.943,9.608c-6.079,8.378-14.534,12.997-24.497,14.652
		c-11.168,1.852-22.456,2.967-33.643,4.71c-8.809,1.372-17.535,3.268-26.317,4.82c-3.278,0.58-6.651,0.65-9.91,1.306
		c-8.507,1.707-16.984,0.183-25.472,0.008c-0.717-0.016-1.446-0.18-2.141-0.38c-20.184-5.778-37.094-16.948-51.721-31.737
		C193.365,431.841,190.799,427.284,190.899,421.691z M209.168,441.972c-0.009-0.036-0.01,0.185,0.095,0.324
		c0.315,0.413,0.636,0.834,1.018,1.184c11,10.049,23.854,16.635,38.18,20.513c1.865,0.506,3.05,0.012,4.32-1.414
		c3.771-4.235,8.553-6.513,14.257-6.855c1.224-0.073,2.416-0.599,3.642-0.742c3.997-0.469,8.025-1.337,12-1.156
		c5.293,0.239,10.272,2.023,14.798,6.339c0-3.036-0.094-5.289,0.02-7.529c0.205-4.012,1.385-5.654,5.123-6.665
		c5.731-1.551,11.446-3.383,17.295-4.223c8.425-1.212,17.05-1.941,22.712,6.665c5.107-4.871,5.865-5.593,9.906-6.058
		c3.713-0.428,7.508-0.497,11.241-0.284c2.766,0.161,4.698-0.591,6.416-2.758c6.411-8.079,10.472-17.219,12.508-27.27
		c0.728-3.589,1.121-7.247,1.687-11.003c-3.06,0.006-4.151,0.946-4.402,3.511c-0.494,5.066-1.007,10.198-2.27,15.108
		c-1.991,7.745-6.749,12.927-15.313,13.217c-4.574,0.156-9.178,0.112-13.737-0.235c-2.518-0.192-5.479-0.546-7.35-1.985
		c-3.548-2.729-6.137-2.248-10.078-0.431c-9.473,4.368-19.68,5.207-30.041,3.601c-5.312-0.823-9.024-3.505-10.711-8.742
		c-0.196-0.607-0.617-1.142-0.932-1.705c-0.339,0.193-0.474,0.222-0.501,0.294c-0.31,0.769-0.697,1.523-0.886,2.324
		c-1.422,6.026-5.87,8.479-11.402,9.02c-9.093,0.886-18.144,0.079-27.009-2.12c-2.501-0.619-4.392-0.4-6.271,1.389
		c-3.979,3.788-8.813,6.069-14.228,6.581C222.635,441.49,215.968,441.62,209.168,441.972z M339.369,408.389
		c-1.039-0.209-1.349-0.351-1.637-0.318c-10.752,1.229-21.504,2.456-32.25,3.728c-4.084,0.483-8.165,1.003-12.214,1.698
		c-0.547,0.095-1.358,1.378-1.27,2.002c0.446,3.164,0.942,6.351,1.815,9.416c0.947,3.317,3.655,4.981,6.872,5.619
		c2.748,0.544,5.552,0.873,8.345,1.086c8.248,0.632,15.624-3.128,23.403-4.852c0.828-0.184,1.817-0.892,2.197-1.631
		C337.315,419.922,338.251,414.233,339.369,408.389z M377.001,403.154c-4.947,0.884-9.603,1.942-14.316,2.498
		c-5.58,0.658-11.222,0.772-16.81,1.375c-1.305,0.14-3.311,1.053-3.607,2.032c-1.418,4.651-2.431,9.432-3.397,14.206
		c-0.187,0.918,0.181,2.62,0.792,2.914c3.142,1.51,6.358,3.355,9.718,3.794c4.385,0.572,8.932-0.195,13.405-0.144
		c3.974,0.048,6.913-1.848,8.914-4.874C376.093,418.309,377.138,410.771,377.001,403.154z M244.363,429.917
		c-1.662-3.159-3.258-5.957-4.619-8.866c-0.829-1.771-1.907-2.373-3.877-2.251c-11.645,0.705-23.241,0.338-35.292-2.354
		c1.934,6.673,2.542,13.269,6.147,18.913c1.385,2.169,3.563,3.425,6.186,2.339c2.323-0.961,4.112-0.289,6.18,0.747
		c1.313,0.655,3.102,0.657,4.632,0.505c2.235-0.222,4.451-0.767,6.636-1.327c1.889-0.483,3.898-0.883,5.544-1.848
		C238.754,434.103,241.369,432.022,244.363,429.917z M289.125,413.937c-1.633,0.076-2.335,0.087-3.035,0.142
		c-9.451,0.747-18.895,1.606-28.354,2.205c-5.44,0.346-10.922,0.193-15.919,3.285c1.569,2.497,3.103,5.202,4.92,7.7
		c0.725,0.997,2.01,2.06,3.151,2.203c7.837,0.978,15.688,2.104,23.564,2.433c7.98,0.332,10.456-1.68,13.21-9.134
		C287.669,420.049,288.24,417.168,289.125,413.937z M340.69,454.321c0.209-2.497-0.781-4.835-2.728-6.707
		c-3.46-3.329-8.138-4.675-12.417-4.067c-7.585,1.077-15.019,3.334-22.429,5.408c-1.194,0.334-2.532,2.166-2.767,3.49
		c-0.441,2.496-0.127,5.128-0.127,8.396C313.891,458.64,327.159,456.501,340.69,454.321z M254.635,464.974
		c13.471,0.938,26.407,0,39.414-3.063C285.725,453.32,262.186,456.424,254.635,464.974z M203.679,437.022
		c-2.05-6.618-4.164-13.442-6.341-20.476c-2.428-0.083-4.094,1.013-3.706,4.079c0.442,3.488,1.718,6.936,3.075,10.217
		C198.043,434.075,200.178,436.784,203.679,437.022z M344.744,453.69c5.78,1.488,15.783-4.258,17.973-8.984
		c-3.411,0.34-6.685,0.775-9.973,0.966C347.861,445.956,345.368,448.325,344.744,453.69z"/>
	<path fill-rule="evenodd" clip-rule="evenodd" d="M196.846,301.883c-10.962-0.034-19.632-3.25-28.251-6.291
		c-5.103-1.801-10.759-3.798-14.46-7.44c-8.107-7.98-18.726-13.845-23.036-25.307c-0.18-0.481-0.618-0.891-0.707-1.376
		c-1.357-7.472-2.91-14.92-3.883-22.443c-0.359-2.779,0.677-5.735,1.06-8.613c0.451-3.398,0.673-6.845,1.396-10.185
		c0.532-2.462,1.581-4.842,2.629-7.154c1.066-2.349,2.79-4.452,3.552-6.875c1.265-4.025,3.924-6.413,7.465-8.344
		c3.97-2.164,7.75-4.676,11.612-7.037c0.178-0.108,0.345-0.234,0.528-0.333c20.043-10.891,40.454-12.953,61.064-1.87
		c4.221,2.27,7.754,5.905,11.387,9.154c3.168,2.835,6.54,5.667,8.894,9.131c2.638,3.881,4.442,8.386,6.219,12.777
		c1.633,4.033,2.822,8.254,4.039,12.442c0.329,1.132-0.017,2.444,0.053,3.669c0.36,6.328-0.832,12.445-2.062,18.617
		c-0.639,3.205,0.221,6.682-0.14,9.977c-0.211,1.923-1.507,3.722-2.288,5.588c-0.691,1.653-1.065,3.514-2.058,4.952
		c-5.515,7.983-11.209,15.669-20.6,19.829C211.513,298.182,204.019,302.058,196.846,301.883z M244.001,238.114
		c-0.549-3.985-0.571-7.506-1.571-10.723c-2.541-8.172-5.675-16.049-11.784-22.478c-5.483-5.77-9.87-12.803-18.63-14.235
		c-0.384-0.063-0.82-0.316-1.069-0.615c-3.951-4.764-9.748-4.781-15.08-5.559c-10.318-1.506-20.305,0.75-30.078,3.817
		c-3.621,1.137-7.145,2.763-10.476,4.597c-3.244,1.786-6.214,4.082-9.25,6.231c-2.515,1.78-5.739,3.183-7.251,5.619
		c-2.988,4.813-5.621,10.039-7.293,15.438c-2.745,8.864-2.604,18.109-1.256,27.252c1.349,9.151,3.559,18.359,10.039,25.123
		c11.076,11.562,23.306,21.676,40.242,23.654c4.077,0.477,8.012,2.583,12.066,2.769c13.974,0.64,25.652-5.186,36.01-14.047
		c1.198-1.024,2.105-2.512,2.825-3.947c1.672-3.338,3.092-6.801,4.718-10.164c1.538-3.182,4.006-6.144,4.657-9.477
		C242.349,253.541,243.037,245.547,244.001,238.114z"/>
	<path fill-rule="evenodd" clip-rule="evenodd" d="M318.222,277.906c-9.986,0.352-18.668-3.47-27.183-7.796
		c-8.415-4.274-15.055-10.871-18.892-19.157c-3.017-6.514-5.237-13.657-6.087-21.123c-0.714-6.266-1.665-12.472-2.046-18.806
		c-0.441-7.325,0.991-13.877,5.082-19.829c2.767-4.027,5.838-7.845,8.793-11.74c0.374-0.491,0.815-1.184,1.321-1.279
		c3.734-0.704,5.026-4.033,7.237-6.421c6.555-7.079,14.363-11.925,24.183-12.973c1.037-0.11,2.177-0.015,3.089-0.421
		c6.234-2.77,12.53-0.458,18.337,0.79c8.485,1.825,16.477,5.714,22.944,12.039c10.209,9.984,18.128,21.275,19.85,35.843
		c0.902,7.634,1.092,15.243-2.487,22.613c-2.108,4.344-2.685,9.404-4.411,13.967c-4.177,11.032-12.243,18.744-22.2,24.558
		c-4.923,2.875-9.973,5.698-15.288,7.685C326.659,277.281,322.322,277.274,318.222,277.906z M318.178,274.371
		c8.998-0.1,22.297-4.704,29.02-9.963c13.17-10.3,21.29-23.659,24.3-40.15c2.421-13.269,0.741-25.782-6.524-37.307
		c-5.123-8.126-11.774-14.651-19.863-19.974c-8.302-5.462-18.068-4.167-26.914-6.898c-0.167-0.052-0.394,0.108-0.597,0.142
		c-2.665,0.448-5.454,0.537-7.974,1.407c-5.207,1.801-10.285,3.987-15.381,6.1c-0.611,0.254-1,1.039-1.502,1.569
		c-3.843,4.061-7.635,8.172-11.565,12.147c-1.285,1.299-3.201,2.017-4.356,3.395c-1.929,2.301-3.485,4.917-5.182,7.41
		c-3.601,5.288-6.042,10.851-5.032,17.531c1.144,7.569,2.083,15.173,2.982,22.777c1.365,11.535,5.132,21.762,15.094,28.772
		c0.498,0.351,0.906,0.883,1.239,1.404c1.958,3.075,4.807,4.779,8.268,5.727c2.003,0.548,3.953,1.341,5.865,2.167
		C306.062,273.225,312.226,274.958,318.178,274.371z"/>
	<path fill-rule="evenodd" clip-rule="evenodd" d="M187.413,493.426c0.739-2.025,1.856-5.923,3.573-9.538
		c1.512-3.186,8.187-3.778,10.73-1.337c1.348,1.294,2.782,2.507,4.236,3.684c3.839,3.108,4.999,7.354,2.122,11.278
		c-2.005,2.734-4.816,5.353-7.854,6.757C193.441,507.406,187.298,502.894,187.413,493.426z M190.295,494.17
		c-0.008,5.846,2.189,8.523,6.089,7.964c1.812-0.259,3.675-0.863,5.275-1.743c3.77-2.077,5.674-5.954,4.884-9.279
		c-0.571-2.413-6.167-6.996-8.949-7.076c-1.04-0.032-2.292,0.376-3.119,1.011C191.221,487.548,190.648,491.274,190.295,494.17z"/>
	<path fill-rule="evenodd" clip-rule="evenodd" d="M424.931,493.216c-0.427,0.289-0.911,0.52-1.272,0.873
		c-4.963,4.871-9.372,4.168-12.551-2.016c-3.512-6.832-1.188-14.838,5.357-18.45c1.867-1.031,6.225,0.905,7.938,3.62
		c2.692,4.263,2.742,8.795,1.217,13.456c-0.285,0.869-0.535,1.752-0.798,2.623C424.827,493.317,424.931,493.216,424.931,493.216z
		 M420.918,477.4c-1.01,0.23-2.165,0.849-2.57,0.525c-2.133-1.704-3.149,0.059-4.008,1.302c-2.241,3.237-2.199,6.953-0.966,10.436
		c0.603,1.704,2.377,4.089,3.723,4.156c1.723,0.087,4.061-1.462,5.223-2.996C424.789,487.56,423.893,481.368,420.918,477.4z"/>
	<path fill-rule="evenodd" clip-rule="evenodd" fill="#FFFFFF" d="M359.528,516.91c1.086,13.551,3.098,26.429,2.827,39.26
		c-0.203,9.629-3.176,19.229-5.251,28.767c-0.826,3.796-4.286,5.738-7.325,7.8c-2.752,1.866-5.351,3.986-8.225,5.634
		c-1.744,1-3.851,1.431-5.844,1.912c-4.049,0.975-8.113,1.916-12.209,2.649c-1.485,0.264-3.086-0.084-4.631-0.188
		c-2.133-0.144-4.265-0.327-6.398-0.478c-0.201-0.016-0.445,0.166-0.608,0.102c-5.42-2.099-11.043-3.814-16.177-6.473
		c-3.726-1.93-6.922-4.974-10.14-7.768c-6.713-5.833-12.26-12.015-12.089-22.072c0.125-7.342-1.765-14.717-2.754-22.078
		c-0.056-0.411-0.133-0.825-0.147-1.239c-0.218-6.357-0.512-12.714-0.613-19.071c-0.094-5.902,1.021-7.159,6.91-6.961
		c4.132,0.14,8.24,1,12.359,1.536c0.723,0.097,1.444,0.271,2.167,0.271c14.552,0.007,29.107,0.172,43.654-0.081
		C343.118,518.291,351.193,517.45,359.528,516.91z M320.655,525.219c-2.065,0.272-3.722,0.427-5.354,0.716
		c-8.269,1.463-19.508,7.762-20.698,18.864c-0.154,1.436-0.305,2.968-0.9,4.249c-3.174,6.823-2.584,13.702,0.147,20.317
		c2.127,5.152,4.024,11.188,7.949,14.646c8.049,7.093,17.634,10.688,28.867,6.42c11.313-4.296,20.358-16.874,18.715-28.031
		c-1.604-10.889-5.471-20.985-13.404-28.993C331.674,529.066,326.671,525.758,320.655,525.219z"/>
	<path fill-rule="evenodd" clip-rule="evenodd" fill="#FFFFFF" d="M209.168,441.972c6.8-0.353,13.468-0.482,20.088-1.107
		c5.414-0.512,10.249-2.793,14.228-6.581c1.879-1.789,3.77-2.008,6.271-1.389c8.866,2.199,17.917,3.006,27.009,2.12
		c5.532-0.54,9.979-2.993,11.402-9.02c0.188-0.801,0.576-1.556,0.886-2.324c0.027-0.072,0.162-0.101,0.501-0.294
		c0.314,0.563,0.736,1.098,0.932,1.705c1.687,5.237,5.399,7.919,10.711,8.742c10.361,1.606,20.568,0.768,30.041-3.601
		c3.941-1.817,6.53-2.298,10.078,0.431c1.871,1.439,4.832,1.793,7.35,1.985c4.56,0.348,9.163,0.392,13.737,0.235
		c8.563-0.29,13.321-5.473,15.313-13.217c1.263-4.911,1.775-10.042,2.27-15.108c0.251-2.565,1.343-3.504,4.402-3.511
		c-0.565,3.756-0.959,7.414-1.687,11.003c-2.036,10.051-6.097,19.191-12.508,27.27c-1.718,2.167-3.65,2.919-6.416,2.758
		c-3.733-0.213-7.528-0.144-11.241,0.284c-4.041,0.465-4.799,1.187-9.906,6.058c-5.662-8.606-14.287-7.877-22.712-6.665
		c-5.849,0.84-11.563,2.672-17.295,4.223c-3.737,1.011-4.917,2.653-5.123,6.665c-0.114,2.24-0.02,4.493-0.02,7.529
		c-4.526-4.315-9.505-6.1-14.798-6.339c-3.975-0.181-8.003,0.688-12,1.156c-1.226,0.144-2.418,0.669-3.642,0.742
		c-5.704,0.343-10.486,2.62-14.257,6.855c-1.27,1.426-2.455,1.92-4.32,1.414c-14.325-3.878-27.18-10.464-38.18-20.513
		c-0.382-0.35-0.703-0.771-1.018-1.184C209.157,442.157,209.158,441.936,209.168,441.972z"/>
	<path fill-rule="evenodd" clip-rule="evenodd" fill="#FFFFFF" d="M339.369,408.389c-1.118,5.844-2.055,11.533-4.738,16.748
		c-0.38,0.739-1.369,1.447-2.197,1.631c-7.779,1.724-15.155,5.483-23.403,4.852c-2.793-0.213-5.597-0.542-8.345-1.086
		c-3.216-0.638-5.925-2.302-6.872-5.619c-0.874-3.065-1.37-6.252-1.815-9.416c-0.089-0.624,0.723-1.907,1.27-2.002
		c4.049-0.695,8.13-1.215,12.214-1.698c10.746-1.272,21.498-2.498,32.25-3.728C338.021,408.038,338.33,408.18,339.369,408.389z"/>
	<path fill-rule="evenodd" clip-rule="evenodd" fill="#FFFFFF" d="M377.001,403.154c0.137,7.616-0.908,15.155-5.302,21.8
		c-2.001,3.026-4.94,4.922-8.914,4.874c-4.474-0.052-9.021,0.716-13.405,0.144c-3.359-0.438-6.576-2.284-9.718-3.794
		c-0.611-0.294-0.979-1.996-0.792-2.914c0.967-4.774,1.979-9.555,3.397-14.206c0.297-0.979,2.303-1.892,3.607-2.032
		c5.588-0.602,11.229-0.717,16.81-1.375C367.399,405.097,372.054,404.038,377.001,403.154z"/>
	<path fill-rule="evenodd" clip-rule="evenodd" fill="#FFFFFF" d="M244.363,429.917c-2.994,2.104-5.609,4.186-8.463,5.857
		c-1.646,0.965-3.655,1.364-5.544,1.848c-2.185,0.561-4.4,1.105-6.636,1.327c-1.53,0.152-3.32,0.15-4.632-0.505
		c-2.068-1.036-3.856-1.708-6.18-0.747c-2.623,1.086-4.8-0.17-6.186-2.339c-3.605-5.644-4.213-12.239-6.147-18.913
		c12.051,2.692,23.646,3.059,35.292,2.354c1.97-0.121,3.048,0.48,3.877,2.251C241.105,423.96,242.701,426.758,244.363,429.917z"/>
	<path fill-rule="evenodd" clip-rule="evenodd" fill="#FFFFFF" d="M289.125,413.937c-0.885,3.231-1.456,6.112-2.462,8.833
		c-2.755,7.454-5.23,9.466-13.21,9.134c-7.876-0.328-15.727-1.455-23.564-2.433c-1.141-0.144-2.426-1.206-3.151-2.203
		c-1.818-2.498-3.352-5.203-4.92-7.7c4.997-3.092,10.479-2.939,15.919-3.285c9.459-0.599,18.903-1.458,28.354-2.205
		C286.789,414.024,287.492,414.013,289.125,413.937z"/>
	<path fill-rule="evenodd" clip-rule="evenodd" fill="#FFFFFF" d="M340.69,454.321c-13.53,2.181-26.799,4.319-40.467,6.521
		c0-3.269-0.314-5.9,0.127-8.396c0.234-1.324,1.572-3.156,2.767-3.49c7.41-2.074,14.844-4.331,22.429-5.408
		c4.279-0.607,8.957,0.738,12.417,4.067C339.908,449.486,340.899,451.824,340.69,454.321z"/>
	<path fill-rule="evenodd" clip-rule="evenodd" fill="#FFFFFF" d="M254.635,464.974c7.551-8.55,31.09-11.654,39.414-3.063
		C281.042,464.974,268.106,465.913,254.635,464.974z"/>
	<path fill-rule="evenodd" clip-rule="evenodd" fill="#FFFFFF" d="M203.679,437.022c-3.501-0.238-5.636-2.947-6.972-6.18
		c-1.356-3.281-2.632-6.729-3.075-10.217c-0.388-3.066,1.278-4.163,3.706-4.079C199.516,423.58,201.629,430.404,203.679,437.022z"/>
	<path fill-rule="evenodd" clip-rule="evenodd" fill="#FFFFFF" d="M344.744,453.69c0.624-5.365,3.116-7.734,8-8.019
		c3.288-0.19,6.562-0.626,9.973-0.966C360.528,449.432,350.525,455.178,344.744,453.69z"/>
	<path fill-rule="evenodd" clip-rule="evenodd" fill="#FFFFFF" d="M244.001,238.114c-0.964,7.433-1.652,15.427-3.182,23.257
		c-0.651,3.333-3.119,6.295-4.657,9.477c-1.625,3.363-3.046,6.826-4.718,10.164c-0.719,1.435-1.627,2.923-2.825,3.947
		c-10.357,8.861-22.036,14.687-36.01,14.047c-4.054-0.186-7.989-2.292-12.066-2.769c-16.936-1.979-29.166-12.092-40.242-23.654
		c-6.48-6.764-8.69-15.972-10.039-25.123c-1.348-9.144-1.489-18.389,1.256-27.252c1.672-5.399,4.305-10.625,7.293-15.438
		c1.513-2.437,4.737-3.839,7.251-5.619c3.036-2.149,6.005-4.445,9.25-6.231c3.331-1.833,6.854-3.459,10.476-4.597
		c9.773-3.068,19.76-5.323,30.078-3.817c5.332,0.778,11.128,0.795,15.08,5.559c0.249,0.299,0.685,0.552,1.069,0.615
		c8.76,1.432,13.147,8.465,18.63,14.235c6.109,6.428,9.244,14.306,11.784,22.478C243.43,230.607,243.452,234.129,244.001,238.114z
		 M191.108,230.521c-0.095,0.299-0.189,0.597-0.284,0.895c-12.145-0.603-20.071,7.718-21.498,15.445
		c-3.133,16.966,9.002,26.293,23.562,25.38c14.48-0.908,20.874-10.264,21.093-24.874c0.027-1.819-1.478-3.818-2.657-5.456
		c-1.274-1.77-3.013-3.202-4.521-4.807c-0.659-0.703-1.108-1.871-1.891-2.144C200.35,233.369,195.717,231.979,191.108,230.521z"/>
	<path fill-rule="evenodd" clip-rule="evenodd" fill="#FFFFFF" d="M318.178,274.371c-5.952,0.587-12.116-1.146-18.123-3.742
		c-1.912-0.826-3.862-1.619-5.865-2.167c-3.461-0.948-6.311-2.652-8.268-5.727c-0.333-0.521-0.741-1.054-1.239-1.404
		c-9.962-7.011-13.729-17.238-15.094-28.772c-0.9-7.604-1.839-15.208-2.982-22.777c-1.01-6.681,1.432-12.243,5.032-17.531
		c1.697-2.494,3.253-5.109,5.182-7.41c1.155-1.378,3.071-2.096,4.356-3.395c3.931-3.975,7.722-8.086,11.565-12.147
		c0.501-0.53,0.891-1.314,1.502-1.569c5.096-2.113,10.174-4.299,15.381-6.1c2.52-0.871,5.309-0.959,7.974-1.407
		c0.203-0.034,0.43-0.194,0.597-0.142c8.846,2.731,18.612,1.436,26.914,6.898c8.089,5.323,14.74,11.848,19.863,19.974
		c7.266,11.525,8.945,24.039,6.524,37.307c-3.01,16.491-11.13,29.85-24.3,40.15C340.475,269.667,327.176,274.271,318.178,274.371z
		 M319.693,206.367c-1.147,0-2.318-0.146-3.44,0.024c-5.416,0.824-10.474,2.519-13.039,7.858
		c-2.651,5.521-4.135,11.452-3.192,17.589c0.845,5.501,3.199,10.782,8.089,13.534c5.532,3.112,11.887,4.912,18.368,4.178
		c6.196-0.701,12.531-2.238,14.803-9.111c1.446-4.375,2.416-9.127,2.388-13.704c-0.026-4.436-0.684-9.363-6.082-11.315
		c-0.345-0.124-0.641-0.551-0.833-0.905C333.038,207.676,326.574,206.542,319.693,206.367z"/>
	<path fill-rule="evenodd" clip-rule="evenodd" fill="#FFFFFF" d="M190.295,494.17c0.353-2.896,0.926-6.622,4.181-9.124
		c0.827-0.635,2.079-1.043,3.119-1.011c2.781,0.08,8.377,4.663,8.949,7.076c0.79,3.325-1.115,7.202-4.884,9.279
		c-1.6,0.88-3.463,1.484-5.275,1.743C192.484,502.694,190.287,500.016,190.295,494.17z"/>
	<path fill-rule="evenodd" clip-rule="evenodd" fill="#FFFFFF" d="M420.918,477.4c2.975,3.968,3.871,10.16,1.401,13.423
		c-1.162,1.534-3.5,3.083-5.223,2.996c-1.346-0.067-3.12-2.452-3.723-4.156c-1.233-3.482-1.275-7.198,0.966-10.436
		c0.858-1.243,1.875-3.006,4.008-1.302C418.753,478.249,419.908,477.63,420.918,477.4z"/>
	<path fill-rule="evenodd" clip-rule="evenodd" d="M320.655,525.219c6.017,0.539,11.02,3.847,15.322,8.188
		c7.934,8.008,11.8,18.104,13.404,28.993c1.644,11.157-7.402,23.735-18.715,28.031c-11.233,4.269-20.818,0.673-28.867-6.42
		c-3.924-3.458-5.821-9.494-7.949-14.646c-2.732-6.615-3.322-13.494-0.147-20.317c0.595-1.281,0.747-2.813,0.9-4.249
		c1.189-11.103,12.429-17.401,20.698-18.864C316.933,525.646,318.589,525.492,320.655,525.219z M345.79,564.594
		c0.847-8.035-2.509-14.962-5.925-21.499c-3.945-7.554-9.443-14.076-19.48-13.316c-0.51,0.037-1.054-0.04-1.548-0.18
		c-4.128-1.168-7.892-0.028-11.377,2.04c-4.516,2.682-8.785,5.643-9.784,11.432c-0.705,4.087-1.749,8.116-2.36,12.215
		c-0.363,2.432-0.843,5.162-0.115,7.378c1.976,6.012,4.468,11.865,6.993,17.68c0.563,1.292,1.981,2.335,3.219,3.18
		c1.564,1.069,3.316,1.886,5.044,2.69c2.371,1.102,4.719,2.385,7.221,3.032c1.855,0.483,3.959,0.257,5.918,0.046
		c5.813-0.626,11.979-2.062,15.349-6.649C342.739,577.479,347.107,571.824,345.79,564.594z"/>
	<path fill-rule="evenodd" clip-rule="evenodd" d="M191.108,230.521c4.609,1.458,9.242,2.848,13.803,4.44
		c0.783,0.273,1.232,1.441,1.891,2.144c1.508,1.605,3.247,3.037,4.521,4.807c1.179,1.638,2.684,3.637,2.657,5.456
		c-0.219,14.61-6.612,23.966-21.093,24.874c-14.56,0.913-26.694-8.414-23.562-25.38c1.427-7.727,9.353-16.048,21.498-15.445
		C190.919,231.118,191.013,230.82,191.108,230.521z M190.895,234.611c-8.008-0.885-13.944,3.319-18.021,10.554
		c-0.872,1.546-1.379,3.596-1.248,5.353c0.351,4.688,0.279,9.635,4.45,13.082c0.469,0.388,0.694,1.072,1.166,1.455
		c1.22,0.99,2.389,2.326,3.806,2.729c2.77,0.791,5.683,1.125,8.558,1.486c1.811,0.229,3.75,0.563,5.471,0.163
		c7.557-1.761,12.972-6.285,15.188-13.776c0.928-3.133,1.906-7.507,0.468-9.848C206.538,238.978,200.459,234.077,190.895,234.611z"
		/>
	<path fill-rule="evenodd" clip-rule="evenodd" d="M319.693,206.367c6.882,0.175,13.346,1.31,17.061,8.149
		c0.192,0.354,0.488,0.781,0.833,0.905c5.398,1.952,6.056,6.879,6.082,11.315c0.028,4.576-0.941,9.329-2.388,13.704
		c-2.271,6.873-8.606,8.41-14.803,9.111c-6.481,0.734-12.836-1.066-18.368-4.178c-4.89-2.751-7.244-8.032-8.089-13.534
		c-0.942-6.137,0.541-12.068,3.192-17.589c2.565-5.34,7.623-7.035,13.039-7.858C317.374,206.221,318.545,206.367,319.693,206.367z
		 M303.02,229.05c0.343,1.557,0.54,4.57,1.711,7.141c1.101,2.421,2.803,5.464,4.987,6.315c4.959,1.931,10.328,3.327,15.623,3.729
		c5.094,0.387,10.489-0.745,12.843-6.324c1.428-3.391,2.497-7.094,2.817-10.739c0.252-2.85-0.153-6.283-1.604-8.628
		c-1.854-2.995-4.988-5.231-7.704-7.644c-1.05-0.932-2.391-1.697-3.73-2.101c-2.172-0.655-4.488-0.813-6.678-1.422
		c-5.288-1.472-9.696,0.084-13.3,3.92C304.217,217.305,303.237,222.385,303.02,229.05z"/>
	<path fill-rule="evenodd" clip-rule="evenodd" fill="#FFFFFF" d="M345.79,564.594c1.316,7.229-3.052,12.885-6.846,18.048
		c-3.37,4.588-9.535,6.023-15.349,6.649c-1.959,0.211-4.063,0.438-5.918-0.046c-2.502-0.647-4.85-1.931-7.221-3.032
		c-1.728-0.805-3.479-1.621-5.044-2.69c-1.237-0.845-2.656-1.888-3.219-3.18c-2.525-5.814-5.017-11.668-6.993-17.68
		c-0.728-2.216-0.248-4.946,0.115-7.378c0.611-4.099,1.655-8.128,2.36-12.215c0.999-5.789,5.268-8.75,9.784-11.432
		c3.485-2.068,7.249-3.208,11.377-2.04c0.494,0.14,1.038,0.217,1.548,0.18c10.037-0.76,15.535,5.763,19.48,13.316
		C343.281,549.632,346.637,556.559,345.79,564.594z M319.747,531.56c-3.688,4.552-6.653,8.767-10.195,12.427
		c-3.445,3.56-7.738,6.303-11.179,9.864c-2.849,2.951-2.158,5.455,1.181,7.8c1.608,1.13,3.416,2.146,4.636,3.624
		c4.682,5.666,9.155,11.503,13.724,17.264c0.58,0.731,1.196,1.455,1.893,2.07c3.995,3.545,5.886,3.068,8.133-1.745
		c1.348-2.886,2.821-5.74,4.537-8.42c2.109-3.295,4.559-6.369,6.797-9.585c0.762-1.094,1.189-2.43,1.996-3.481
		c3.008-3.929,3.064-3.917,0.102-8.149c-0.708-1.013-1.599-1.9-2.414-2.838c-3.061-3.521-5.922-7.244-9.243-10.5
		C326.516,536.76,322.843,534.117,319.747,531.56z"/>
	<path fill-rule="evenodd" clip-rule="evenodd" fill="#FFFFFF" d="M190.895,234.611c9.564-0.534,15.643,4.367,19.838,11.198
		c1.438,2.341,0.459,6.714-0.468,9.848c-2.216,7.491-7.632,12.015-15.188,13.776c-1.721,0.401-3.661,0.066-5.471-0.163
		c-2.875-0.361-5.788-0.695-8.558-1.486c-1.417-0.404-2.586-1.74-3.806-2.729c-0.472-0.382-0.697-1.067-1.166-1.455
		c-4.17-3.447-4.099-8.395-4.45-13.082c-0.132-1.757,0.376-3.806,1.248-5.353C176.951,237.93,182.886,233.727,190.895,234.611z"/>
	<path fill-rule="evenodd" clip-rule="evenodd" fill="#FFFFFF" d="M303.02,229.05c0.217-6.665,1.197-11.745,4.965-15.753
		c3.604-3.835,8.012-5.392,13.3-3.92c2.189,0.609,4.506,0.767,6.678,1.422c1.34,0.404,2.681,1.169,3.73,2.101
		c2.716,2.413,5.851,4.649,7.704,7.644c1.451,2.345,1.856,5.778,1.604,8.628c-0.32,3.645-1.39,7.348-2.817,10.739
		c-2.354,5.58-7.749,6.711-12.843,6.324c-5.295-0.402-10.664-1.798-15.623-3.729c-2.185-0.852-3.887-3.895-4.987-6.315
		C303.56,233.62,303.363,230.607,303.02,229.05z"/>
	<path fill-rule="evenodd" clip-rule="evenodd" d="M319.747,531.56c3.096,2.557,6.769,5.2,9.966,8.33
		c3.321,3.256,6.183,6.979,9.243,10.5c0.815,0.938,1.706,1.825,2.414,2.838c2.963,4.232,2.906,4.221-0.102,8.149
		c-0.807,1.052-1.234,2.388-1.996,3.481c-2.238,3.216-4.688,6.29-6.797,9.585c-1.716,2.68-3.189,5.534-4.537,8.42
		c-2.247,4.813-4.138,5.29-8.133,1.745c-0.696-0.615-1.313-1.339-1.893-2.07c-4.568-5.761-9.042-11.598-13.724-17.264
		c-1.22-1.478-3.027-2.494-4.636-3.624c-3.339-2.345-4.03-4.849-1.181-7.8c3.44-3.562,7.733-6.305,11.179-9.864
		C313.094,540.327,316.06,536.112,319.747,531.56z M330.235,560.353c-0.287,1.104-0.443,1.813-0.657,2.507
		c-1.251,4.053-4.495,6.812-8.258,7.034c-3.972,0.236-7.569-2.155-9.094-6.333c-0.74-2.027-1.263-4.18-1.535-6.32
		c-0.592-4.637,0.983-7.402,4.975-9.314c2.481-1.19,10.043-0.18,11.428,2.104c2.605,4.299,6.731,3.462,11.087,4.359
		c-5.47-6.122-10.477-11.728-15.484-17.332c-0.067-0.075-0.156-0.142-0.247-0.185c-1.53-0.77-2.721-0.856-3.968,0.805
		c-1.804,2.399-3.887,4.617-6.029,6.729c-4.216,4.161-8.557,8.196-12.635,12.081c8.206,9.368,16.017,18.286,23.913,27.301
		c4.868-7.745,9.384-14.929,14.092-22.418C334.947,560.986,332.721,560.687,330.235,560.353z M336.191,557.829
		c0.036-0.178,0.073-0.355,0.109-0.534c-1.756-0.347-3.549-1.095-5.259-0.936c-2.068,0.19-2.893-1.002-4.285-2.015
		c-2.327-1.692-5.106-3.21-7.892-3.716c-3.292-0.6-4.722,1.175-4.681,4.514c0.023,1.761,0.133,3.539,0.399,5.279
		c0.667,4.334,3.134,6.357,7.354,6.426c4.366,0.071,3.561-3.446,4.276-5.928c0.058-0.196,0.04-0.413,0.072-0.617
		c0.314-1.952,1.043-3.278,3.439-2.937C331.86,557.67,334.034,557.685,336.191,557.829z"/>
	<path fill-rule="evenodd" clip-rule="evenodd" fill="#FFFFFF" d="M330.235,560.353c2.486,0.334,4.712,0.633,7.587,1.019
		c-4.708,7.489-9.224,14.673-14.092,22.418c-7.896-9.015-15.707-17.933-23.913-27.301c4.078-3.885,8.419-7.92,12.635-12.081
		c2.143-2.112,4.226-4.33,6.029-6.729c1.247-1.661,2.438-1.574,3.968-0.805c0.091,0.043,0.18,0.109,0.247,0.185
		c5.008,5.604,10.015,11.21,15.484,17.332c-4.355-0.897-8.481-0.061-11.087-4.359c-1.385-2.284-8.946-3.295-11.428-2.104
		c-3.991,1.912-5.566,4.678-4.975,9.314c0.272,2.141,0.795,4.293,1.535,6.32c1.524,4.178,5.122,6.569,9.094,6.333
		c3.763-0.223,7.007-2.981,8.258-7.034C329.791,562.167,329.948,561.457,330.235,560.353z"/>
	<path fill-rule="evenodd" clip-rule="evenodd" fill="#FFFFFF" d="M336.191,557.829c-2.156-0.144-4.331-0.158-6.466-0.463
		c-2.396-0.342-3.125,0.984-3.439,2.937c-0.032,0.204-0.015,0.421-0.072,0.617c-0.716,2.481,0.09,5.999-4.276,5.928
		c-4.22-0.068-6.687-2.092-7.354-6.426c-0.267-1.74-0.376-3.519-0.399-5.279c-0.041-3.339,1.389-5.113,4.681-4.514
		c2.785,0.506,5.564,2.023,7.892,3.716c1.393,1.013,2.217,2.205,4.285,2.015c1.71-0.159,3.503,0.589,5.259,0.936
		C336.264,557.473,336.227,557.651,336.191,557.829z"/>
</g>
</svg>
