<?xml version="1.0" encoding="utf-8"?>
<!-- Generator: Adobe Illustrator 16.0.0, SVG Export Plug-In . SVG Version: 6.00 Build 0)  -->
<!DOCTYPE svg PUBLIC "-//W3C//DTD SVG 1.1//EN" "http://www.w3.org/Graphics/SVG/1.1/DTD/svg11.dtd">
<svg version="1.1" id="Layer_1" xmlns="http://www.w3.org/2000/svg" xmlns:xlink="http://www.w3.org/1999/xlink" x="0px" y="0px"
	 width="300px" height="100px" viewBox="0 50 300 100" enable-background="new 0 50 300 100" xml:space="preserve">
<g>
	<path d="M112.867,76.494c-0.107-0.179-0.161-0.438-0.161-0.777l-0.027-3.966c-0.018-0.339-0.026-0.902-0.026-1.689
		c-0.036-1.662-0.054-3.538-0.054-5.628v-1.367c-0.161,0.858-0.438,2.064-0.831,3.618c-0.393,1.608-0.67,2.931-0.831,3.967v0.161
		l-0.081,0.509c-0.036,0.394-0.125,0.795-0.268,1.206c-0.179,0.429-0.456,0.644-0.831,0.644c-0.643,0-0.965-0.84-0.965-2.52
		c0-0.929-0.094-1.925-0.281-2.988s-0.487-2.372-0.898-3.927l-0.804-3.001l-0.053,3.216c0,0.965,0.044,2.806,0.134,5.521
		l0.054,1.822l0.054,3.672c0,0.375-0.134,0.715-0.402,1.019c-0.447,0-0.755-0.138-0.924-0.415c-0.17-0.277-0.255-0.684-0.255-1.22
		l0.054-2.198c0.054-0.965,0.081-1.688,0.081-2.171l-0.054-5.173l-0.054-5.2c0-0.768,0.018-1.92,0.054-3.458l0.724-0.429
		c0.143,0.018,0.286,0.121,0.429,0.308s0.304,0.487,0.482,0.898c0.446,1.108,1.027,3.324,1.742,6.647
		c0.107,0.465,0.178,0.849,0.214,1.152c0.214,1.037,0.366,1.823,0.456,2.359l0.402,2.063l0.188-0.884l0.509-2.198
		c0.286-1.287,0.522-2.412,0.71-3.377c0.188-0.965,0.371-2.01,0.55-3.136c0.196-1.34,0.321-2.457,0.375-3.35v-0.161
		c0.036-0.232,0.143-0.416,0.322-0.55c0.178-0.134,0.393-0.201,0.643-0.201c0.161,0,0.304,0.071,0.429,0.214
		s0.188,0.295,0.188,0.456c0,2.144,0.08,5.352,0.241,9.622c0.089,2.09,0.151,4.137,0.188,6.138c0.036,0.911,0.054,2.063,0.054,3.458
		c0,0.411-0.107,0.777-0.322,1.099s-0.456,0.482-0.724,0.482C113.117,76.762,112.974,76.673,112.867,76.494z"/>
	<path d="M116.753,75.234c0-0.429,0.277-0.643,0.831-0.643h0.295l0.268,0.027c0.143,0,0.241-0.044,0.294-0.134
		c0.054-0.089,0.081-0.25,0.081-0.482c0-0.303-0.018-0.777-0.054-1.42c-0.053-0.429-0.116-1.197-0.188-2.305
		c-0.161-2.734-0.241-4.798-0.241-6.191c0-0.5,0.009-0.956,0.027-1.367l0.027-1.367c0-0.59-0.027-1.081-0.081-1.474
		c-0.286,0.072-0.492,0.107-0.616,0.107c-0.429,0-0.644-0.215-0.644-0.644c0-0.214,0.134-0.402,0.402-0.563
		c0.268-0.161,0.607-0.277,1.019-0.349c0.714-0.143,1.349-0.214,1.903-0.214c0.214,0,0.397,0.076,0.549,0.228
		c0.152,0.152,0.228,0.327,0.228,0.523c0,0.197-0.059,0.366-0.174,0.509c-0.117,0.143-0.264,0.214-0.442,0.214
		c-0.107,0-0.197-0.009-0.268-0.027h-0.214c-0.179,0-0.308,0.04-0.389,0.121c-0.08,0.081-0.121,0.228-0.121,0.442
		c0,1.733,0.107,4.342,0.322,7.826c0.036,0.643,0.107,1.59,0.214,2.841c0.089,0.822,0.134,1.662,0.134,2.52v1.019
		c0.107-0.018,0.286-0.027,0.536-0.027c0.75,0,1.126,0.313,1.126,0.938v0.161l-0.67,0.456c-0.018,0-0.076,0.005-0.174,0.014
		c-0.099,0.009-0.282,0.013-0.55,0.013c-0.572,0.036-0.938,0.054-1.099,0.054C117.53,76.039,116.753,75.771,116.753,75.234z"/>
	<path d="M123.467,76.092c-0.224-0.178-0.353-0.411-0.389-0.697l0.295-0.456c0.107,0,0.277,0.036,0.509,0.107
		c0.268,0.054,0.473,0.081,0.616,0.081c0.322,0,0.612-0.143,0.871-0.429s0.451-0.661,0.577-1.126
		c0.232-0.857,0.348-1.625,0.348-2.305c0-1.18-0.375-2.421-1.125-3.726l-0.295-0.509c-0.34-0.59-0.625-1.117-0.858-1.582
		c-0.232-0.464-0.429-0.965-0.589-1.501c-0.214-0.697-0.322-1.394-0.322-2.09c0-0.786,0.179-1.608,0.536-2.466
		c0.178-0.411,0.433-0.746,0.764-1.005c0.331-0.259,0.701-0.389,1.112-0.389c0.322,0,0.621,0.103,0.898,0.308
		c0.277,0.206,0.416,0.452,0.416,0.737c0,0.161-0.063,0.286-0.188,0.375c-0.125,0.089-0.277,0.134-0.456,0.134
		c-0.197,0-0.385-0.053-0.563-0.161c-0.393,0.018-0.706,0.366-0.938,1.045c-0.197,0.625-0.295,1.144-0.295,1.554
		c0,0.519,0.081,1.042,0.241,1.568s0.366,1.005,0.616,1.434l0.59,1.072l0.938,1.769c0.25,0.5,0.451,1.081,0.603,1.742
		c0.152,0.662,0.228,1.332,0.228,2.01c0,1.09-0.25,2.126-0.75,3.109c-0.25,0.5-0.603,0.902-1.059,1.206
		c-0.456,0.303-0.961,0.456-1.515,0.456v0.08C123.963,76.387,123.69,76.271,123.467,76.092z"/>
	<path d="M130.02,75.905c0.143-1.483,0.259-3.761,0.349-6.834c0.089-3.198,0.151-5.12,0.188-5.763v-0.643
		c0.071-1.751,0.107-2.966,0.107-3.645c0-0.25,0.103-0.447,0.309-0.59c0.205-0.143,0.442-0.214,0.71-0.214
		c0.625,0,1.295,0.054,2.01,0.161c0.464,0.072,0.835,0.188,1.112,0.349c0.277,0.161,0.416,0.357,0.416,0.589
		c0,0.5-0.456,0.75-1.367,0.75c-0.339-0.178-0.804-0.268-1.394-0.268h-0.322v0.322c0,0.697-0.036,1.582-0.107,2.653
		c-0.09,1.001-0.134,1.903-0.134,2.707v0.724h0.214h0.268c0.875,0,1.313,0.232,1.313,0.697c0,0.232-0.094,0.42-0.281,0.563
		c-0.188,0.143-0.416,0.214-0.684,0.214c-0.429,0-0.777-0.044-1.045-0.134v7.585c0,0.787-0.232,1.179-0.697,1.179
		C130.717,76.307,130.395,76.173,130.02,75.905z M136.05,75.234c0-0.429,0.277-0.643,0.831-0.643h0.295l0.268,0.027
		c0.143,0,0.241-0.044,0.294-0.134c0.054-0.089,0.081-0.25,0.081-0.482c0-0.303-0.018-0.777-0.054-1.42
		c-0.053-0.429-0.116-1.197-0.188-2.305c-0.161-2.734-0.241-4.798-0.241-6.191c0-0.5,0.009-0.956,0.027-1.367l0.027-1.367
		c0-0.59-0.027-1.081-0.081-1.474c-0.286,0.072-0.492,0.107-0.616,0.107c-0.429,0-0.644-0.215-0.644-0.644
		c0-0.214,0.134-0.402,0.402-0.563c0.268-0.161,0.607-0.277,1.019-0.349c0.714-0.143,1.349-0.214,1.903-0.214
		c0.214,0,0.397,0.076,0.549,0.228c0.152,0.152,0.228,0.327,0.228,0.523c0,0.197-0.059,0.366-0.174,0.509
		c-0.117,0.143-0.264,0.214-0.442,0.214c-0.107,0-0.197-0.009-0.268-0.027h-0.214c-0.179,0-0.308,0.04-0.389,0.121
		c-0.08,0.081-0.121,0.228-0.121,0.442c0,1.733,0.107,4.342,0.322,7.826c0.036,0.643,0.107,1.59,0.214,2.841
		c0.089,0.822,0.134,1.662,0.134,2.52v1.019c0.107-0.018,0.286-0.027,0.536-0.027c0.75,0,1.126,0.313,1.126,0.938v0.161l-0.67,0.456
		c-0.018,0-0.076,0.005-0.174,0.014c-0.099,0.009-0.282,0.013-0.55,0.013c-0.572,0.036-0.938,0.054-1.099,0.054
		C136.828,76.039,136.05,75.771,136.05,75.234z"/>
	<path d="M144.6,75.637l-0.027-1.045c-0.018-0.304-0.027-0.643-0.027-1.019l0.027-0.911c-0.053-0.196-0.188-2.153-0.402-5.87
		c-0.214-3.716-0.34-6.102-0.375-7.156c-1.036-0.036-1.697-0.143-1.983-0.322c-0.197-0.143-0.295-0.303-0.295-0.482
		c0-0.143,0.094-0.272,0.281-0.389c0.188-0.116,0.379-0.174,0.576-0.174c0.5,0,1.108,0.036,1.823,0.107
		c0.679,0.09,1.287,0.134,1.822,0.134h0.215h0.214c0.553,0,0.831,0.214,0.831,0.643c0,0.214-0.089,0.389-0.268,0.522
		c-0.179,0.134-0.384,0.201-0.616,0.201c-0.161,0-0.393-0.027-0.697-0.081l-0.536-0.107l-0.027,0.134l-0.027,0.134
		c0,1.59,0.152,4.127,0.456,7.612c0.286,3.27,0.429,5.807,0.429,7.612c0,0.214-0.094,0.402-0.282,0.563
		c-0.188,0.161-0.398,0.241-0.63,0.241L144.6,75.637z"/>
	<path d="M154.704,76.307c-0.285-0.161-0.429-0.349-0.429-0.563s0.054-0.389,0.161-0.522c0.107-0.134,0.259-0.201,0.456-0.201
		c0.178,0,0.438,0.072,0.777,0.214c0.375,0.144,0.606,0.215,0.696,0.215c0.339,0,0.647-0.147,0.925-0.442
		c0.276-0.295,0.496-0.684,0.656-1.166c0.322-0.893,0.482-1.697,0.482-2.412c0-0.768-0.12-1.577-0.361-2.426
		c-0.241-0.848-0.567-1.675-0.979-2.479l-0.429-0.858c-0.447-0.893-0.791-1.599-1.032-2.117c-0.241-0.518-0.451-1.081-0.63-1.688
		c-0.268-0.858-0.401-1.688-0.401-2.493c0-0.643,0.111-1.25,0.335-1.822c0.223-0.572,0.558-1.054,1.005-1.448
		c0.446-0.429,1-0.643,1.662-0.643c0.321,0,0.634,0.094,0.938,0.281c0.304,0.188,0.519,0.425,0.644,0.71l-0.456,0.563
		c-0.465,0-0.813-0.089-1.045-0.268c-0.321,0.036-0.604,0.192-0.845,0.469c-0.241,0.277-0.424,0.594-0.549,0.952
		c-0.107,0.34-0.161,0.679-0.161,1.019c0,0.679,0.094,1.372,0.281,2.077c0.188,0.706,0.434,1.372,0.737,1.997l1.876,3.752
		c0.304,0.643,0.545,1.367,0.724,2.171s0.269,1.608,0.269,2.412c0,1.179-0.286,2.288-0.858,3.324
		c-0.304,0.536-0.696,0.96-1.179,1.273s-1.019,0.469-1.608,0.469C155.723,76.655,155.169,76.539,154.704,76.307z"/>
	<path d="M164.594,75.637l-0.026-1.045c-0.019-0.304-0.027-0.643-0.027-1.019l0.027-0.911c-0.054-0.196-0.188-2.153-0.402-5.87
		c-0.215-3.716-0.34-6.102-0.375-7.156c-1.037-0.036-1.698-0.143-1.983-0.322c-0.197-0.143-0.295-0.303-0.295-0.482
		c0-0.143,0.094-0.272,0.281-0.389c0.188-0.116,0.38-0.174,0.576-0.174c0.5,0,1.107,0.036,1.822,0.107
		c0.68,0.09,1.287,0.134,1.823,0.134h0.214h0.215c0.554,0,0.831,0.214,0.831,0.643c0,0.214-0.09,0.389-0.269,0.522
		c-0.179,0.134-0.384,0.201-0.616,0.201c-0.161,0-0.394-0.027-0.697-0.081l-0.536-0.107l-0.026,0.134l-0.026,0.134
		c0,1.59,0.151,4.127,0.455,7.612c0.286,3.27,0.429,5.807,0.429,7.612c0,0.214-0.094,0.402-0.281,0.563
		c-0.188,0.161-0.397,0.241-0.63,0.241L164.594,75.637z"/>
	<path d="M171.401,75.851c0.196-0.375,0.295-1.894,0.295-4.557c0-0.625-0.045-1.304-0.134-2.037l-0.08-0.777
		c-0.054-0.482-0.081-0.849-0.081-1.099v-0.697c-0.179-0.446-0.505-1.277-0.979-2.493c-0.474-1.215-0.854-2.233-1.139-3.055
		c-0.34-0.947-0.509-1.59-0.509-1.93v-0.134l0.616-0.456c0.304,0.036,0.625,0.429,0.965,1.179c0.285,0.662,0.603,1.608,0.951,2.841
		s0.522,1.885,0.522,1.957c0.071-0.196,0.215-0.867,0.429-2.01c0.215-1.143,0.456-2.153,0.724-3.029
		c0.304-0.875,0.617-1.313,0.938-1.313c0.179,0,0.335,0.053,0.469,0.161c0.135,0.107,0.201,0.241,0.201,0.402
		c0,0.912-0.25,2.198-0.75,3.86c-0.536,1.805-0.805,3.109-0.805,3.913v8.067c0,1.197-0.295,1.795-0.884,1.795
		C171.848,76.44,171.598,76.244,171.401,75.851z"/>
	<path d="M179.281,76.173c-0.286,0.178-0.59,0.268-0.911,0.268c-0.215,0-0.397-0.094-0.55-0.281
		c-0.151-0.188-0.228-0.389-0.228-0.603c0-1.501,0.063-3.502,0.188-6.003c0.107-2.663,0.161-4.655,0.161-5.977v-0.188
		c-0.107-1.126-0.161-1.965-0.161-2.52c0-1.697,0.313-2.546,0.938-2.546c0.178,0,0.335,0.067,0.469,0.201
		c0.134,0.134,0.201,0.291,0.201,0.469c0,0.214-0.027,0.554-0.08,1.018c-0.054,0.447-0.081,0.787-0.081,1.019
		c0,1.197,0.009,2.278,0.027,3.243c0.018,0.947,0.026,2.02,0.026,3.216c-0.09,0.268-0.134,0.643-0.134,1.125v0.322l-0.054,2.117
		c-0.036,0.626-0.054,1.34-0.054,2.145c0,1.233,0.295,1.849,0.885,1.849c0.035,0,0.094-0.004,0.174-0.013
		c0.081-0.009,0.192-0.014,0.335-0.014c0.161-0.018,0.366-0.027,0.617-0.027c0.965,0,1.447,0.268,1.447,0.804
		c0,0.179-0.081,0.331-0.241,0.456c-0.161,0.125-0.358,0.205-0.59,0.241C181.023,76.28,180.229,76.173,179.281,76.173z"/>
	<path d="M185.325,76.173c-0.188-0.161-0.291-0.357-0.309-0.59v-0.697V74.35c-0.018-0.161-0.026-0.349-0.026-0.563
		c0-0.375-0.027-0.947-0.081-1.715l-0.054-1.715c0-0.875,0.027-2.18,0.081-3.913c0.071-1.554,0.107-2.858,0.107-3.913
		c0-0.25-0.027-0.625-0.081-1.125c-0.054-0.518-0.08-0.894-0.08-1.126c0-1.268,0.375-1.903,1.126-1.903
		c0.589,0,1.272,0.117,2.05,0.349c0.777,0.232,1.166,0.509,1.166,0.831c0,0.179-0.076,0.344-0.228,0.496
		c-0.152,0.152-0.335,0.272-0.55,0.362c-0.75-0.268-1.43-0.446-2.037-0.536c0.018,0.268,0.027,0.652,0.027,1.152
		c0,0.715-0.01,1.358-0.027,1.93c-0.054,0.858-0.08,1.501-0.08,1.93l0.08,0.429l0.429-0.027c0.144-0.018,0.322-0.027,0.536-0.027
		c0.858,0,1.287,0.25,1.287,0.75c0,0.197-0.081,0.362-0.241,0.496c-0.161,0.134-0.367,0.201-0.617,0.201
		c-0.321,0-0.571-0.018-0.75-0.054h-0.67c0.035,0.465,0.054,1.144,0.054,2.037c0,0.894-0.01,1.698-0.027,2.412
		c-0.054,1.09-0.08,1.903-0.08,2.439c0,1.001,0.018,1.501,0.054,1.501l0.884-0.027c0.304-0.018,0.671-0.027,1.1-0.027
		c0.679,0,1.019,0.214,1.019,0.644c0,0.25-0.112,0.442-0.335,0.576c-0.224,0.134-0.496,0.201-0.817,0.201h-2.278
		C185.723,76.414,185.513,76.333,185.325,76.173z"/>
	<path d="M192.735,78.585c-0.179,0-0.286-0.081-0.321-0.241v-0.161l0.643-0.804c0.232-0.322,0.384-0.617,0.456-0.885
		c0.018-0.054,0.026-0.134,0.026-0.241c0-0.107-0.009-0.188-0.026-0.241c-0.286,0-0.505-0.084-0.657-0.254
		c-0.151-0.17-0.254-0.433-0.308-0.791c-0.054-0.321,0.04-0.567,0.281-0.737c0.241-0.169,0.55-0.254,0.925-0.254
		c0.554,0,0.884,0.294,0.991,0.884c0.071,0.447-0.054,1.037-0.375,1.769s-0.732,1.331-1.232,1.795
		c-0.107,0.089-0.215,0.143-0.322,0.161H192.735z"/>
	<path d="M4.896,107.772l0.054-3.297l0.054-3.296c0-1.197-0.027-3.011-0.081-5.441c-0.054-2.412-0.08-4.226-0.08-5.441v-0.161
		c0-0.464,0.044-0.894,0.134-1.287c0.107-0.482,0.393-0.724,0.858-0.724c1.25,0,2.242,0.402,2.975,1.206
		c0.732,0.804,1.099,1.867,1.099,3.189c0,0.804-0.214,1.644-0.643,2.52c-0.429,0.875-0.938,1.528-1.528,1.957
		c1.036,0.697,1.8,1.595,2.292,2.693c0.491,1.1,0.737,2.31,0.737,3.632c0,0.626-0.214,1.403-0.643,2.331
		c-0.519,1.109-1.224,1.904-2.117,2.387c-0.536,0.268-1.126,0.401-1.769,0.401H6.129C5.308,108.442,4.896,108.219,4.896,107.772z
		 M7.577,95.443c0.268-0.5,0.518-1.107,0.75-1.822c0.054-0.197,0.143-0.447,0.268-0.75v-0.938c0-0.536-0.197-1.054-0.589-1.554
		c-0.394-0.5-0.84-0.75-1.34-0.75c-0.25,0-0.375,0.277-0.375,0.831c0,1.18,0.018,2.234,0.053,3.163l0.054,2.975
		C6.862,96.489,7.255,96.104,7.577,95.443z M8.595,105.843c0.518-0.679,0.777-1.491,0.777-2.438c0-0.822-0.067-1.577-0.201-2.266
		c-0.134-0.688-0.308-1.21-0.522-1.568c-0.197-0.339-0.393-0.625-0.59-0.857c-0.197-0.232-0.366-0.384-0.509-0.456l-0.215-0.081
		H6.371c0.089,2.055,0.134,5.012,0.134,8.872C7.38,106.924,8.077,106.521,8.595,105.843z"/>
	<path d="M17.118,103.806l0.027-1.528l0.027-1.232v-0.08v-0.268c0.018-0.144,0.026-0.313,0.026-0.51c0-0.036-0.026-0.081-0.08-0.134
		c-0.054-0.053-0.081-0.098-0.081-0.134v-0.027c-0.089,0.036-0.25,0.054-0.482,0.054c-0.232,0-0.519-0.036-0.857-0.107
		c-0.107-0.018-0.394-0.063-0.858-0.134v3.082c0,0.465,0.027,1.197,0.081,2.197c0.054,0.983,0.08,1.716,0.08,2.198
		c0,0.269-0.071,0.501-0.214,0.696c-0.143,0.197-0.331,0.295-0.563,0.295c-0.34,0-0.581-0.33-0.724-0.991
		c-0.144-0.679-0.215-1.563-0.215-2.653l0.054-2.171c0.018-0.607,0.027-1.251,0.027-1.93v-0.456v-0.375
		c0-0.286-0.009-0.473-0.027-0.563v-0.134l0.081-1.555c0-0.679-0.027-1.688-0.081-3.028c-0.054-1.34-0.08-2.35-0.08-3.029
		c0-0.214,0.071-0.402,0.214-0.563c0.143-0.161,0.321-0.241,0.536-0.241c0.572,0,0.858,0.536,0.858,1.608l-0.054,3.323
		c-0.036,1.001-0.054,2.118-0.054,3.351c0.268,0.089,0.75,0.134,1.448,0.134h0.991c0.036-0.107,0.054-0.214,0.054-0.322
		c0-0.857-0.054-2.126-0.161-3.806c-0.125-1.572-0.188-2.85-0.188-3.833c0-0.197,0.076-0.362,0.228-0.496
		c0.152-0.134,0.335-0.201,0.55-0.201c0.125,0,0.303,0.045,0.536,0.134l0.241,0.107c0,2.538,0.089,5.923,0.268,10.158l0.241,6.781
		c0,0.25-0.094,0.447-0.281,0.59s-0.407,0.215-0.657,0.215C17.422,108.229,17.118,106.754,17.118,103.806z"/>
	<path d="M21.192,107.396c0-0.428,0.277-0.643,0.831-0.643h0.295l0.268,0.027c0.143,0,0.241-0.045,0.294-0.135
		c0.054-0.089,0.081-0.25,0.081-0.482c0-0.303-0.018-0.777-0.054-1.42c-0.053-0.43-0.116-1.197-0.188-2.305
		c-0.161-2.734-0.241-4.798-0.241-6.192c0-0.5,0.009-0.956,0.027-1.367l0.027-1.367c0-0.59-0.027-1.081-0.081-1.474
		c-0.286,0.072-0.492,0.107-0.616,0.107c-0.429,0-0.644-0.215-0.644-0.644c0-0.214,0.134-0.402,0.402-0.563
		c0.268-0.161,0.607-0.277,1.019-0.349c0.714-0.143,1.349-0.214,1.903-0.214c0.214,0,0.397,0.076,0.549,0.228
		c0.152,0.152,0.228,0.327,0.228,0.523c0,0.197-0.059,0.366-0.174,0.509c-0.117,0.143-0.264,0.214-0.442,0.214
		c-0.107,0-0.197-0.009-0.268-0.027h-0.214c-0.179,0-0.308,0.04-0.389,0.121c-0.08,0.081-0.121,0.228-0.121,0.442
		c0,1.733,0.107,4.342,0.322,7.826c0.036,0.643,0.107,1.59,0.214,2.84c0.089,0.822,0.134,1.662,0.134,2.52v1.02
		c0.107-0.018,0.286-0.027,0.536-0.027c0.75,0,1.126,0.313,1.126,0.938v0.161l-0.67,0.456c-0.018,0-0.076,0.004-0.174,0.014
		c-0.099,0.009-0.282,0.013-0.55,0.013c-0.572,0.036-0.938,0.054-1.099,0.054C21.969,108.201,21.192,107.934,21.192,107.396z"/>
	<path d="M38.211,107.96v-1.716v-1.715c0-0.893-0.063-2.063-0.188-3.512c-0.143-1.625-0.214-2.742-0.214-3.35l0.054-1.662
		c0.036-0.482,0.054-1.027,0.054-1.635c-0.072,0.232-0.367,1.465-0.885,3.698c-0.518,2.163-1.054,4.164-1.608,6.004
		c-0.536,1.769-0.974,2.652-1.313,2.652s-0.612-0.102-0.817-0.308c-0.206-0.205-0.308-0.487-0.308-0.845
		c0-0.785-0.317-2.456-0.952-5.012c-0.634-2.555-1.21-4.646-1.729-6.271l-0.161,3.029c-0.144,2.555-0.241,4.681-0.295,6.378
		c-0.036,1.645-0.054,2.771-0.054,3.378c0,0.143,0.009,0.276,0.027,0.401v0.376c0,0.303-0.063,0.531-0.188,0.683
		c-0.125,0.151-0.358,0.228-0.697,0.228c-0.179,0-0.348-0.066-0.509-0.201c-0.161-0.133-0.241-0.281-0.241-0.441
		c0-1.822,0.134-4.557,0.402-8.202s0.402-6.379,0.402-8.202c-0.107-0.161-0.161-0.33-0.161-0.509c0-0.214,0.103-0.379,0.308-0.496
		c0.205-0.116,0.451-0.174,0.737-0.174c0.232,0,0.661,0.84,1.286,2.52c0.625,1.68,1.25,3.583,1.876,5.709
		c0.625,2.126,1.027,3.663,1.206,4.61c0.143-0.482,0.259-0.93,0.348-1.34l0.161-0.644c0.571-2.501,1.143-4.762,1.715-6.781
		c0.339-1.233,0.67-2.198,0.992-2.895c0.321-0.75,0.616-1.125,0.884-1.125c0.25,0,0.478,0.067,0.684,0.201
		c0.205,0.134,0.308,0.308,0.308,0.522c0,1.287,0.054,3.216,0.161,5.789c0.125,2.395,0.188,4.252,0.188,5.575l-0.027,1.421
		l-0.054,1.421c0,0.214,0.027,0.535,0.081,0.965l0.08,0.938c0.018,0.161,0.031,0.286,0.041,0.375
		c0.009,0.09,0.013,0.144,0.013,0.161c0.089,0.232,0.134,0.401,0.134,0.509c0,0.305-0.09,0.572-0.268,0.805
		c-0.179,0.232-0.394,0.348-0.644,0.348C38.488,109.621,38.211,109.068,38.211,107.96z"/>
	<path d="M50.473,108.309c-0.42-0.232-0.782-0.545-1.085-0.938c-0.268-0.375-0.509-0.853-0.724-1.434s-0.375-1.184-0.482-1.81
		c-0.214-1.054-0.357-2.438-0.429-4.154c-0.018-0.411-0.027-1.117-0.027-2.118v-1.688c0.018-0.482,0.027-0.982,0.027-1.501
		c0-1.054,0.063-1.885,0.188-2.493c-0.053-0.268-0.08-0.544-0.08-0.831c0-1.072,0.402-1.938,1.206-2.6
		c0.804-0.661,1.822-0.991,3.055-0.991c0.464,0,0.894,0.125,1.287,0.375c0.393,0.25,0.59,0.563,0.59,0.938
		c0,0.179-0.072,0.322-0.215,0.429c-0.143,0.107-0.321,0.161-0.536,0.161c-0.179,0-0.371-0.027-0.576-0.081
		c-0.206-0.054-0.335-0.134-0.389-0.241h-0.349v-0.054c-0.661,0-1.215,0.144-1.662,0.429c-0.322,0.232-0.572,0.616-0.75,1.152
		c-0.072,0.197-0.125,0.447-0.161,0.75c-0.036,0.304-0.054,0.581-0.054,0.831c-0.018,0.144-0.027,0.429-0.027,0.858l0.054,0.938
		l0.027,0.911c0,0.268-0.036,0.581-0.107,0.938c-0.09,0.447-0.134,0.759-0.134,0.938v0.643c0,0.697,0.026,1.653,0.08,2.867
		c0.018,1.02,0.134,2.037,0.349,3.057c0.161,0.947,0.464,1.751,0.911,2.412c0.429,0.679,1.009,1.018,1.742,1.018
		c0.304,0,0.679-0.16,1.125-0.482c0.482-0.321,0.822-0.482,1.019-0.482c0.25,0,0.509,0.135,0.777,0.402
		c0,0.661-0.25,1.17-0.75,1.527c-0.465,0.322-1.019,0.527-1.662,0.617c-0.358,0.035-0.644,0.053-0.858,0.053
		C51.353,108.656,50.893,108.541,50.473,108.309z"/>
	<path d="M61.02,103.806l0.027-1.528l0.027-1.232v-0.08v-0.268c0.018-0.144,0.026-0.313,0.026-0.51c0-0.036-0.026-0.081-0.08-0.134
		c-0.054-0.053-0.081-0.098-0.081-0.134v-0.027c-0.089,0.036-0.25,0.054-0.482,0.054c-0.232,0-0.519-0.036-0.857-0.107
		c-0.107-0.018-0.394-0.063-0.858-0.134v3.082c0,0.465,0.027,1.197,0.081,2.197c0.054,0.983,0.08,1.716,0.08,2.198
		c0,0.269-0.071,0.501-0.214,0.696c-0.143,0.197-0.331,0.295-0.563,0.295c-0.34,0-0.581-0.33-0.724-0.991
		c-0.144-0.679-0.215-1.563-0.215-2.653l0.054-2.171c0.018-0.607,0.027-1.251,0.027-1.93v-0.456v-0.375
		c0-0.286-0.009-0.473-0.027-0.563v-0.134l0.081-1.555c0-0.679-0.027-1.688-0.081-3.028c-0.054-1.34-0.08-2.35-0.08-3.029
		c0-0.214,0.071-0.402,0.214-0.563c0.143-0.161,0.321-0.241,0.536-0.241c0.572,0,0.858,0.536,0.858,1.608l-0.054,3.323
		c-0.036,1.001-0.054,2.118-0.054,3.351c0.268,0.089,0.75,0.134,1.448,0.134H61.1c0.036-0.107,0.054-0.214,0.054-0.322
		c0-0.857-0.054-2.126-0.161-3.806c-0.125-1.572-0.188-2.85-0.188-3.833c0-0.197,0.076-0.362,0.228-0.496
		c0.152-0.134,0.335-0.201,0.55-0.201c0.125,0,0.303,0.045,0.536,0.134l0.241,0.107c0,2.538,0.089,5.923,0.268,10.158l0.241,6.781
		c0,0.25-0.094,0.447-0.281,0.59s-0.407,0.215-0.657,0.215C61.323,108.229,61.02,106.754,61.02,103.806z"/>
	<path d="M67.934,108.295c-0.394-0.295-0.715-0.691-0.965-1.192c-0.519-1.09-0.84-2.278-0.965-3.565
		c-0.161-1.215-0.241-2.385-0.241-3.511c0-0.214,0.009-0.393,0.027-0.536v-0.482c0-0.089-0.009-0.134-0.027-0.134v-0.482
		l0.027-1.876c0.018-0.572,0.089-1.483,0.214-2.734c0.089-0.858,0.294-1.688,0.616-2.493c0.125-0.357,0.286-0.63,0.482-0.817
		c0.196-0.188,0.42-0.281,0.67-0.281c0.715,0,1.358,0.129,1.93,0.389c0.571,0.259,1.054,0.621,1.447,1.085
		c0.357,0.447,0.661,0.996,0.911,1.648c0.25,0.653,0.429,1.345,0.536,2.077c0.107,0.75,0.161,1.546,0.161,2.386v0.214
		c0,0.554,0.009,1.054,0.027,1.501l0.027,1.527c0,5.146-1.197,7.72-3.591,7.72C68.756,108.737,68.327,108.59,67.934,108.295z
		 M69.998,107.223c0.268-0.258,0.474-0.611,0.617-1.059c0.339-0.911,0.545-1.894,0.616-2.948c0.089-0.911,0.134-1.697,0.134-2.358
		c0-0.804-0.063-1.858-0.188-3.163c-0.107-1.375-0.161-2.403-0.161-3.082V94.13c-0.036-0.679-0.264-1.269-0.684-1.769
		c-0.42-0.5-0.934-0.75-1.541-0.75s-1.01,0.348-1.206,1.045c-0.179,0.554-0.268,1.269-0.268,2.144c0,0.339,0.009,0.625,0.027,0.857
		v0.724l-0.054,1.233c-0.036,0.375-0.053,0.787-0.053,1.233c0,0.965,0.027,1.92,0.08,2.868c0.071,1.34,0.25,2.645,0.536,3.914
		c0.286,1.322,0.706,1.982,1.26,1.982C69.435,107.611,69.729,107.482,69.998,107.223z"/>
	<path d="M76.751,107.183c-0.232-0.946-0.424-2.122-0.576-3.524s-0.308-3.176-0.469-5.32c-0.089-1.394-0.214-2.885-0.375-4.476
		c-0.125-1.322-0.277-2.171-0.456-2.546c0.161-0.322,0.419-0.482,0.777-0.482c0.571,0,0.857,0.59,0.857,1.769
		c0,1.394,0.188,3.431,0.563,6.111c0.375,2.663,0.589,4.601,0.643,5.816l0.134-0.911c0.178-1.196,0.335-2.327,0.469-3.391
		c0.134-1.063,0.246-2.211,0.335-3.444c0.125-1.376,0.188-2.734,0.188-4.074l0.724-0.321c0.232,0,0.424,0.058,0.576,0.174
		c0.151,0.117,0.228,0.282,0.228,0.496v0.214c0.286,1.001,0.523,2.095,0.71,3.283c0.188,1.188,0.353,2.586,0.496,4.194
		c0.107,1.232,0.232,2.386,0.375,3.457c0.339-2.394,0.509-5.342,0.509-8.844c0-0.553,0.071-1.232,0.214-2.037
		c0.125-0.822,0.188-1.492,0.188-2.01c-0.054-0.161-0.08-0.313-0.08-0.456c0-0.429,0.268-0.644,0.804-0.644
		c0.214,0,0.384,0.054,0.509,0.161c0.125,0.107,0.188,0.259,0.188,0.456v0.402c0,0.268-0.026,0.5-0.08,0.697v0.134
		c-0.232,0.715-0.349,1.537-0.349,2.466v1.957c0,1.125-0.134,2.805-0.402,5.039c-0.286,2.18-0.429,3.807-0.429,4.878v0.482
		c0,0.411-0.045,0.76-0.134,1.046c-0.107,0.357-0.366,0.535-0.777,0.535c-0.286,0-0.505-0.094-0.657-0.281s-0.228-0.424-0.228-0.71
		c0-1.447-0.152-3.323-0.456-5.628c-0.161-1.037-0.331-2.082-0.509-3.136l-0.429-2.814c-0.072,0.519-0.107,1.028-0.107,1.528
		c0,1.001-0.072,2.323-0.214,3.967c-0.143,1.644-0.367,3.243-0.67,4.798c-0.34,1.732-0.724,2.6-1.153,2.6
		C77.332,108.791,77.02,108.255,76.751,107.183z"/>
	<path d="M92.243,107.344c-0.697-1.34-1.385-3.547-2.064-6.62c-0.197-0.84-0.357-1.617-0.482-2.332
		c-0.643,1.287-0.965,2.841-0.965,4.663v4.959c0,0.41-0.179,0.616-0.536,0.616c-0.268,0-0.487-0.076-0.656-0.228
		c-0.17-0.152-0.255-0.361-0.255-0.63v-8.121c0-0.786,0.089-2.233,0.268-4.342c0.178-1.84,0.268-3.288,0.268-4.342
		c0.143-0.339,0.402-0.509,0.777-0.509c0.232,0,0.429,0.081,0.589,0.242c0.161,0.161,0.241,0.357,0.241,0.589v0.081
		c-0.232,0.393-0.348,2.019-0.348,4.878v0.965l0.992-1.957c0.607-1.269,1.179-2.358,1.715-3.27c0.5-0.893,0.866-1.34,1.099-1.34
		c0.286,0,0.532,0.063,0.737,0.188c0.205,0.125,0.308,0.304,0.308,0.536l-0.643,1.072c-1.34,2.163-2.091,3.413-2.251,3.752
		c0,0.304-0.009,0.572-0.027,0.804l-0.027,0.804c0,0.768,0.308,2.202,0.925,4.301c0.616,2.1,1.13,3.489,1.541,4.168l0.349,0.482
		c0.339,0.465,0.509,0.875,0.509,1.232c0,0.197-0.076,0.362-0.228,0.496c-0.152,0.135-0.326,0.201-0.522,0.201
		C93.145,108.684,92.707,108.236,92.243,107.344z"/>
	<path d="M97.013,110.748c-0.179,0-0.286-0.081-0.322-0.242v-0.16l0.643-0.805c0.232-0.321,0.384-0.616,0.456-0.885
		c0.018-0.053,0.026-0.133,0.026-0.24s-0.009-0.188-0.026-0.242c-0.286,0-0.505-0.084-0.657-0.254
		c-0.152-0.17-0.255-0.434-0.309-0.791c-0.053-0.321,0.041-0.566,0.282-0.736s0.549-0.255,0.925-0.255
		c0.553,0,0.884,0.294,0.991,0.884c0.071,0.447-0.053,1.037-0.375,1.77s-0.733,1.33-1.233,1.795
		c-0.107,0.09-0.214,0.144-0.322,0.162H97.013z"/>
	<path d="M106.688,110.774c0,0-0.09-0.071-0.268-0.215c-0.179-0.144-0.268-0.349-0.268-0.616c0-0.197,0.107-0.402,0.322-0.616
		c0.214-0.215,0.456-0.376,0.724-0.483c0.268-0.339,0.513-0.865,0.737-1.58s0.335-1.447,0.335-2.198l0.026-1.313
		c0.018-0.375,0.027-0.804,0.027-1.286l-0.027-1.099l-0.134-2.708c-0.125-3.538-0.322-6.656-0.59-9.354
		c-0.053,0.036-0.17,0.063-0.348,0.081c-0.286,0.089-0.554,0.134-0.804,0.134c-0.179,0-0.335-0.067-0.469-0.201
		c-0.134-0.134-0.201-0.291-0.201-0.469c0-0.625,1.063-0.938,3.189-0.938h0.348c0.25,0,0.447,0.013,0.59,0.04
		c0.143,0.027,0.277,0.094,0.402,0.201c0.143,0.107,0.214,0.268,0.214,0.482c0,0.465-0.375,0.697-1.125,0.697
		c-0.018,0-0.027-0.009-0.027-0.027h-0.054h-0.348v0.214c0,0.465,0.054,1.153,0.161,2.064c0.089,1.037,0.134,1.733,0.134,2.09
		c0,1.269,0.089,3.002,0.268,5.2c0.143,2.073,0.214,3.815,0.214,5.227v1.071v1.072c0,1.072-0.228,2.023-0.684,2.855
		c-0.456,0.83-1.095,1.389-1.917,1.675C106.831,110.774,106.688,110.774,106.688,110.774z"/>
	<path d="M118.401,108.281c-0.197-0.125-0.295-0.357-0.295-0.696c0-0.536-0.09-1.447-0.268-2.733l-0.107-0.563l-2.653-0.401
		c-0.107,0.41-0.259,1.242-0.456,2.492c-0.107,0.875-0.277,1.457-0.509,1.742c-0.125,0.16-0.304,0.24-0.536,0.24
		c-0.214,0-0.411-0.066-0.589-0.2c-0.179-0.134-0.268-0.3-0.268-0.496l0.053-0.134l0.027-0.107c1.18-4.592,2.073-9.122,2.68-13.588
		c0-0.071,0.009-0.192,0.027-0.362c0.018-0.17,0.036-0.416,0.054-0.737c0.054-0.661,0.111-1.188,0.174-1.581
		c0.063-0.393,0.165-0.688,0.308-0.885h0.911c0.25,0,0.465,0.058,0.644,0.174c0.178,0.116,0.268,0.281,0.268,0.496
		c0,1.358,0.188,3.377,0.563,6.057c0.357,2.752,0.536,4.682,0.536,5.789c0,0.107,0.044,0.385,0.134,0.831
		c0.089,0.411,0.134,0.679,0.134,0.804s0.089,0.662,0.268,1.608c0.161,0.857,0.241,1.411,0.241,1.661v0.027
		c0,0.393-0.143,0.643-0.429,0.75C118.901,108.469,118.597,108.406,118.401,108.281z M117.462,102.332
		c0-1.608-0.143-3.663-0.429-6.165l-0.268-2.787c-0.769,4.199-1.295,7.37-1.581,9.515c0.268,0.179,1.054,0.321,2.358,0.429
		C117.489,103.055,117.462,102.725,117.462,102.332z"/>
	<path d="M125.664,107.396c-0.375-0.928-0.653-1.885-0.831-2.867l-0.188-0.911c-0.519-2.556-0.849-4.011-0.992-4.369h-0.322
		c0,0.518-0.009,0.992-0.027,1.42v1.475c0,2.395,0.17,4.261,0.509,5.602l-0.295,0.723h-0.75l-0.348-0.401l0.027-1.796
		c0-1.607-0.081-4.047-0.241-7.317c-0.144-3.484-0.214-5.923-0.214-7.317c0-0.858,0.294-1.287,0.884-1.287
		c0.965,0,1.755,0.25,2.372,0.75c0.616,0.5,0.924,1.197,0.924,2.09v1.876c0,0.268-0.044,0.576-0.134,0.924
		c-0.09,0.349-0.188,0.63-0.295,0.844l-0.509,0.965l-0.429,0.804l0.134,0.644l0.375,1.903c0.25,1.376,0.491,2.492,0.724,3.35
		c0.232,0.858,0.518,1.636,0.858,2.332l0.161,0.322c0.178,0.357,0.268,0.643,0.268,0.857c0,0.179-0.054,0.335-0.161,0.469
		c-0.107,0.135-0.25,0.201-0.429,0.201C126.343,108.684,125.985,108.255,125.664,107.396z M124.444,96.314
		c0.277-0.884,0.416-1.702,0.416-2.452c0-0.572-0.072-1.108-0.214-1.608c-0.09-0.286-0.237-0.504-0.442-0.657
		c-0.206-0.151-0.46-0.228-0.764-0.228l-0.054,0.134l-0.054,0.241l0.054,3.163c0.036,0.93,0.054,1.939,0.054,3.029
		C123.832,97.74,124.167,97.199,124.444,96.314z"/>
	<path d="M128.96,107.396c0-0.428,0.277-0.643,0.831-0.643h0.295l0.268,0.027c0.143,0,0.241-0.045,0.294-0.135
		c0.054-0.089,0.081-0.25,0.081-0.482c0-0.303-0.018-0.777-0.054-1.42c-0.053-0.43-0.116-1.197-0.188-2.305
		c-0.161-2.734-0.241-4.798-0.241-6.192c0-0.5,0.009-0.956,0.027-1.367l0.027-1.367c0-0.59-0.027-1.081-0.081-1.474
		c-0.286,0.072-0.492,0.107-0.616,0.107c-0.429,0-0.644-0.215-0.644-0.644c0-0.214,0.134-0.402,0.402-0.563
		c0.268-0.161,0.607-0.277,1.019-0.349c0.714-0.143,1.349-0.214,1.903-0.214c0.214,0,0.397,0.076,0.549,0.228
		c0.152,0.152,0.228,0.327,0.228,0.523c0,0.197-0.059,0.366-0.174,0.509c-0.117,0.143-0.264,0.214-0.442,0.214
		c-0.107,0-0.197-0.009-0.268-0.027h-0.214c-0.179,0-0.308,0.04-0.389,0.121c-0.08,0.081-0.121,0.228-0.121,0.442
		c0,1.733,0.107,4.342,0.322,7.826c0.036,0.643,0.107,1.59,0.214,2.84c0.089,0.822,0.134,1.662,0.134,2.52v1.02
		c0.107-0.018,0.286-0.027,0.536-0.027c0.75,0,1.126,0.313,1.126,0.938v0.161l-0.67,0.456c-0.018,0-0.076,0.004-0.174,0.014
		c-0.099,0.009-0.282,0.013-0.55,0.013c-0.572,0.036-0.938,0.054-1.099,0.054C129.738,108.201,128.96,107.934,128.96,107.396z"/>
	<path d="M136.599,108.416c-0.232-0.947-0.349-2.261-0.349-3.94l0.054-2.386c0.036-0.714,0.054-1.51,0.054-2.385
		c-0.107-0.25-0.161-0.473-0.161-0.67v-0.081c0.178-0.339,0.268-1.108,0.268-2.305l0.027-1.233c0.018-0.393,0.027-0.831,0.027-1.313
		c0-1.054-0.071-1.885-0.214-2.493c0.054-0.25,0.143-0.469,0.268-0.657s0.277-0.281,0.456-0.281h1.179
		c0.5,0,0.938,0.112,1.313,0.335c0.375,0.224,0.661,0.541,0.858,0.951c0.357,0.733,0.536,1.6,0.536,2.6
		c0,0.715-0.009,1.278-0.027,1.688c-0.036,0.519-0.125,0.992-0.268,1.42c-0.054,0.232-0.13,0.425-0.228,0.576
		c-0.099,0.152-0.237,0.335-0.416,0.549c-0.25,0.304-0.661,0.59-1.233,0.858c-0.232,0.125-0.536,0.241-0.911,0.349v2.867
		l0.054,1.716l0.053,0.831c0.071,1,0.107,1.85,0.107,2.546c0,0.214-0.09,0.397-0.268,0.55c-0.179,0.151-0.384,0.228-0.616,0.228
		L136.599,108.416z M139.44,94.372c0-0.518-0.027-0.92-0.08-1.207c-0.054-0.214-0.125-0.388-0.214-0.522
		c-0.09-0.134-0.224-0.246-0.402-0.335c-0.197-0.107-0.411-0.161-0.643-0.161c0-0.018-0.099-0.027-0.295-0.027v1.527
		c0,1.055,0.009,1.993,0.027,2.814c0,0.929,0.009,1.537,0.027,1.823v0.563v0.054C138.913,98.74,139.44,97.23,139.44,94.372z"/>
	<path d="M147.91,108.281c-0.197-0.125-0.295-0.357-0.295-0.696c0-0.536-0.09-1.447-0.268-2.733l-0.107-0.563l-2.653-0.401
		c-0.107,0.41-0.259,1.242-0.456,2.492c-0.107,0.875-0.277,1.457-0.509,1.742c-0.125,0.16-0.304,0.24-0.536,0.24
		c-0.214,0-0.411-0.066-0.589-0.2c-0.179-0.134-0.268-0.3-0.268-0.496l0.053-0.134l0.027-0.107c1.18-4.592,2.073-9.122,2.68-13.588
		c0-0.071,0.009-0.192,0.027-0.362c0.018-0.17,0.036-0.416,0.054-0.737c0.054-0.661,0.111-1.188,0.174-1.581
		c0.063-0.393,0.165-0.688,0.308-0.885h0.911c0.25,0,0.465,0.058,0.644,0.174c0.178,0.116,0.268,0.281,0.268,0.496
		c0,1.358,0.188,3.377,0.563,6.057c0.357,2.752,0.536,4.682,0.536,5.789c0,0.107,0.044,0.385,0.134,0.831
		c0.089,0.411,0.134,0.679,0.134,0.804s0.089,0.662,0.268,1.608c0.161,0.857,0.241,1.411,0.241,1.661v0.027
		c0,0.393-0.143,0.643-0.429,0.75C148.41,108.469,148.106,108.406,147.91,108.281z M146.971,102.332
		c0-1.608-0.143-3.663-0.429-6.165l-0.268-2.787c-0.769,4.199-1.295,7.37-1.581,9.515c0.268,0.179,1.054,0.321,2.358,0.429
		C146.998,103.055,146.971,102.725,146.971,102.332z"/>
	<path d="M153.056,107.799l-0.027-1.045c-0.018-0.304-0.027-0.643-0.027-1.019l0.027-0.911c-0.053-0.196-0.188-2.152-0.402-5.87
		c-0.215-3.716-0.34-6.102-0.375-7.156c-1.036-0.036-1.697-0.143-1.983-0.322c-0.197-0.143-0.295-0.303-0.295-0.482
		c0-0.143,0.094-0.272,0.281-0.389c0.188-0.116,0.379-0.174,0.577-0.174c0.5,0,1.107,0.036,1.822,0.107
		c0.68,0.09,1.287,0.134,1.822,0.134h0.215h0.215c0.553,0,0.83,0.214,0.83,0.643c0,0.214-0.09,0.389-0.268,0.522
		c-0.18,0.134-0.385,0.201-0.617,0.201c-0.16,0-0.393-0.027-0.697-0.081l-0.535-0.107l-0.027,0.134l-0.025,0.134
		c0,1.59,0.15,4.127,0.455,7.612c0.285,3.27,0.428,5.807,0.428,7.612c0,0.215-0.094,0.402-0.281,0.563
		c-0.188,0.161-0.396,0.241-0.629,0.241L153.056,107.799z"/>
	<path d="M163.427,107.344c-0.696-1.34-1.385-3.547-2.063-6.62c-0.196-0.84-0.357-1.617-0.482-2.332
		c-0.644,1.287-0.965,2.841-0.965,4.663v4.959c0,0.41-0.179,0.616-0.536,0.616c-0.268,0-0.487-0.076-0.656-0.228
		c-0.17-0.152-0.255-0.361-0.255-0.63v-8.121c0-0.786,0.089-2.233,0.269-4.342c0.178-1.84,0.268-3.288,0.268-4.342
		c0.143-0.339,0.402-0.509,0.777-0.509c0.231,0,0.429,0.081,0.59,0.242c0.16,0.161,0.241,0.357,0.241,0.589v0.081
		c-0.232,0.393-0.349,2.019-0.349,4.878v0.965l0.991-1.957c0.607-1.269,1.18-2.358,1.716-3.27c0.5-0.893,0.866-1.34,1.099-1.34
		c0.286,0,0.531,0.063,0.737,0.188c0.205,0.125,0.308,0.304,0.308,0.536l-0.643,1.072c-1.34,2.163-2.091,3.413-2.252,3.752
		c0,0.304-0.009,0.572-0.026,0.804l-0.026,0.804c0,0.768,0.308,2.202,0.924,4.301c0.617,2.1,1.13,3.489,1.541,4.168l0.349,0.482
		c0.34,0.465,0.51,0.875,0.51,1.232c0,0.197-0.076,0.362-0.229,0.496c-0.151,0.135-0.326,0.201-0.522,0.201
		C164.329,108.684,163.892,108.236,163.427,107.344z"/>
	<path d="M172.165,108.281c-0.197-0.125-0.295-0.357-0.295-0.696c0-0.536-0.09-1.447-0.269-2.733l-0.106-0.563l-2.653-0.401
		c-0.107,0.41-0.26,1.242-0.456,2.492c-0.107,0.875-0.277,1.457-0.509,1.742c-0.126,0.16-0.305,0.24-0.536,0.24
		c-0.215,0-0.412-0.066-0.59-0.2c-0.179-0.134-0.269-0.3-0.269-0.496l0.054-0.134l0.027-0.107c1.179-4.592,2.072-9.122,2.68-13.588
		c0-0.071,0.009-0.192,0.027-0.362c0.018-0.17,0.035-0.416,0.054-0.737c0.053-0.661,0.111-1.188,0.174-1.581
		s0.165-0.688,0.309-0.885h0.911c0.25,0,0.464,0.058,0.643,0.174s0.269,0.281,0.269,0.496c0,1.358,0.188,3.377,0.563,6.057
		c0.357,2.752,0.536,4.682,0.536,5.789c0,0.107,0.045,0.385,0.134,0.831c0.09,0.411,0.135,0.679,0.135,0.804
		s0.089,0.662,0.268,1.608c0.161,0.857,0.241,1.411,0.241,1.661v0.027c0,0.393-0.144,0.643-0.429,0.75
		C172.665,108.469,172.361,108.406,172.165,108.281z M171.227,102.332c0-1.608-0.143-3.663-0.429-6.165l-0.268-2.787
		c-0.769,4.199-1.296,7.37-1.582,9.515c0.269,0.179,1.055,0.321,2.359,0.429C171.254,103.055,171.227,102.725,171.227,102.332z"/>
	<path d="M176.212,110.748c-0.179,0-0.286-0.081-0.321-0.242v-0.16l0.643-0.805c0.232-0.321,0.384-0.616,0.456-0.885
		c0.018-0.053,0.026-0.133,0.026-0.24s-0.009-0.188-0.026-0.242c-0.286,0-0.505-0.084-0.657-0.254
		c-0.151-0.17-0.254-0.434-0.308-0.791c-0.054-0.321,0.04-0.566,0.281-0.736s0.55-0.255,0.925-0.255
		c0.554,0,0.884,0.294,0.991,0.884c0.071,0.447-0.054,1.037-0.375,1.77s-0.732,1.33-1.232,1.795
		c-0.107,0.09-0.215,0.144-0.322,0.162H176.212z"/>
	<path d="M190.443,103.109c-1.251-4.307-2.332-8.264-3.243-11.874v8.791c0,0.751,0.071,2.028,0.215,3.833
		c0.125,1.966,0.188,3.234,0.188,3.806c0,0.161-0.099,0.3-0.295,0.415c-0.196,0.117-0.42,0.175-0.67,0.175
		c-0.375,0-0.563-0.144-0.563-0.429l0.054-0.777c0.035-0.572,0.053-0.947,0.053-1.126c0-0.946-0.053-2.448-0.16-4.503
		c-0.107-2.09-0.161-3.359-0.161-3.806v-3.431c0-0.554,0.026-1.375,0.08-2.466c0.071-0.947,0.107-1.769,0.107-2.466v-0.161
		c0-0.893,0.196-1.34,0.59-1.34c0.232,0,0.526,0.393,0.885,1.179c0.589,1.286,1.34,3.591,2.251,6.915
		c0.519,1.93,1.126,4.413,1.822,7.451c-0.018-0.072,0.125,0.545,0.429,1.85l0.027,0.133c0-1.732,0.018-3.287,0.054-4.663
		l0.054-4.664v-7.934c0.071-0.446,0.356-0.67,0.857-0.67c0.482,0,0.724,0.349,0.724,1.045v0.161
		c-0.107,0.214-0.161,0.474-0.161,0.777c0,1.09-0.026,2.734-0.08,4.932c-0.054,2.216-0.08,3.877-0.08,4.985v8.174
		c0,0.286-0.076,0.559-0.229,0.817c-0.151,0.259-0.335,0.389-0.549,0.389C192.283,108.63,191.551,106.79,190.443,103.109z"/>
	<path d="M201.459,108.281c-0.197-0.125-0.295-0.357-0.295-0.696c0-0.536-0.09-1.447-0.269-2.733l-0.106-0.563l-2.653-0.401
		c-0.107,0.41-0.26,1.242-0.456,2.492c-0.107,0.875-0.277,1.457-0.509,1.742c-0.126,0.16-0.305,0.24-0.536,0.24
		c-0.215,0-0.412-0.066-0.59-0.2c-0.179-0.134-0.269-0.3-0.269-0.496l0.054-0.134l0.027-0.107c1.179-4.592,2.072-9.122,2.68-13.588
		c0-0.071,0.009-0.192,0.027-0.362c0.018-0.17,0.035-0.416,0.054-0.737c0.053-0.661,0.111-1.188,0.174-1.581
		s0.165-0.688,0.309-0.885h0.911c0.25,0,0.464,0.058,0.643,0.174s0.269,0.281,0.269,0.496c0,1.358,0.188,3.377,0.563,6.057
		c0.357,2.752,0.536,4.682,0.536,5.789c0,0.107,0.045,0.385,0.134,0.831c0.09,0.411,0.135,0.679,0.135,0.804
		s0.089,0.662,0.268,1.608c0.161,0.857,0.241,1.411,0.241,1.661v0.027c0,0.393-0.144,0.643-0.429,0.75
		C201.959,108.469,201.655,108.406,201.459,108.281z M200.521,102.332c0-1.608-0.143-3.663-0.429-6.165l-0.268-2.787
		c-0.769,4.199-1.296,7.37-1.582,9.515c0.269,0.179,1.055,0.321,2.359,0.429C200.548,103.055,200.521,102.725,200.521,102.332z"/>
	<path d="M207.221,108.161c-0.411-0.188-0.76-0.433-1.045-0.737c-0.232-0.25-0.447-0.616-0.644-1.099s-0.339-0.946-0.429-1.394
		c-0.09-0.34-0.161-0.831-0.214-1.475c-0.054-0.643-0.09-1.197-0.107-1.662v-1.554v-1.072c0-1.036,0.018-1.885,0.054-2.546
		c0.035-0.804,0.151-1.652,0.349-2.546c0.16-0.804,0.438-1.51,0.83-2.118c0.376-0.607,0.902-1.027,1.582-1.259
		c0.321-0.125,0.696-0.188,1.125-0.188c0.769,0,1.152,0.224,1.152,0.67c0,0.214-0.085,0.388-0.254,0.522
		c-0.17,0.134-0.371,0.201-0.604,0.201c-0.107,0-0.205-0.009-0.295-0.027c-0.071-0.018-0.16-0.027-0.268-0.027
		c-0.305,0-0.572,0.161-0.805,0.482s-0.429,0.769-0.589,1.34c-0.286,1.108-0.482,2.314-0.59,3.619
		c-0.071,1.215-0.107,2.117-0.107,2.707c0,0.607,0.027,1.438,0.08,2.492c0.071,0.982,0.224,1.841,0.456,2.573
		c0.125,0.429,0.272,0.772,0.442,1.032c0.17,0.259,0.389,0.479,0.656,0.656c0.304,0.197,0.617,0.295,0.938,0.295
		c0.857,0,1.286-1.43,1.286-4.289v-1.232c-0.125-0.053-0.331-0.08-0.616-0.08h-0.241h-0.295c-0.626,0-0.938-0.205-0.938-0.617
		c0-0.25,0.085-0.442,0.255-0.576s0.389-0.201,0.657-0.201v0.027h0.375c1.608,0,2.412,0.277,2.412,0.831
		c0,0.161-0.045,0.482-0.134,0.965c-0.107,0.429-0.161,0.751-0.161,0.965c0,0.304,0.026,0.777,0.08,1.421l0.054,1.42
		c0,0.857-0.299,1.533-0.897,2.023c-0.599,0.492-1.327,0.737-2.185,0.737C208.088,108.442,207.632,108.349,207.221,108.161z"/>
	<path d="M214.967,108.416c-0.232-0.947-0.349-2.261-0.349-3.94l0.054-2.386c0.036-0.714,0.054-1.51,0.054-2.385
		c-0.107-0.25-0.161-0.473-0.161-0.67v-0.081c0.179-0.339,0.269-1.108,0.269-2.305l0.026-1.233c0.018-0.393,0.027-0.831,0.027-1.313
		c0-1.054-0.072-1.885-0.215-2.493c0.054-0.25,0.143-0.469,0.269-0.657c0.124-0.188,0.276-0.281,0.455-0.281h1.18
		c0.5,0,0.938,0.112,1.313,0.335c0.375,0.224,0.66,0.541,0.857,0.951c0.357,0.733,0.536,1.6,0.536,2.6
		c0,0.715-0.01,1.278-0.027,1.688c-0.036,0.519-0.125,0.992-0.268,1.42c-0.054,0.232-0.13,0.425-0.229,0.576
		c-0.098,0.152-0.236,0.335-0.415,0.549c-0.25,0.304-0.661,0.59-1.232,0.858c-0.232,0.125-0.536,0.241-0.912,0.349v2.867
		l0.054,1.716l0.054,0.831c0.071,1,0.107,1.85,0.107,2.546c0,0.214-0.09,0.397-0.268,0.55c-0.18,0.151-0.385,0.228-0.617,0.228
		L214.967,108.416z M217.808,94.372c0-0.518-0.026-0.92-0.08-1.207c-0.054-0.214-0.125-0.388-0.215-0.522
		c-0.09-0.134-0.224-0.246-0.401-0.335c-0.197-0.107-0.412-0.161-0.644-0.161c0-0.018-0.099-0.027-0.295-0.027v1.527
		c0,1.055,0.009,1.993,0.026,2.814c0,0.929,0.009,1.537,0.027,1.823v0.563v0.054C217.28,98.74,217.808,97.23,217.808,94.372z"/>
	<path d="M223.624,108.349c-0.34-0.188-0.617-0.46-0.831-0.817c-0.429-0.75-0.706-1.6-0.831-2.547
		c-0.125-0.821-0.188-1.804-0.188-2.947c-0.054-1.93-0.08-4.289-0.08-7.076l-0.027-2.063c-0.018-0.107-0.026-0.286-0.026-0.536
		c-0.036-0.679-0.054-1.09-0.054-1.233c0.16-0.375,0.349-0.563,0.563-0.563c0.215,0,0.406,0.161,0.576,0.482s0.255,0.67,0.255,1.045
		v7.29c0,0.715,0.063,1.662,0.188,2.841c0.125,1.465,0.188,2.412,0.188,2.841c0,1.322,0.563,1.983,1.688,1.983
		c1.287,0,1.93-4.807,1.93-14.419v-1.501v-0.241c-0.018-0.054-0.026-0.125-0.026-0.214c0-0.215,0.049-0.371,0.147-0.469
		c0.098-0.098,0.29-0.147,0.576-0.147c0.231,0,0.415,0.067,0.55,0.201c0.134,0.134,0.218,0.291,0.254,0.469
		c0.018,0.107,0.027,0.313,0.027,0.617c0,0.286-0.027,0.742-0.081,1.367c-0.071,0.519-0.106,0.965-0.106,1.34
		c0,0.411-0.019,0.777-0.054,1.099l-0.054,1.126v0.214c0.018,0.072,0.026,0.152,0.026,0.241c0,7.934-1.152,11.9-3.457,11.9
		C224.348,108.63,223.963,108.536,223.624,108.349z"/>
	<path d="M235.201,107.396c-0.375-0.928-0.652-1.885-0.831-2.867l-0.188-0.911c-0.519-2.556-0.849-4.011-0.991-4.369h-0.321
		c0,0.518-0.01,0.992-0.027,1.42v1.475c0,2.395,0.17,4.261,0.51,5.602l-0.295,0.723h-0.751l-0.349-0.401l0.027-1.796
		c0-1.607-0.08-4.047-0.241-7.317c-0.144-3.484-0.215-5.923-0.215-7.317c0-0.858,0.295-1.287,0.885-1.287
		c0.965,0,1.756,0.25,2.372,0.75c0.616,0.5,0.925,1.197,0.925,2.09v1.876c0,0.268-0.045,0.576-0.134,0.924
		c-0.09,0.349-0.188,0.63-0.295,0.844l-0.51,0.965l-0.429,0.804l0.134,0.644l0.375,1.903c0.251,1.376,0.492,2.492,0.725,3.35
		c0.231,0.858,0.518,1.636,0.857,2.332l0.16,0.322c0.179,0.357,0.269,0.643,0.269,0.857c0,0.179-0.054,0.335-0.161,0.469
		c-0.107,0.135-0.25,0.201-0.429,0.201C235.88,108.684,235.523,108.255,235.201,107.396z M233.982,96.314
		c0.276-0.884,0.415-1.702,0.415-2.452c0-0.572-0.071-1.108-0.215-1.608c-0.089-0.286-0.236-0.504-0.441-0.657
		c-0.206-0.151-0.461-0.228-0.765-0.228l-0.054,0.134l-0.053,0.241l0.053,3.163c0.036,0.93,0.054,1.939,0.054,3.029
		C233.37,97.74,233.705,97.199,233.982,96.314z"/>
	<path d="M240.267,99.423c-0.179-0.151-0.268-0.335-0.268-0.549s0.214-0.402,0.643-0.563c0.607-0.232,1.662-0.393,3.163-0.482
		c0.571-0.035,0.938-0.053,1.099-0.053c0.232,0,0.438,0.076,0.616,0.228c0.179,0.152,0.269,0.335,0.269,0.549
		c0,0.215-0.215,0.402-0.644,0.563c-0.607,0.232-1.661,0.394-3.162,0.482c-0.572,0.036-0.938,0.054-1.1,0.054
		C240.65,99.651,240.445,99.576,240.267,99.423z"/>
	<path d="M252.757,108.336c-0.161-0.269-0.241-0.563-0.241-0.885v-0.081c0.089-0.356,0.134-0.679,0.134-0.965
		c0-0.321-0.027-0.759-0.08-1.313c-0.072-0.518-0.107-0.955-0.107-1.313v-0.59c0.018-0.161,0.026-0.349,0.026-0.563
		c0-0.197-0.018-0.474-0.054-0.832l-0.696,0.081c-0.357,0.054-0.616,0.081-0.777,0.081c-0.34,0-0.688-0.144-1.045-0.43
		c0-0.375,0.044-0.724,0.134-1.045c-0.09-0.447-0.134-0.947-0.134-1.501c0-0.518,0.07-1.438,0.214-2.761
		c0.125-1.143,0.188-2.046,0.188-2.707v-4.958c0-0.232,0.063-0.375,0.188-0.429c0.09-0.054,0.196-0.081,0.322-0.081
		c0.231,0,0.424,0.059,0.576,0.174c0.151,0.117,0.228,0.272,0.228,0.469c0,0.393-0.018,0.742-0.054,1.045l-0.054,1.045v0.241
		c-0.018,0.072-0.026,0.152-0.026,0.241c0,0.144,0.018,0.304,0.054,0.482v0.107c0.054,0.447,0.08,0.92,0.08,1.42
		c0,0.875-0.063,2.01-0.188,3.404s-0.188,2.529-0.188,3.404c0,0.125,0.018,0.331,0.054,0.617c0.41-0.036,0.732-0.09,0.965-0.162
		c0-0.643,0.044-1.902,0.134-3.778c0.071-1.501,0.107-2.734,0.107-3.699c0-0.178,0.075-0.326,0.228-0.442
		c0.151-0.116,0.309-0.174,0.469-0.174l0.429,0.482v1.287c0,2.323-0.018,4.396-0.053,6.218c0.018,0,0.049-0.004,0.094-0.014
		c0.044-0.009,0.12-0.013,0.228-0.013c0.125-0.018,0.276-0.027,0.455-0.027c0.536,0,0.805,0.188,0.805,0.563
		c0,0.43-0.357,0.644-1.072,0.644c-0.304,0-0.456,0.081-0.456,0.241c0,0.75,0.027,1.621,0.081,2.613s0.125,1.577,0.214,1.756
		c-0.036,0.143-0.054,0.313-0.054,0.509c0,0.232,0.036,0.411,0.107,0.536v0.482c0,0.286-0.049,0.527-0.147,0.724
		s-0.254,0.295-0.469,0.295C253.123,108.737,252.917,108.604,252.757,108.336z"/>
	<path d="M260.878,108.336c-0.161-0.269-0.241-0.563-0.241-0.885v-0.081c0.089-0.356,0.134-0.679,0.134-0.965
		c0-0.321-0.027-0.759-0.08-1.313c-0.072-0.518-0.107-0.955-0.107-1.313v-0.59c0.018-0.161,0.026-0.349,0.026-0.563
		c0-0.197-0.018-0.474-0.054-0.832l-0.696,0.081c-0.357,0.054-0.616,0.081-0.777,0.081c-0.34,0-0.688-0.144-1.045-0.43
		c0-0.375,0.044-0.724,0.134-1.045c-0.09-0.447-0.134-0.947-0.134-1.501c0-0.518,0.07-1.438,0.214-2.761
		c0.125-1.143,0.188-2.046,0.188-2.707v-4.958c0-0.232,0.063-0.375,0.188-0.429c0.09-0.054,0.196-0.081,0.322-0.081
		c0.231,0,0.424,0.059,0.576,0.174c0.151,0.117,0.228,0.272,0.228,0.469c0,0.393-0.018,0.742-0.054,1.045l-0.054,1.045v0.241
		c-0.018,0.072-0.026,0.152-0.026,0.241c0,0.144,0.018,0.304,0.054,0.482v0.107c0.054,0.447,0.08,0.92,0.08,1.42
		c0,0.875-0.063,2.01-0.188,3.404s-0.188,2.529-0.188,3.404c0,0.125,0.018,0.331,0.054,0.617c0.41-0.036,0.732-0.09,0.965-0.162
		c0-0.643,0.044-1.902,0.134-3.778c0.071-1.501,0.107-2.734,0.107-3.699c0-0.178,0.075-0.326,0.228-0.442
		c0.151-0.116,0.309-0.174,0.469-0.174l0.429,0.482v1.287c0,2.323-0.018,4.396-0.053,6.218c0.018,0,0.049-0.004,0.094-0.014
		c0.044-0.009,0.12-0.013,0.228-0.013c0.125-0.018,0.276-0.027,0.455-0.027c0.536,0,0.805,0.188,0.805,0.563
		c0,0.43-0.357,0.644-1.072,0.644c-0.304,0-0.456,0.081-0.456,0.241c0,0.75,0.027,1.621,0.081,2.613s0.125,1.577,0.214,1.756
		c-0.036,0.143-0.054,0.313-0.054,0.509c0,0.232,0.036,0.411,0.107,0.536v0.482c0,0.286-0.049,0.527-0.147,0.724
		s-0.254,0.295-0.469,0.295C261.244,108.737,261.038,108.604,260.878,108.336z"/>
	<path d="M265.381,93.085v-0.858c0-1.34,0.151-2.385,0.455-3.136c0.143-0.429,0.371-0.754,0.684-0.978s0.692-0.335,1.139-0.335
		c2.556,0,3.833,4.548,3.833,13.642c0,4.485-0.956,6.728-2.868,6.728C266.461,108.147,265.381,103.127,265.381,93.085z
		 M269.562,106.111c0.304-0.787,0.519-2.1,0.644-3.94c0.035-0.394,0.054-0.849,0.054-1.367c0-1.197-0.054-2.787-0.161-4.771
		c-0.125-1.876-0.402-3.574-0.831-5.092c-0.196-0.768-0.46-1.376-0.79-1.823c-0.331-0.446-0.702-0.697-1.112-0.75
		c-0.269,0.214-0.452,0.438-0.55,0.67c-0.099,0.232-0.147,0.545-0.147,0.938c0,0.983,0.018,1.859,0.054,2.627l0.054,2.68
		c0,0.232,0.044,0.661,0.134,1.287c0.089,0.661,0.134,1.099,0.134,1.313c0,0.429,0.027,1.412,0.081,2.948
		c0.07,1.466,0.241,2.814,0.509,4.048c0.125,0.626,0.295,1.121,0.509,1.487c0.215,0.367,0.456,0.549,0.724,0.549
		C269.15,106.914,269.383,106.646,269.562,106.111z"/>
	<path d="M273.984,93.085v-0.858c0-1.34,0.151-2.385,0.455-3.136c0.143-0.429,0.371-0.754,0.684-0.978s0.692-0.335,1.139-0.335
		c2.556,0,3.833,4.548,3.833,13.642c0,4.485-0.956,6.728-2.868,6.728C275.064,108.147,273.984,103.127,273.984,93.085z
		 M278.165,106.111c0.304-0.787,0.519-2.1,0.644-3.94c0.035-0.394,0.054-0.849,0.054-1.367c0-1.197-0.054-2.787-0.161-4.771
		c-0.125-1.876-0.402-3.574-0.831-5.092c-0.196-0.768-0.46-1.376-0.79-1.823c-0.331-0.446-0.702-0.697-1.112-0.75
		c-0.269,0.214-0.452,0.438-0.55,0.67c-0.099,0.232-0.147,0.545-0.147,0.938c0,0.983,0.018,1.859,0.054,2.627l0.054,2.68
		c0,0.232,0.044,0.661,0.134,1.287c0.089,0.661,0.134,1.099,0.134,1.313c0,0.429,0.027,1.412,0.081,2.948
		c0.07,1.466,0.241,2.814,0.509,4.048c0.125,0.626,0.295,1.121,0.509,1.487c0.215,0.367,0.456,0.549,0.724,0.549
		C277.754,106.914,277.986,106.646,278.165,106.111z"/>
	<path d="M283.579,108.201c-0.125-0.09-0.188-0.285-0.188-0.59c0-0.196,0.044-0.33,0.134-0.402c0.09-0.07,0.277-0.106,0.563-0.106
		c0.393,0,0.589-0.151,0.589-0.456c0-1.769-0.134-4.377-0.401-7.826c-0.269-3.466-0.402-6.039-0.402-7.719
		c0-0.161,0.009-0.313,0.026-0.456v-0.509c0-0.84-0.304-1.26-0.911-1.26h-0.295l-0.321,0.027c-0.519,0-0.777-0.196-0.777-0.59
		c0-0.464,0.724-0.697,2.171-0.697c0.769,0,1.224,0.152,1.367,0.456c-0.107,0.482-0.161,0.858-0.161,1.126
		c0,0.482,0.071,1.295,0.215,2.439c0.125,1.019,0.188,1.84,0.188,2.466c0,1.269,0.098,3.377,0.295,6.325
		c0.196,2.608,0.295,4.735,0.295,6.379v0.161c0.071,0,0.169-0.01,0.295-0.027c0.124-0.018,0.25-0.027,0.375-0.027
		c0.071-0.018,0.179-0.026,0.321-0.026c0.751,0,1.126,0.224,1.126,0.671c0,0.518-1.019,0.777-3.056,0.777h-0.429h-0.375
		C283.918,108.336,283.704,108.291,283.579,108.201z"/>
	<path d="M293.415,108.336c-0.161-0.269-0.241-0.563-0.241-0.885v-0.081c0.089-0.356,0.134-0.679,0.134-0.965
		c0-0.321-0.027-0.759-0.08-1.313c-0.072-0.518-0.107-0.955-0.107-1.313v-0.59c0.018-0.161,0.026-0.349,0.026-0.563
		c0-0.197-0.018-0.474-0.054-0.832l-0.696,0.081c-0.357,0.054-0.616,0.081-0.777,0.081c-0.34,0-0.688-0.144-1.045-0.43
		c0-0.375,0.044-0.724,0.134-1.045c-0.09-0.447-0.134-0.947-0.134-1.501c0-0.518,0.07-1.438,0.214-2.761
		c0.125-1.143,0.188-2.046,0.188-2.707v-4.958c0-0.232,0.063-0.375,0.188-0.429c0.09-0.054,0.196-0.081,0.322-0.081
		c0.231,0,0.424,0.059,0.576,0.174c0.151,0.117,0.228,0.272,0.228,0.469c0,0.393-0.018,0.742-0.054,1.045l-0.054,1.045v0.241
		c-0.018,0.072-0.026,0.152-0.026,0.241c0,0.144,0.018,0.304,0.054,0.482v0.107c0.054,0.447,0.08,0.92,0.08,1.42
		c0,0.875-0.063,2.01-0.188,3.404s-0.188,2.529-0.188,3.404c0,0.125,0.018,0.331,0.054,0.617c0.41-0.036,0.732-0.09,0.965-0.162
		c0-0.643,0.044-1.902,0.134-3.778c0.071-1.501,0.107-2.734,0.107-3.699c0-0.178,0.075-0.326,0.228-0.442
		c0.151-0.116,0.309-0.174,0.469-0.174l0.429,0.482v1.287c0,2.323-0.018,4.396-0.053,6.218c0.018,0,0.049-0.004,0.094-0.014
		c0.044-0.009,0.12-0.013,0.228-0.013c0.125-0.018,0.276-0.027,0.455-0.027c0.536,0,0.805,0.188,0.805,0.563
		c0,0.43-0.357,0.644-1.072,0.644c-0.304,0-0.456,0.081-0.456,0.241c0,0.75,0.027,1.621,0.081,2.613s0.125,1.577,0.214,1.756
		c-0.036,0.143-0.054,0.313-0.054,0.509c0,0.232,0.036,0.411,0.107,0.536v0.482c0,0.286-0.049,0.527-0.147,0.724
		s-0.254,0.295-0.469,0.295C293.781,108.737,293.575,108.604,293.415,108.336z"/>
	<path d="M96.21,140.27c-0.116-0.169-0.174-0.379-0.174-0.629l0.054-4.503c0.054-2.18,0.081-3.868,0.081-5.065
		c0-4.163-0.232-7.353-0.697-9.568c0.268-0.411,0.607-0.617,1.018-0.617c0.661,0,1.264,0.147,1.81,0.442
		c0.544,0.295,0.996,0.692,1.354,1.192c0.697,1.037,1.045,2.198,1.045,3.484c0,1.341-0.286,2.538-0.857,3.592
		c-0.572,1.055-1.403,1.876-2.493,2.466l0.054,2.707l0.054,1.421c0.018,0.304,0.026,0.741,0.026,1.313
		c0.054,1.197,0.081,2.171,0.081,2.922c0,0.34-0.072,0.607-0.214,0.804c-0.143,0.196-0.366,0.295-0.67,0.295
		C96.482,140.524,96.326,140.439,96.21,140.27z M98.836,127.7c0.331-0.724,0.496-1.541,0.496-2.453v-0.026
		c0-0.411-0.045-0.929-0.134-1.555c-0.053-0.214-0.152-0.429-0.294-0.644c-0.144-0.214-0.224-0.339-0.241-0.375
		c-0.125-0.178-0.456-0.455-0.992-0.831l-0.697-0.509c0,0.911,0.053,2.323,0.161,4.234l0.161,4.235
		C97.992,129.116,98.506,128.424,98.836,127.7z"/>
	<path d="M107.319,135.969l0.027-1.528l0.027-1.232v-0.081v-0.268c0.018-0.143,0.026-0.313,0.026-0.51
		c0-0.035-0.026-0.08-0.08-0.134s-0.081-0.098-0.081-0.134v-0.026c-0.089,0.035-0.25,0.053-0.482,0.053
		c-0.232,0-0.519-0.035-0.857-0.106c-0.107-0.018-0.394-0.063-0.858-0.135v3.083c0,0.465,0.027,1.197,0.081,2.197
		c0.054,0.983,0.08,1.716,0.08,2.198c0,0.268-0.071,0.5-0.214,0.696c-0.143,0.197-0.331,0.295-0.563,0.295
		c-0.34,0-0.581-0.33-0.724-0.991c-0.144-0.68-0.215-1.563-0.215-2.653l0.054-2.172c0.018-0.606,0.027-1.25,0.027-1.93v-0.455
		v-0.375c0-0.286-0.009-0.474-0.027-0.563v-0.134l0.081-1.555c0-0.679-0.027-1.688-0.081-3.028s-0.08-2.35-0.08-3.028
		c0-0.215,0.071-0.402,0.214-0.563c0.143-0.16,0.321-0.241,0.536-0.241c0.572,0,0.858,0.536,0.858,1.608l-0.054,3.323
		c-0.036,1.001-0.054,2.117-0.054,3.351c0.268,0.09,0.75,0.134,1.448,0.134h0.991c0.036-0.107,0.054-0.215,0.054-0.321
		c0-0.858-0.054-2.127-0.161-3.807c-0.125-1.571-0.188-2.85-0.188-3.832c0-0.196,0.076-0.362,0.228-0.496s0.335-0.201,0.55-0.201
		c0.125,0,0.303,0.045,0.536,0.134l0.241,0.107c0,2.537,0.089,5.924,0.268,10.158l0.241,6.781c0,0.25-0.094,0.446-0.281,0.589
		c-0.188,0.144-0.407,0.215-0.657,0.215C107.623,140.391,107.319,138.917,107.319,135.969z"/>
	<path d="M113.698,137.791c-0.179-0.196-0.268-0.42-0.268-0.67c0-0.269,0.098-0.51,0.295-0.724c0.196-0.215,0.429-0.322,0.697-0.322
		c0.25,0,0.469,0.104,0.657,0.309s0.281,0.442,0.281,0.71c0,0.286-0.098,0.522-0.295,0.711c-0.197,0.188-0.447,0.281-0.75,0.281
		C114.082,138.086,113.876,137.987,113.698,137.791z M113.966,127.659c-0.179-0.196-0.268-0.419-0.268-0.67
		c0-0.268,0.098-0.509,0.295-0.724c0.196-0.214,0.429-0.321,0.697-0.321c0.25,0,0.473,0.107,0.67,0.321
		c0.196,0.215,0.295,0.447,0.295,0.697c0,0.286-0.103,0.522-0.308,0.71c-0.206,0.188-0.46,0.281-0.764,0.281
		C114.35,127.954,114.145,127.856,113.966,127.659z"/>
	<path d="M127.045,140.337c0.268-0.84,0.402-3.814,0.402-8.925c0-0.679-0.009-1.26-0.026-1.742l-0.027-1.475
		c-1.001-0.231-1.818-0.719-2.453-1.46s-0.951-1.612-0.951-2.613c0-0.858,0.089-1.662,0.268-2.412
		c0.125-0.5,0.281-0.916,0.469-1.247c0.188-0.33,0.433-0.611,0.737-0.844c0.303-0.232,0.679-0.349,1.125-0.349
		c0.857,0,1.447,0.192,1.769,0.576c0.321,0.385,0.482,1.041,0.482,1.97c0,1.716-0.054,4.289-0.161,7.72
		c-0.107,3.448-0.161,6.03-0.161,7.745c0,0.197-0.027,0.51-0.081,0.938c-0.071,0.411-0.107,0.741-0.107,0.991
		c0,0.09,0.009,0.171,0.027,0.241v0.295c0,0.322-0.081,0.586-0.241,0.791c-0.161,0.205-0.385,0.309-0.67,0.309L127.045,140.337z
		 M127.554,121.71c0-0.447-0.067-0.777-0.201-0.992c-0.134-0.214-0.389-0.321-0.764-0.321c-0.232,0-0.442,0.147-0.63,0.442
		s-0.326,0.665-0.416,1.112c-0.161,0.875-0.241,1.581-0.241,2.117c0,0.411,0.027,0.769,0.081,1.072
		c0.036,0.179,0.081,0.313,0.134,0.401l0.134,0.322c0.036,0.089,0.107,0.179,0.214,0.268l0.241,0.241
		c0.089,0.071,0.196,0.147,0.322,0.228c0.125,0.081,0.214,0.139,0.268,0.175c0.018,0.018,0.053,0.04,0.107,0.066
		c0.054,0.027,0.134,0.067,0.241,0.121l0.375,0.214C127.509,125.694,127.554,123.872,127.554,121.71z"/>
	<path d="M134.147,140.123c0-0.197,0.081-0.349,0.241-0.456s0.348-0.161,0.563-0.161c0.286,0,0.518,0.081,0.697,0.241
		c0.393-0.143,0.724-0.611,0.992-1.407c0.268-0.794,0.402-1.541,0.402-2.237c0-0.894-0.009-1.652-0.027-2.278
		c-0.054-0.804-0.143-1.527-0.268-2.171c-0.071-0.375-0.152-0.688-0.241-0.938c-0.089-0.25-0.224-0.526-0.402-0.831
		c-0.25-0.446-0.661-0.785-1.233-1.018c-0.304-0.09-0.599-0.135-0.884-0.135c-0.412,0-0.688-0.169-0.831-0.509
		c-0.09-0.269-0.134-0.607-0.134-1.019c0-0.143,0.027-0.375,0.081-0.697l0.054-0.67c0-0.821-0.045-1.581-0.134-2.278l-0.348-2.225
		l-0.161-1.099l0.456-0.482h2.171c0.75,0,1.125,0.232,1.125,0.697v0.134l-0.509,0.402h-0.67v-0.081h-1.125
		c0.018,0.894,0.188,3.021,0.509,6.379l0.536,0.054c0.393,0.036,0.768,0.099,1.126,0.188c0.196,0.054,0.366,0.134,0.509,0.241
		c0.375,0.269,0.706,0.862,0.992,1.782c0.286,0.921,0.473,1.872,0.563,2.854c0.089,0.947,0.134,1.716,0.134,2.306
		c0,0.821-0.018,1.501-0.054,2.036c-0.018,0.376-0.054,0.675-0.107,0.898c-0.053,0.224-0.143,0.522-0.268,0.897
		c-0.107,0.305-0.237,0.572-0.389,0.805c-0.152,0.232-0.353,0.482-0.603,0.75c-0.25,0.251-0.536,0.51-0.858,0.777h-0.188h-0.268
		C134.63,140.873,134.147,140.623,134.147,140.123z"/>
	<path d="M143.42,140.337c0.268-0.84,0.402-3.814,0.402-8.925c0-0.679-0.009-1.26-0.026-1.742l-0.027-1.475
		c-1.001-0.231-1.818-0.719-2.453-1.46s-0.951-1.612-0.951-2.613c0-0.858,0.089-1.662,0.268-2.412
		c0.125-0.5,0.281-0.916,0.469-1.247c0.188-0.33,0.433-0.611,0.737-0.844c0.303-0.232,0.679-0.349,1.125-0.349
		c0.857,0,1.447,0.192,1.769,0.576c0.321,0.385,0.482,1.041,0.482,1.97c0,1.716-0.054,4.289-0.161,7.72
		c-0.107,3.448-0.161,6.03-0.161,7.745c0,0.197-0.027,0.51-0.081,0.938c-0.071,0.411-0.107,0.741-0.107,0.991
		c0,0.09,0.009,0.171,0.027,0.241v0.295c0,0.322-0.081,0.586-0.241,0.791c-0.161,0.205-0.385,0.309-0.67,0.309L143.42,140.337z
		 M143.93,121.71c0-0.447-0.067-0.777-0.201-0.992c-0.134-0.214-0.389-0.321-0.764-0.321c-0.232,0-0.442,0.147-0.63,0.442
		s-0.326,0.665-0.416,1.112c-0.161,0.875-0.241,1.581-0.241,2.117c0,0.411,0.027,0.769,0.081,1.072
		c0.036,0.179,0.081,0.313,0.134,0.401l0.134,0.322c0.036,0.089,0.107,0.179,0.214,0.268l0.241,0.241
		c0.089,0.071,0.196,0.147,0.322,0.228c0.125,0.081,0.214,0.139,0.268,0.175c0.018,0.018,0.053,0.04,0.107,0.066
		c0.054,0.027,0.134,0.067,0.241,0.121l0.375,0.214C143.885,125.694,143.93,123.872,143.93,121.71z"/>
	<path d="M150.523,140.123c0-0.197,0.08-0.349,0.241-0.456c0.16-0.107,0.348-0.161,0.563-0.161c0.285,0,0.518,0.081,0.697,0.241
		c0.393-0.143,0.723-0.611,0.991-1.407c0.268-0.794,0.402-1.541,0.402-2.237c0-0.894-0.01-1.652-0.027-2.278
		c-0.054-0.804-0.144-1.527-0.268-2.171c-0.072-0.375-0.152-0.688-0.241-0.938c-0.09-0.25-0.224-0.526-0.402-0.831
		c-0.25-0.446-0.661-0.785-1.232-1.018c-0.305-0.09-0.6-0.135-0.885-0.135c-0.412,0-0.688-0.169-0.831-0.509
		c-0.09-0.269-0.134-0.607-0.134-1.019c0-0.143,0.027-0.375,0.081-0.697l0.054-0.67c0-0.821-0.045-1.581-0.134-2.278l-0.348-2.225
		l-0.161-1.099l0.456-0.482h2.171c0.75,0,1.126,0.232,1.126,0.697v0.134l-0.51,0.402h-0.67v-0.081h-1.125
		c0.018,0.894,0.188,3.021,0.509,6.379l0.536,0.054c0.393,0.036,0.768,0.099,1.125,0.188c0.197,0.054,0.366,0.134,0.51,0.241
		c0.375,0.269,0.705,0.862,0.991,1.782c0.286,0.921,0.474,1.872,0.563,2.854c0.089,0.947,0.134,1.716,0.134,2.306
		c0,0.821-0.019,1.501-0.054,2.036c-0.018,0.376-0.054,0.675-0.107,0.898s-0.143,0.522-0.268,0.897
		c-0.107,0.305-0.237,0.572-0.389,0.805c-0.152,0.232-0.354,0.482-0.604,0.75c-0.25,0.251-0.536,0.51-0.857,0.777h-0.188h-0.269
		C151.006,140.873,150.523,140.623,150.523,140.123z"/>
	<path d="M157.33,125.247v-0.857c0-1.34,0.151-2.385,0.455-3.136c0.143-0.429,0.371-0.755,0.684-0.979
		c0.313-0.223,0.692-0.335,1.139-0.335c2.556,0,3.833,4.548,3.833,13.643c0,4.485-0.956,6.728-2.868,6.728
		C158.41,140.311,157.33,135.289,157.33,125.247z M161.511,138.273c0.304-0.786,0.519-2.1,0.644-3.94
		c0.035-0.393,0.054-0.848,0.054-1.366c0-1.197-0.054-2.788-0.161-4.771c-0.125-1.876-0.402-3.573-0.831-5.092
		c-0.196-0.769-0.46-1.376-0.79-1.823c-0.331-0.446-0.702-0.696-1.112-0.75c-0.269,0.215-0.452,0.438-0.55,0.67
		c-0.099,0.232-0.147,0.545-0.147,0.938c0,0.982,0.018,1.858,0.054,2.626l0.054,2.681c0,0.232,0.044,0.661,0.134,1.286
		c0.089,0.661,0.134,1.1,0.134,1.313c0,0.429,0.027,1.412,0.081,2.948c0.07,1.466,0.241,2.814,0.509,4.047
		c0.125,0.626,0.295,1.122,0.509,1.488c0.215,0.366,0.456,0.549,0.724,0.549C161.1,139.077,161.332,138.81,161.511,138.273z"/>
	<path d="M167.487,140.123c-0.25-0.197-0.375-0.438-0.375-0.724c0-0.179,0.027-0.3,0.081-0.362c0.053-0.063,0.178-0.094,0.375-0.094
		c0.143,0,0.268,0.054,0.375,0.161c0.143,0.143,0.281,0.254,0.415,0.335c0.135,0.08,0.309,0.12,0.523,0.12
		c1.089,0,1.635-1.009,1.635-3.028c0-0.929-0.01-1.617-0.027-2.063c-0.018-0.447-0.071-1.001-0.16-1.662
		c-0.215-1.43-0.697-2.608-1.447-3.538c-0.036,0.019-0.126,0.027-0.269,0.027c-0.232,0-0.429-0.045-0.59-0.135
		c-0.16-0.089-0.241-0.223-0.241-0.401c0-0.304,0.295-0.751,0.885-1.341c0.232-0.25,0.429-0.566,0.59-0.951
		c0.16-0.384,0.241-0.764,0.241-1.139c0-0.732-0.081-1.546-0.241-2.439c-0.09-0.536-0.237-0.974-0.442-1.313
		c-0.206-0.339-0.442-0.509-0.71-0.509c-0.197,0-0.371,0.071-0.523,0.214c-0.151,0.144-0.264,0.322-0.335,0.536
		c-0.053,0.215-0.16,0.398-0.321,0.55c-0.161,0.152-0.357,0.228-0.59,0.228c-0.196,0-0.371-0.066-0.522-0.201
		c-0.152-0.134-0.246-0.308-0.281-0.522c0.25-0.625,0.603-1.125,1.059-1.501c0.456-0.375,0.979-0.563,1.568-0.563
		c0.41,0,0.785,0.13,1.125,0.389s0.607,0.603,0.805,1.032c0.178,0.411,0.33,0.889,0.455,1.434s0.205,1.059,0.241,1.541
		c0.036,0.34,0.054,0.831,0.054,1.475c0,0.25-0.04,0.5-0.12,0.75c-0.081,0.25-0.166,0.447-0.255,0.59
		c-0.09,0.196-0.232,0.411-0.429,0.643l-0.402,0.59c0.411,0.251,0.777,0.68,1.099,1.287c0.322,0.607,0.563,1.313,0.724,2.117
		c0.286,1.501,0.429,2.841,0.429,4.021c0,0.732-0.044,1.447-0.134,2.144c-0.125,0.751-0.384,1.403-0.777,1.957
		c-0.375,0.59-1.001,0.884-1.876,0.884C168.435,140.658,167.898,140.479,167.487,140.123z"/>
	<path d="M178.504,140.498c-0.161-0.269-0.241-0.563-0.241-0.885v-0.08c0.089-0.357,0.134-0.679,0.134-0.965
		c0-0.322-0.027-0.76-0.08-1.313c-0.072-0.519-0.107-0.956-0.107-1.313v-0.59c0.018-0.16,0.026-0.349,0.026-0.563
		c0-0.196-0.018-0.474-0.054-0.831l-0.696,0.08c-0.357,0.054-0.616,0.081-0.777,0.081c-0.34,0-0.688-0.143-1.045-0.429
		c0-0.376,0.044-0.724,0.134-1.046c-0.09-0.446-0.134-0.946-0.134-1.501c0-0.518,0.07-1.438,0.214-2.761
		c0.125-1.143,0.188-2.045,0.188-2.706v-4.959c0-0.231,0.063-0.375,0.188-0.429c0.09-0.054,0.196-0.08,0.322-0.08
		c0.231,0,0.424,0.058,0.576,0.174c0.151,0.116,0.228,0.272,0.228,0.469c0,0.394-0.018,0.742-0.054,1.046l-0.054,1.045v0.241
		c-0.018,0.071-0.026,0.152-0.026,0.241c0,0.144,0.018,0.304,0.054,0.482v0.107c0.054,0.446,0.08,0.92,0.08,1.421
		c0,0.875-0.063,2.01-0.188,3.403s-0.188,2.528-0.188,3.404c0,0.125,0.018,0.33,0.054,0.616c0.41-0.036,0.732-0.089,0.965-0.161
		c0-0.643,0.044-1.902,0.134-3.779c0.071-1.501,0.107-2.733,0.107-3.698c0-0.179,0.075-0.326,0.228-0.442
		c0.151-0.116,0.309-0.174,0.469-0.174l0.429,0.482v1.286c0,2.323-0.018,4.396-0.053,6.218c0.018,0,0.049-0.004,0.094-0.013
		c0.044-0.009,0.12-0.014,0.228-0.014c0.125-0.018,0.276-0.026,0.455-0.026c0.536,0,0.805,0.188,0.805,0.563
		c0,0.429-0.357,0.644-1.072,0.644c-0.304,0-0.456,0.08-0.456,0.241c0,0.75,0.027,1.621,0.081,2.612
		c0.054,0.992,0.125,1.577,0.214,1.756c-0.036,0.144-0.054,0.313-0.054,0.51c0,0.232,0.036,0.411,0.107,0.536v0.482
		c0,0.285-0.049,0.526-0.147,0.724c-0.099,0.196-0.254,0.294-0.469,0.294C178.87,140.899,178.664,140.766,178.504,140.498z"/>
	<path d="M185.043,140.123c0-0.197,0.081-0.349,0.241-0.456c0.161-0.107,0.349-0.161,0.563-0.161c0.285,0,0.518,0.081,0.696,0.241
		c0.394-0.143,0.724-0.611,0.992-1.407c0.268-0.794,0.402-1.541,0.402-2.237c0-0.894-0.01-1.652-0.027-2.278
		c-0.054-0.804-0.144-1.527-0.268-2.171c-0.072-0.375-0.152-0.688-0.241-0.938c-0.09-0.25-0.224-0.526-0.402-0.831
		c-0.25-0.446-0.661-0.785-1.233-1.018c-0.304-0.09-0.599-0.135-0.884-0.135c-0.411,0-0.688-0.169-0.831-0.509
		c-0.09-0.269-0.134-0.607-0.134-1.019c0-0.143,0.026-0.375,0.08-0.697l0.054-0.67c0-0.821-0.045-1.581-0.134-2.278l-0.349-2.225
		l-0.161-1.099l0.456-0.482h2.171c0.75,0,1.126,0.232,1.126,0.697v0.134l-0.51,0.402h-0.67v-0.081h-1.126
		c0.018,0.894,0.188,3.021,0.51,6.379l0.536,0.054c0.393,0.036,0.768,0.099,1.125,0.188c0.197,0.054,0.366,0.134,0.51,0.241
		c0.375,0.269,0.705,0.862,0.991,1.782c0.286,0.921,0.474,1.872,0.563,2.854c0.089,0.947,0.134,1.716,0.134,2.306
		c0,0.821-0.019,1.501-0.054,2.036c-0.018,0.376-0.054,0.675-0.107,0.898s-0.143,0.522-0.268,0.897
		c-0.107,0.305-0.237,0.572-0.389,0.805c-0.152,0.232-0.354,0.482-0.604,0.75c-0.25,0.251-0.536,0.51-0.857,0.777h-0.188h-0.269
		C185.525,140.873,185.043,140.623,185.043,140.123z"/>
	<path d="M192.922,138.943c-0.429-1.072-0.688-2.296-0.777-3.672c-0.106-1.251-0.16-2.627-0.16-4.128v-1.26v-1.018
		c0-6.146,0.965-9.221,2.895-9.221c0.143,0,0.281,0.054,0.415,0.161c0.135,0.107,0.201,0.232,0.201,0.375
		c0,0.215-0.099,0.407-0.295,0.576c-0.196,0.17-0.438,0.281-0.724,0.335c-0.214,0.197-0.415,0.773-0.603,1.729
		s-0.326,1.942-0.416,2.961l-0.134,2.198c0.179-0.036,0.313-0.054,0.402-0.054c0.41,0,0.786,0.134,1.125,0.402
		c0.34,0.268,0.626,0.625,0.858,1.071c0.393,0.733,0.714,1.841,0.965,3.324c0.143,1.144,0.231,2.269,0.268,3.377v1.206
		c0,0.34-0.009,0.656-0.026,0.951c-0.019,0.295-0.063,0.586-0.134,0.871c-0.09,0.321-0.206,0.581-0.349,0.777
		c-0.144,0.197-0.357,0.357-0.644,0.482c-0.304,0.125-0.635,0.188-0.991,0.188C193.958,140.578,193.333,140.033,192.922,138.943z
		 M195.71,137.604c0-1.055-0.107-2.636-0.322-4.744c-0.143-1.18-0.33-2.1-0.563-2.761c-0.268-0.75-0.581-1.17-0.938-1.26
		c-0.232,0.179-0.389,0.375-0.469,0.59c-0.08,0.214-0.12,0.509-0.12,0.885c0,0.482,0.009,0.875,0.026,1.179l0.027,0.992
		c0.018,1.001,0.08,2.01,0.188,3.028c0.089,0.947,0.259,1.858,0.509,2.733c0.232,0.787,0.554,1.18,0.965,1.18
		C195.478,139.426,195.71,138.818,195.71,137.604z"/>
	<path d="M200.507,138.943c-0.429-1.072-0.688-2.296-0.777-3.672c-0.106-1.251-0.16-2.627-0.16-4.128v-1.26v-1.018
		c0-6.146,0.965-9.221,2.895-9.221c0.143,0,0.281,0.054,0.415,0.161c0.135,0.107,0.201,0.232,0.201,0.375
		c0,0.215-0.099,0.407-0.295,0.576c-0.196,0.17-0.438,0.281-0.724,0.335c-0.214,0.197-0.415,0.773-0.603,1.729
		s-0.326,1.942-0.416,2.961l-0.134,2.198c0.179-0.036,0.313-0.054,0.402-0.054c0.41,0,0.786,0.134,1.125,0.402
		c0.34,0.268,0.626,0.625,0.858,1.071c0.393,0.733,0.714,1.841,0.965,3.324c0.143,1.144,0.231,2.269,0.268,3.377v1.206
		c0,0.34-0.009,0.656-0.026,0.951c-0.019,0.295-0.063,0.586-0.134,0.871c-0.09,0.321-0.206,0.581-0.349,0.777
		c-0.144,0.197-0.357,0.357-0.644,0.482c-0.304,0.125-0.635,0.188-0.991,0.188C201.543,140.578,200.918,140.033,200.507,138.943z
		 M203.295,137.604c0-1.055-0.107-2.636-0.322-4.744c-0.143-1.18-0.33-2.1-0.563-2.761c-0.268-0.75-0.581-1.17-0.938-1.26
		c-0.232,0.179-0.389,0.375-0.469,0.59c-0.08,0.214-0.12,0.509-0.12,0.885c0,0.482,0.009,0.875,0.026,1.179l0.027,0.992
		c0.018,1.001,0.08,2.01,0.188,3.028c0.089,0.947,0.259,1.858,0.509,2.733c0.232,0.787,0.554,1.18,0.965,1.18
		C203.063,139.426,203.295,138.818,203.295,137.604z"/>
</g>
</svg>
