<?xml version="1.0" encoding="utf-8"?>
<!-- Generator: Adobe Illustrator 16.0.0, SVG Export Plug-In . SVG Version: 6.00 Build 0)  -->
<!DOCTYPE svg PUBLIC "-//W3C//DTD SVG 1.1//EN" "http://www.w3.org/Graphics/SVG/1.1/DTD/svg11.dtd">
<svg version="1.1" id="Layer_1" xmlns="http://www.w3.org/2000/svg" xmlns:xlink="http://www.w3.org/1999/xlink" x="0px" y="0px"
	 width="595.28px" height="841.89px" viewBox="0 0 595.28 841.89" enable-background="new 0 0 595.28 841.89" xml:space="preserve">
<g>
	<g>
		<path d="M99.908,467.551c-0.879-1.467-1.318-3.588-1.318-6.373l-0.22-32.52c-0.147-2.779-0.22-7.394-0.22-13.841
			c-0.295-13.623-0.439-29.004-0.439-46.143v-11.206c-1.318,7.031-3.591,16.919-6.812,29.663
			c-3.224,13.184-5.493,24.025-6.812,32.52v1.318l-0.659,4.173c-0.295,3.225-1.026,6.521-2.197,9.889
			c-1.466,3.516-3.735,5.273-6.812,5.273c-5.273,0-7.909-6.883-7.909-20.654c0-7.615-0.77-15.783-2.308-24.5
			c-1.538-8.713-3.993-19.445-7.36-32.189l-6.592-24.608l-0.439,26.366c0,7.91,0.363,22.999,1.099,45.264l0.439,14.941l0.439,30.102
			c0,3.076-1.099,5.861-3.296,8.35c-3.663,0-6.19-1.133-7.581-3.404c-1.394-2.27-2.087-5.604-2.087-9.998l0.439-18.018
			c0.439-7.91,0.659-13.842,0.659-17.797l-0.439-42.407l-0.439-42.626c0-6.297,0.145-15.745,0.439-28.345l5.933-3.516
			c1.171,0.147,2.341,0.989,3.516,2.527c1.171,1.538,2.489,3.992,3.955,7.36c3.659,9.084,8.421,27.246,14.281,54.491
			c0.879,3.812,1.463,6.959,1.758,9.448c1.758,8.497,3.001,14.941,3.735,19.336l3.296,16.919l1.538-7.251l4.175-18.018
			c2.342-10.547,4.285-19.775,5.823-27.686s3.038-16.479,4.504-25.707c1.61-10.986,2.637-20.14,3.076-27.466v-1.318
			c0.292-1.902,1.171-3.405,2.637-4.504c1.463-1.099,3.221-1.648,5.273-1.648c1.318,0,2.489,0.587,3.516,1.758
			c1.023,1.174,1.538,2.417,1.538,3.735c0,17.578,0.659,43.873,1.978,78.881c0.731,17.139,1.243,33.913,1.538,50.317
			c0.292,7.471,0.439,16.918,0.439,28.344c0,3.371-0.879,6.373-2.637,9.01s-3.735,3.955-5.933,3.955
			C101.958,469.748,100.787,469.014,99.908,467.551z"/>
		<path d="M171.975,457.223c0-3.516,2.27-5.273,6.812-5.273h2.417l2.197,0.221c1.171,0,1.978-0.365,2.417-1.1
			c0.439-0.73,0.659-2.049,0.659-3.955c0-2.488-0.147-6.371-0.439-11.645c-0.439-3.516-0.955-9.813-1.538-18.896
			c-1.318-22.412-1.978-39.331-1.978-50.757c0-4.099,0.072-7.834,0.22-11.206l0.22-11.206c0-4.833-0.22-8.86-0.659-12.084
			c-2.345,0.587-4.03,0.879-5.054,0.879c-3.516,0-5.273-1.758-5.273-5.273c0-1.758,1.099-3.296,3.296-4.614s4.978-2.27,8.35-2.856
			c5.856-1.171,11.058-1.758,15.601-1.758c1.758,0,3.258,0.625,4.504,1.867c1.243,1.246,1.868,2.675,1.868,4.285
			c0,1.613-0.478,3.004-1.429,4.175c-0.954,1.174-2.163,1.758-3.625,1.758c-0.879,0-1.614-0.072-2.197-0.22h-1.758
			c-1.467,0-2.527,0.329-3.187,0.988s-0.988,1.868-0.988,3.626c0,14.21,0.879,35.595,2.637,64.159
			c0.291,5.273,0.879,13.039,1.758,23.291c0.73,6.739,1.099,13.622,1.099,20.653v8.35c0.879-0.143,2.341-0.219,4.395-0.219
			c6.151,0,9.228,2.564,9.228,7.689v1.318l-5.492,3.736c-0.148,0-0.625,0.037-1.429,0.109c-0.807,0.076-2.307,0.109-4.504,0.109
			c-4.69,0.295-7.69,0.439-9.009,0.439C178.347,463.814,171.975,461.617,171.975,457.223z"/>
		<path d="M267.224,464.254c-1.833-1.463-2.894-3.367-3.186-5.713l2.417-3.734c0.879,0,2.27,0.295,4.175,0.879
			c2.197,0.439,3.879,0.658,5.054,0.658c2.637,0,5.016-1.17,7.141-3.516c2.122-2.34,3.697-5.416,4.725-9.229
			c1.901-7.031,2.856-13.326,2.856-18.896c0-9.667-3.076-19.846-9.229-30.541l-2.417-4.175c-2.784-4.834-5.13-9.153-7.031-12.964
			c-1.905-3.808-3.516-7.91-4.834-12.305c-1.758-5.713-2.637-11.426-2.637-17.139c0-6.443,1.463-13.183,4.395-20.214
			c1.462-3.368,3.55-6.115,6.262-8.24c2.709-2.121,5.747-3.186,9.119-3.186c2.637,0,5.088,0.845,7.36,2.526
			c2.27,1.686,3.406,3.701,3.406,6.043c0,1.318-0.516,2.345-1.538,3.076c-1.027,0.734-2.273,1.099-3.735,1.099
			c-1.614,0-3.152-0.439-4.614-1.318c-3.224,0.147-5.789,3.004-7.69,8.569c-1.614,5.129-2.417,9.376-2.417,12.743
			c0,4.251,0.659,8.535,1.978,12.854c1.318,4.322,3,8.239,5.054,11.755l4.834,8.789l7.69,14.502
			c2.049,4.103,3.697,8.864,4.943,14.282c1.243,5.421,1.867,10.914,1.867,16.478c0,8.938-2.053,17.436-6.151,25.488
			c-2.054,4.104-4.944,7.398-8.68,9.889c-3.735,2.488-7.876,3.734-12.414,3.734v0.66
			C271.289,466.672,269.054,465.717,267.224,464.254z"/>
		<path d="M436.739,457.223c0-3.516,2.27-5.273,6.812-5.273h2.417l2.197,0.221c1.171,0,1.978-0.365,2.417-1.1
			c0.439-0.73,0.659-2.049,0.659-3.955c0-2.488-0.147-6.371-0.439-11.645c-0.439-3.516-0.955-9.813-1.538-18.896
			c-1.318-22.412-1.978-39.331-1.978-50.757c0-4.099,0.072-7.834,0.22-11.206l0.22-11.206c0-4.833-0.22-8.86-0.659-12.084
			c-2.345,0.587-4.03,0.879-5.054,0.879c-3.516,0-5.273-1.758-5.273-5.273c0-1.758,1.099-3.296,3.296-4.614s4.978-2.27,8.35-2.856
			c5.856-1.171,11.058-1.758,15.601-1.758c1.758,0,3.258,0.625,4.504,1.867c1.243,1.246,1.868,2.675,1.868,4.285
			c0,1.613-0.478,3.004-1.429,4.175c-0.954,1.174-2.163,1.758-3.625,1.758c-0.879,0-1.614-0.072-2.197-0.22h-1.758
			c-1.467,0-2.527,0.329-3.187,0.988s-0.988,1.868-0.988,3.626c0,14.21,0.879,35.595,2.637,64.159
			c0.291,5.273,0.879,13.039,1.758,23.291c0.73,6.739,1.099,13.622,1.099,20.653v8.35c0.879-0.143,2.341-0.219,4.395-0.219
			c6.151,0,9.228,2.564,9.228,7.689v1.318l-5.492,3.736c-0.148,0-0.625,0.037-1.429,0.109c-0.807,0.076-2.307,0.109-4.504,0.109
			c-4.69,0.295-7.69,0.439-9.009,0.439C443.111,463.814,436.739,461.617,436.739,457.223z"/>
		<path d="M547.04,460.52l-0.22-8.57c-0.147-2.488-0.22-5.273-0.22-8.35l0.22-7.471c-0.439-1.609-1.538-17.649-3.296-48.119
			c-1.758-30.466-2.784-50.021-3.076-58.666c-8.497-0.292-13.918-1.171-16.26-2.637c-1.613-1.171-2.417-2.489-2.417-3.955
			c0-1.171,0.769-2.231,2.307-3.187c1.538-0.951,3.111-1.428,4.725-1.428c4.1,0,9.081,0.295,14.941,0.879
			c5.564,0.734,10.547,1.099,14.941,1.099h1.758h1.757c4.539,0,6.812,1.758,6.812,5.273c0,1.758-0.734,3.186-2.197,4.284
			c-1.466,1.099-3.151,1.648-5.054,1.648c-1.317,0-3.224-0.22-5.712-0.659l-4.395-0.879l-0.22,1.099l-0.22,1.099
			c0,13.039,1.242,33.837,3.735,62.401c2.341,26.807,3.516,47.608,3.516,62.401c0,1.758-0.77,3.297-2.308,4.615
			s-3.262,1.977-5.163,1.977L547.04,460.52z"/>
	</g>
	<g>
		<path d="M376.746,466.82c-3.808,0-5.713-3.221-5.713-9.668v-62.181c-2.197,0.734-5.054,1.099-8.569,1.099
			c-2.197,0-4.064-0.584-5.603-1.758c-1.538-1.171-2.307-2.709-2.307-4.614c0-3.808,3.591-5.713,10.766-5.713h2.197h1.758v-5.933
			c0-6.592-0.363-13.986-1.099-22.192c-0.583-8.789-0.879-16.039-0.879-21.752v-2.637h-2.637c-4.834,0-8.641,0.734-11.425,2.197
			c-7.471,0-11.206-2.05-11.206-6.152c0-1.902,1.136-3.516,3.405-4.834c2.272-1.318,5.312-2.27,9.119-2.856
			c5.86-0.879,11.354-1.318,16.479-1.318c2.197,0,4.141,0.587,5.823,1.758c1.686,1.174,2.526,2.784,2.526,4.834
			c0,5.568,0.296,15.528,0.879,29.882v5.273c0.296,5.273,0.807,21.021,1.538,47.241c0.734,25.196,1.686,43.872,2.856,56.029
			C381.58,465.722,378.943,466.82,376.746,466.82z"/>
	</g>
</g>
<g>
</g>
<g>
</g>
<g>
</g>
<g>
</g>
<g>
</g>
<g>
</g>
</svg>
